<?xml version="1.0" encoding="utf-8"?>
<!-- Generator: Adobe Illustrator 25.0.0, SVG Export Plug-In . SVG Version: 6.00 Build 0)  -->
<svg version="1.1" id="Layer_1" xmlns="http://www.w3.org/2000/svg" xmlns:xlink="http://www.w3.org/1999/xlink" x="0px" y="0px"
	 viewBox="0 0 200 200" style="enable-background:new 0 0 200 200;" xml:space="preserve">
<style type="text/css">
	.st0{clip-path:url(#SVGID_2_);}
	.st1{fill:#FFFFFF;}
	.st2{fill:#C7D64F;}
	.st3{fill:#967C29;}
	.st4{fill:#EDF1C8;}
	.st5{fill:#694828;}
</style>
<g id="Layer_2_1_">
	<g id="Layer_1-2">
		<g>
			<defs>
				<circle id="SVGID_1_" cx="100" cy="100" r="100"/>
			</defs>
			<clipPath id="SVGID_2_">
				<use xlink:href="#SVGID_1_"  style="overflow:visible;"/>
			</clipPath>
			<g class="st0">
				<rect x="-59.5" y="-28.1" class="st1" width="319" height="256.3"/>
				<path class="st2" d="M145.4,71.6c-1.8-3-14.2-20.2-41.9-20.4s-40.4,9.7-44.8,22.6s-7.3,36,18.1,47.8s64.5-3,70.3-22.4
					C151.6,83.8,147.2,74.6,145.4,71.6z"/>
				<path class="st3" d="M60.3,115.5c0,0,1.9,25.7,13.6,32.3s31.3,10.2,51.3,0.9c19.1-8.9,19.9-21.8,21-30.1s-0.2-9-4.2-5.5
					C119.2,134.2,84.3,135.2,60.3,115.5L60.3,115.5z"/>
				<ellipse class="st4" cx="98.8" cy="83.9" rx="15.2" ry="11.9"/>
				<path class="st5" d="M152.8,88.3L152.8,88.3c-1.2,0-2.1,0.9-2.1,2.1c-0.6,38.9-15.2,58.8-44.8,61.1c-0.3,0-0.7,0.1-0.9,0.3
					c-1.5,0.9-3.1,1.5-4.9,1.7c-1.7-0.2-3.4-0.8-4.9-1.7c-0.3-0.2-0.6-0.3-1-0.3c-25.8-1.9-40.2-17.3-43.9-46.8
					c-0.6-4.9-0.9-9.7-0.9-14.6c0-1.2-1-2.1-2.1-2.1l0,0c-1.2,0-2.1,0.9-2.1,2.1c0,0,0,0,0,0c0.1,5.1,0.4,10.1,1,15.1
					c3.9,31.3,19.8,48.2,47.3,50.5c2,1.2,4.3,1.9,6.6,2.1c2.3-0.2,4.6-0.9,6.6-2.1c15.9-1.3,28-7.6,36.1-18.6
					c7.8-10.8,11.9-26.4,12.2-46.6C154.9,89.3,154,88.3,152.8,88.3C152.8,88.3,152.8,88.3,152.8,88.3z"/>
				<path class="st5" d="M53.9,111.3c10.2,12.8,27.4,20.4,46.1,20.4s36-7.7,46.2-20.5c0.7-0.9,0.6-2.3-0.3-3s-2.3-0.6-3,0.3l0,0
					c-9.4,11.8-25.4,18.9-42.8,18.9s-33.4-7-42.8-18.8c-0.7-0.9-2.1-1.1-3-0.3S53.2,110.4,53.9,111.3
					C53.9,111.3,53.9,111.3,53.9,111.3z"/>
				<path class="st5" d="M47.2,85.6h0.2c1.1,0,2-0.8,2.1-1.9c2.1-20.8,24.3-37.1,50.5-37.1s48.3,16.3,50.5,37c0.2,1.2,1.3,2,2.4,1.8
					c1.1-0.2,1.8-1.1,1.8-2.2c-1.2-11.2-7.4-21.5-17.6-29.1S113.8,42.3,100,42.3c-13.8,0-27,4.2-37.1,11.7S46.4,72,45.3,83.2
					C45.2,84.4,46,85.4,47.2,85.6C47.2,85.6,47.2,85.6,47.2,85.6z"/>
				<path class="st5" d="M66.1,68.6c0.9-0.8,1-2.1,0.2-3c-0.8-0.9-2.1-1-3-0.2c-0.4,0.3-9.2,8.1-9.2,19.3
					c0,17.2,10.4,23.4,10.8,23.7c0.3,0.2,0.6,0.3,1,0.3c1.2,0,2.2-0.9,2.2-2.1c0-0.8-0.4-1.5-1.1-1.9c-0.4-0.2-8.7-5.3-8.7-20
					C58.3,75.5,66,68.7,66.1,68.6z"/>
				<path class="st5" d="M100,111.3c1.9,0,3.4-2,3.4-4.6s-1.5-4.6-3.4-4.6s-3.4,2-3.4,4.6S98.1,111.3,100,111.3z"/>
				<path class="st5" d="M100,68.1c1.9,0,3.4-2,3.4-4.6c0-2.6-1.5-4.6-3.4-4.6c-1.9,0-3.4,2-3.4,4.6S98.1,68.1,100,68.1z"/>
				<path class="st5" d="M91.1,70.4c1.6-1,2-3.5,0.7-5.7s-3.6-3.2-5.2-2.2c-1.6,0.9-2,3.5-0.7,5.7S89.4,71.4,91.1,70.4z"/>
				<path class="st5" d="M81.3,71.4c-2.2-1.3-4.7-1-5.7,0.7s0,4,2.2,5.2c2.2,1.2,4.7,1,5.7-0.7C84.5,75,83.5,72.7,81.3,71.4z"/>
				<path class="st5" d="M70.7,85.1c0,1.9,2,3.4,4.6,3.4c2.6,0,4.6-1.5,4.6-3.4s-2-3.4-4.6-3.4S70.7,83.3,70.7,85.1z"/>
				<path class="st5" d="M77.9,93c-2.2,1.3-3.2,3.6-2.2,5.2c1,1.6,3.5,2,5.7,0.7s3.2-3.6,2.2-5.2C82.6,92.1,80.1,91.7,77.9,93z"/>
				<path class="st5" d="M86.5,107.8c1.6,1,4-0.1,5.2-2.2s1-4.7-0.7-5.7c-1.7-0.9-4,0.1-5.2,2.2S84.9,106.8,86.5,107.8z"/>
				<path class="st5" d="M113.5,62.5c-1.6-0.9-4,0.1-5.2,2.2s-1,4.7,0.7,5.7c1.7,0.9,4-0.1,5.2-2.2S115.1,63.5,113.5,62.5z"/>
				<path class="st5" d="M118.7,71.4c-2.2,1.3-3.2,3.6-2.2,5.2s3.5,2,5.7,0.7c2.2-1.3,3.2-3.6,2.2-5.2S120.9,70.1,118.7,71.4z"/>
				<path class="st5" d="M129.3,85.1c0-1.9-2-3.4-4.6-3.4s-4.6,1.5-4.6,3.4s2,3.4,4.6,3.4C127.3,88.6,129.3,87,129.3,85.1z"/>
				<path class="st5" d="M116.4,93.7c-0.9,1.6,0.1,4,2.2,5.2c2.2,1.2,4.7,0.9,5.7-0.7s-0.1-4-2.2-5.2
					C119.9,91.7,117.4,92,116.4,93.7z"/>
				<path class="st5" d="M108.9,99.9c-1.6,0.9-2,3.5-0.7,5.7s3.6,3.2,5.2,2.2s2-3.5,0.7-5.7S110.6,98.9,108.9,99.9z"/>
			</g>
		</g>
	</g>
</g>
</svg>
