<?xml version="1.0" encoding="utf-8"?>
<!-- Generator: Adobe Illustrator 25.0.0, SVG Export Plug-In . SVG Version: 6.00 Build 0)  -->
<svg version="1.1" id="Layer_1" xmlns="http://www.w3.org/2000/svg" xmlns:xlink="http://www.w3.org/1999/xlink" x="0px" y="0px"
	 viewBox="0 0 200 200" style="enable-background:new 0 0 200 200;" xml:space="preserve">
<style type="text/css">
	.st0{clip-path:url(#SVGID_2_);}
	.st1{fill:#FFFFFF;}
	.st2{fill:#E63323;}
	.st3{fill:#694828;}
</style>
<g id="Layer_2_1_">
	<g id="Layer_1-2">
		<g>
			<defs>
				<circle id="SVGID_1_" cx="100" cy="100" r="100"/>
			</defs>
			<clipPath id="SVGID_2_">
				<use xlink:href="#SVGID_1_"  style="overflow:visible;"/>
			</clipPath>
			<g class="st0">
				<rect x="-59.5" y="-28.1" class="st1" width="319" height="256.3"/>
				<path class="st2" d="M120.7,27.8c-1.1-1.4-9.3-1.8-18.6-1.4c-5.3,0.1-9.9,3.4-11.8,8.4c0,0,0-3.4-2.7-4.4
					c-7-2.8-28.5,1.1-28.7,2.8c-0.2,1.6,4.5,2,17.2,2.3c9.6,0.2,16,5.5,15.5,7.1C91.2,44,74.1,58.7,75.3,60.7c1.2,2,4.1-3.2,20.1-9
					c7.6-2.7,18.7-6,23.3-12.3C122.3,34.6,122.3,29.7,120.7,27.8z"/>
				<path class="st2" d="M122.5,27.3c-0.4-1.5,2.5-0.8,4.1,0c2.1,1.1,2.9,3.7,1.8,5.8c-0.1,0.1-0.1,0.2-0.2,0.3
					c-0.7,0.4-1.4,0.6-2.2,0.7c4.9,5.4,7.4,12.5,6.9,19.7c-0.4,6.7-1.8,13.4-4.2,19.7l-12.7-1.1c0,0,4-29.9,2.4-31
					C118.5,41.5,124.1,33.5,122.5,27.3z"/>
				<path class="st2" d="M142.4,112.2c4.7-15.3-6.7-30.6-16.9-31.3S102.5,88,102.5,88s5.5-7.1,1.8-7.3s-22.2,1.3-27.1,23
					c-0.9,4-3.2,4.8-4.1,10.4c-1.4,8.7,0.5,16.3,5.3,22c7.1,8.5,19.1,16.4,36,6.3S139.9,120.5,142.4,112.2z"/>
				<path class="st2" d="M83,168.8c0.8,2.6,1.8,5,6.3,0c5.9-6.6,11-20.9,11-20.9l8.6-2.2c0,0-3.2,20.3-13,31
					c-5.8,6.4-11.6,4-13.1,2.9c0,0-4.3,4.9-8.4-1.5c-2.9-4.4-1.6-19.3-1.6-19.3l9.9-7C82.6,151.7,82.1,165.8,83,168.8z"/>
				<path class="st2" d="M89.3,145.2l-5-2.9c0,0-12.4,5.8-19,7.7c-4.9,1.4-3.6-5.1-2.7-8.4s3.4-9.7,2.3-9.9
					c-0.7-0.7-6.3,1.2-7.5,2.2s-10.8,12.4-10,19.5c0.5,4.6,9.6,9.6,16.3,8.3C77.3,159,89.3,145.2,89.3,145.2z"/>
				<path class="st2" d="M74.1,128.5c-1.2-3-1.8-6.2-1.8-9.4c-6.5,1.9-13.2,3.3-19.9,4.4c-9.6,1.5-12.5-0.7-12.2-3.3
					c-2.2,1.3-4.6,2.2-7.2,2.4c-2.6,0.5-5.3,0.1-7.8-1c0,2.8-0.3,9.1,1.9,10.3c2,1.2,4.5,1,6.4-0.4c0,0,3.8,5.1,14.9,3.7
					S74.1,128.5,74.1,128.5z"/>
				<path class="st2" d="M61.5,74c-1.1-2.2-10.1,6.4-15.3,15.2s-10-4.8-10.2-12.9s-0.9-16-2-16.4s-6.2,12.3-4.5,27.8
					c0,0-3.9,8.6-4.3,15.4c-0.4,5.5-0.3,11.1,0.2,16.6c0.4,1.4,5.9,4,12.3,0.4s10.5-12,13.2-21.9S62.6,76.2,61.5,74z"/>
				<path class="st2" d="M132.5,65.1c0,0,9-2.7,12.9-2.2c0.6,0.1-7.3,17-7.3,17c3.1,1.8,6.8,7.5,6.8,7.5c3.7-1.6,10.6-9.3,13.8-16.5
					c1.6-3.6-0.1-9.9-3.9-10.7c-2.1-0.5-4.2,0.2-5.6,1.8c0,0-3.7-1.6,0.1-6.6c1.3-1.7,1.7-6.8-3.4-5.8c-7,1.4-12,9.1-12,9.1
					C131.4,62.1,130.2,65.8,132.5,65.1z"/>
				<path class="st2" d="M179.6,81.8c0,0,2.9-5.6-2.3-8c-9.5-4.3-19.8,0.8-19.8,0.8l-5,8.2c9.2-1.5,12.8,1.6,14.7,0.6
					S173.4,77.2,179.6,81.8z"/>
				<path class="st2" d="M157,93c2.4-0.7,9.8-4.1,13.5-5.6s10.6,3.1,5.3,8.9s-28.4,14.2-30.1,12.1c1.3-4,2-8.2,2.1-12.5
					C150.2,95.3,154.6,93.7,157,93z"/>
				<path class="st3" d="M25.6,122.6c1.9,0.9,3.9,1.3,6,1.3c1.9,0,3.8-0.4,5.6-1.2c8.6-3.9,13.5-16.2,15.6-23.2
					c1.9-5.8,4.4-11.5,7.5-16.8c3.6-6.7,6.7-12.5,1.1-15.6c-2.7-1.6-6.3-0.2-10.9,4.2c-4.2,4.2-7.8,8.8-10.8,13.9
					c-1.6,2.6-5.6,2.7-8.7,2.3c-1.2-0.2-2.3,0.5-2.5,1.7c-0.2,1.2,0.5,2.3,1.7,2.5c0.1,0,0.2,0,0.3,0c7.8,0.9,11.3-1.8,12.8-4.3
					C51.1,74.8,58,70.1,59.3,70.8c1.7,1,0.9,3.1-2.8,9.9c-3.2,5.6-5.8,11.5-7.8,17.5c-3.3,10.7-8.2,18.2-13.4,20.6
					c-2.6,1.2-5.5,1.1-8-0.1c-3.8-1.7-6-5.2-6.5-10.6c-0.9-8.4,2.7-17.1,4.1-18c0.9-0.7,1.1-2.1,0.3-3c-0.7-0.8-1.9-1.1-2.8-0.5
					c-3.3,2.3-6.7,13.2-5.9,21.9C17.3,115.5,20.4,120.3,25.6,122.6z"/>
				<path class="st3" d="M24.5,83.7c1.2-0.1,2.1-1.1,2-2.2c0,0,0,0,0,0c-0.2-2.5-0.1-5.1,0.1-7.7c0.6-5.5,2.8-11.2,4.9-12.8
					c0.2-0.2,0.4-0.3,0.7-0.3c1.2,0.3,1.2,7,1.3,9.5c0,1.7,0,3.5,0.1,5.1c0.2,2.3,0.5,4.6,1,6.9c0.2,1,1.1,1.7,2.1,1.7
					c0.2,0,0.3,0,0.5,0c1.1-0.3,1.9-1.4,1.6-2.5c-0.5-2.1-0.8-4.2-1-6.3c-0.1-1.5-0.1-3.1-0.1-4.8c0-6.2-0.1-12.6-4.6-13.6
					c-1.4-0.3-2.9,0.1-4.1,1c-3.7,2.7-6,10-6.6,15.8c-0.3,2.8-0.3,5.6-0.1,8.4C22.3,82.9,23.3,83.7,24.5,83.7z"/>
				<path class="st3" d="M70.5,129.3c-0.4-1.1-1.6-1.7-2.7-1.3c0,0,0,0,0,0c-10,3.5-22.9,6.5-29.3,4.6c-2.1-0.5-3.7-2.4-3.9-4.6
					c-0.1-1.2-1.1-2-2.3-1.9c-1.2,0.1-2,1.1-1.9,2.3c0.4,3.9,3.1,7.2,6.9,8.2c2,0.6,4.1,0.8,6.2,0.8c9.4,0,21.6-3.9,25.8-5.4
					C70.3,131.6,70.9,130.4,70.5,129.3z"/>
				<path class="st3" d="M65.9,114.6c-4.1,0.5-10.7,1.2-18.6,2c-1.2,0.2-2,1.2-1.8,2.4c0.1,1,1,1.8,2,1.8h0.2c8-0.8,14.5-1.5,18.6-2
					c1.2-0.2,2-1.3,1.8-2.4C68,115.4,67,114.6,65.9,114.6L65.9,114.6z"/>
				<path class="st3" d="M29.6,130.7c-2-0.5-3.8-1.6-5.2-3.2c-0.9-1.4-1.5-3-1.7-4.7c-0.2-1.2-1.3-2-2.4-1.8c-1.2,0.2-2,1.3-1.8,2.4
					c0.3,2.4,1.2,4.6,2.5,6.6c1.9,2.3,4.5,3.9,7.3,4.7c0.2,0.1,0.4,0.1,0.6,0.1c1.2,0,2.1-1,2.1-2.2C31,131.8,30.4,131,29.6,130.7
					L29.6,130.7z"/>
				<path class="st3" d="M85.1,148.5c-0.8-0.8-2.2-0.8-3,0c0,0,0,0,0,0c-4.7,4.9-10.5,8.5-17,10.5c-4.4,1.3-8-1-9-4.1
					c-0.9-2.7,0.7-5,4-6.1c5.2-1.7,10.3-3.8,15.2-6.2c1-0.5,1.5-1.8,0.9-2.9c-0.5-1-1.8-1.5-2.9-0.9c-3,1.5-6,2.8-9.1,4
					c0.4-1.3,0.9-2.7,1.4-4.2c0.3-1.1-0.5-2.3-1.6-2.6c-1-0.2-2,0.3-2.4,1.2c-0.6,1.6-1.1,3.2-1.5,4.6c-0.2,0.8,0,1.7,0.7,2.2
					l-2.1,0.7c-6.5,2.2-8,7.3-6.7,11.5c1.5,4.5,5.8,7.5,10.5,7.4c1.3,0,2.5-0.2,3.8-0.6c7.1-2.2,13.6-6.2,18.8-11.6
					C85.9,150.7,85.9,149.4,85.1,148.5C85.1,148.6,85.1,148.5,85.1,148.5z"/>
				<path class="st3" d="M107.9,150.1c-1.1-0.3-2.3,0.5-2.6,1.6c-2.1,9.1-7,20.5-13.2,25.5c-2.5,2.2-6.4,2.1-8.8-0.2
					c-0.8-0.9-2.5-3.2,0.2-6.4c4.3-5,8.2-10.3,11.6-16c0.7-1,0.4-2.3-0.6-3s-2.3-0.4-3,0.6c0,0.1-0.1,0.1-0.1,0.2
					c-2.1,3.5-4.3,6.8-6.8,10c0-1-0.1-1.9-0.1-2.9c0-1.2-0.9-2.1-2.1-2.1l0,0c-1.2,0-2.1,1-2.1,2.1c0,0,0,0,0,0c0,1.3,0,2.6,0.1,3.9
					c0,1,0.8,1.9,1.8,2c-0.6,0.8-1.3,1.6-2,2.4c-3.1,3.7-3.3,8.1-0.6,11.5c-4-0.8-6.1-6.4-5-13.7c0.2-1.2-0.5-2.3-1.7-2.5
					s-2.3,0.5-2.5,1.7c0,0.1,0,0.2,0,0.2c-1.4,10,2.1,17.5,8.7,18.5h0.3c1.2,0,2.1-1,2.1-2.1c0-0.1,0-0.3,0-0.4c1.8,1.3,4,2,6.2,2
					c2.5,0,5-0.9,6.9-2.5c7.4-6,12.6-18.7,14.7-27.9C109.8,151.5,109,150.3,107.9,150.1z"/>
				<path class="st3" d="M50.6,147.7c1-2,2.2-3.8,3.5-5.6c0.7-0.9,0.5-2.3-0.5-3c-0.9-0.7-2.3-0.5-3,0.5l0,0c-1.5,2-2.8,4.1-4,6.3
					c-2.2,4.9-1.9,9.5,0.9,12.4c0.4,0.4,1,0.7,1.5,0.6c0.5,0,1.1-0.2,1.5-0.6c0.8-0.8,0.9-2.1,0.1-3c0,0,0,0,0,0
					C49.1,153.7,49.1,150.9,50.6,147.7z"/>
				<path class="st3" d="M71.2,50.6c-4.3,4.5-5.7,8.2-4.1,10.8c0.9,1.9,2.8,3,4.8,3c3,0,6.7-2,10.8-4.2c5.3-3,11-5.5,16.8-7.4
					c7-2.2,19.3-7,23.2-15.7c0.4-0.9,0.7-1.8,0.9-2.8c0.6,0.5,1.4,0.7,2.1,0.5c2.7-1,5.7,0.4,6.7,3.2c0.1,0.2,0.1,0.3,0.1,0.5
					c1.9,6.3-1.1,19.2-4.5,29.1c-0.4,1.1,0.2,2.3,1.3,2.7c0.2,0.1,0.5,0.1,0.7,0.1c0.9,0,1.7-0.6,2-1.4c1.8-5.1,7.4-22.6,4.6-31.7
					c-1.4-5.1-6.6-8-11.7-6.6c-0.2,0-0.4,0.1-0.5,0.2c-0.2,0.1-0.4,0.2-0.5,0.3c-0.1-1.9-0.5-3.7-1.3-5.5c-2.3-5.1-7-8.2-13.8-9
					c-8.8-1-19.7,2.4-22.2,5.7c-0.7,0.9-0.6,2.3,0.3,3c0.9,0.7,2.3,0.6,3-0.3c0-0.1,0.1-0.1,0.1-0.2c1-1.4,9.9-5,18.3-4
					c5.2,0.6,8.7,2.8,10.4,6.5c1.2,2.5,1.3,5.5,0.1,8c-2.4,5.2-9.9,10-20.6,13.4c-6.1,2-12,4.6-17.5,7.8c-6.8,3.7-9,4.5-9.9,2.8
					c-0.7-1.3,4-8.2,16.6-15.9c3.8-2.3,5.2-7.1,4.2-13.8c-0.1-1.2-1.1-2-2.3-1.9c-1.2,0.1-2,1.1-1.9,2.3c0,0.1,0,0.2,0,0.3
					c0.5,3.4,0.6,7.8-2.2,9.6C80.1,42.8,75.4,46.5,71.2,50.6z"/>
				<path class="st3" d="M70.1,37.7c1.7,0,3.4,0,4.9,0.1c2.2,0.1,4.3,0.4,6.4,0.9c0.2,0,0.3,0,0.5,0c1.2,0,2.1-1,2.1-2.2
					c0-1-0.7-1.8-1.6-2c-2.3-0.5-4.6-0.9-7-1c-1.6-0.1-3.4-0.1-5.1-0.1c-2.5,0-9.2,0-9.5-1.3c0-0.2,0.1-0.5,0.3-0.7
					c1.6-2.1,7.3-4.4,12.8-4.9c2.8-0.3,5.7-0.3,8.5,0c1.2,0.1,2.2-0.7,2.3-1.9s-0.7-2.2-1.9-2.3l0,0c-3.1-0.3-6.2-0.3-9.3,0
					c-5.8,0.7-13.1,3-15.8,6.7c-0.9,1.1-1.3,2.6-1,4.1C57.5,37.7,63.9,37.7,70.1,37.7z"/>
				<path class="st3" d="M116.5,48.3c-0.8,7.5-1.4,13.6-1.9,17.5c-0.1,1.2,0.7,2.2,1.9,2.3h0.2c1.1,0,2-0.8,2.1-1.9
					c0.4-3.8,1.1-10,1.9-17.5c0.2-1.2-0.6-2.3-1.8-2.4s-2.3,0.6-2.4,1.8C116.5,48.1,116.5,48.2,116.5,48.3L116.5,48.3z"/>
				<path class="st3" d="M122.4,22.6c1.8,0.2,3.6,0.8,5.1,1.8c1.5,1.4,2.6,3.1,3.1,5c0.3,0.9,1.1,1.4,2,1.5c0.2,0,0.4,0,0.7-0.1
					c1.1-0.4,1.7-1.6,1.4-2.7c-0.8-2.8-2.4-5.2-4.7-7.1c-2.1-1.4-4.6-2.3-7.1-2.6c-1.2-0.1-2.2,0.8-2.3,1.9
					C120.5,21.5,121.3,22.5,122.4,22.6L122.4,22.6z"/>
				<path class="st3" d="M163.1,66.4c2.1-6.9-1.8-12.7-6.8-14.3c-4.1-1.3-9.3,0.3-11.5,6.7c-0.3,0.9-0.6,1.7-0.9,2.5
					c-0.5-0.9-1.5-1.3-2.4-1c-1.3,0.4-2.7,0.9-4.2,1.4c-1.1,0.3-1.9,1.4-1.6,2.6c0.3,1.1,1.4,1.9,2.6,1.6c0.2,0,0.3-0.1,0.4-0.2
					c1.4-0.5,2.8-0.9,4-1.3h0.1c-1.2,3.2-2.6,6.3-4.1,9.3c-0.6,1-0.2,2.3,0.8,2.9c1,0.6,2.3,0.2,2.9-0.8c0-0.1,0.1-0.1,0.1-0.2
					c2.5-5,4.6-10.2,6.3-15.5c1.1-3.4,3.4-4.9,6.1-4c3,1,5.4,4.6,4.1,9c-2.1,6.6-5.8,12.5-10.7,17.2c-0.8,0.8-0.9,2.1-0.1,3
					c0,0,0,0,0,0c0.4,0.4,1,0.7,1.5,0.7c0.5,0,1.1-0.2,1.5-0.6C156.8,80.2,160.9,73.6,163.1,66.4z"/>
				<path class="st3" d="M141.1,54.4c0.4,0,0.9-0.1,1.2-0.4c1.7-1.3,3.5-2.4,5.4-3.4c3.6-1.7,6.7-1.4,8.1,0.7c0.7,1,2,1.2,3,0.5
					c1-0.7,1.2-2,0.5-3l0,0c-2.1-3-6.8-5.1-13.4-2.1c-2.1,1.1-4.2,2.3-6.1,3.8c-0.9,0.7-1.2,2-0.5,3
					C139.8,54.1,140.4,54.4,141.1,54.4z"/>
				<path class="st3" d="M181.4,82h0.3c1.2-0.1,2-1.2,1.8-2.3c0,0,0,0,0,0c-0.8-6.7-8.1-10.4-18-9.1c-1.2,0.2-1.9,1.3-1.7,2.5
					c0.2,1.1,1.2,1.8,2.2,1.7c7.1-0.9,12.4,1.2,13.2,5.1c-3.4-2.8-7.8-2.6-11.5,0.6c-0.8,0.7-1.6,1.3-2.4,2c-0.1-1-1-1.8-2-1.9
					c-1.2-0.1-2.5-0.1-3.8-0.1l0,0c-1.2-0.1-2.2,0.8-2.3,2c-0.1,1.2,0.8,2.2,2,2.3c0.1,0,0.2,0,0.3,0c1,0,1.9,0,2.9,0.1
					c-3.2,2.5-6.5,4.8-10,6.8c-1,0.7-1.2,2-0.6,3c0.6,0.9,1.8,1.2,2.7,0.7c5.6-3.4,11-7.3,15.9-11.6c3.2-2.7,5.6-1.1,6.4-0.2
					c2.3,2.4,2.4,6.2,0.2,8.8c-4.8,6-16,10.9-25,13.1c-1.1,0.3-1.9,1.4-1.6,2.5c0.2,1,1.1,1.7,2.1,1.7c0.2,0,0.3,0,0.5-0.1
					c8.9-2.2,21.4-7.3,27.3-14.6c3.1-3.6,3.4-8.9,0.8-12.9H181.4z"/>
				<path class="st3" d="M84.7,110.8c-1.2-0.2-2.2,0.6-2.4,1.7c0,0,0,0,0,0c-0.1,0.7-2.6,16.4,10.3,24.3c1,0.6,2.3,0.3,2.9-0.7
					c0.6-1,0.3-2.3-0.7-2.9c-10.4-6.4-8.4-19.4-8.3-20C86.6,112.1,85.8,111,84.7,110.8z"/>
				<path class="st3" d="M101.8,76.4c1.2,0,2.1-1,2.1-2.2c0-1.1-0.8-2-1.9-2.1c-6.7-0.3-15.9,0.8-22.5,7.3s-7.6,15.9-7.3,22.6
					c0.1,1.1,1,2,2.1,2h0.1c1.2-0.1,2.1-1.1,2-2.2C76.1,96.1,77,88,82.5,82.5C88,77,96,76.2,101.8,76.4z"/>
				<path class="st3" d="M139.8,79c-14-12.4-28-8.1-32-6.5c-1.1,0.5-1.5,1.8-1,2.8c0.5,1,1.6,1.4,2.6,1.1c3.4-1.4,15.4-5,27.5,5.8
					c5.2,4.6,7.9,9.9,8.1,15.9c0.3,9.2-5.4,19.8-16.3,30.7s-21.5,16.6-30.7,16.3c-6-0.2-11.3-2.9-15.9-8.1
					c-10.8-12.1-7.1-24.1-5.8-27.5c0.5-1.1,0-2.3-1.1-2.8s-2.3,0-2.8,1.1c0,0,0,0.1,0,0.1c-1.6,4-5.8,18,6.5,31.9
					c5.4,6.1,11.8,9.3,18.9,9.5h0.8c10.2,0,21.6-6.1,33.1-17.6c11.8-11.8,17.9-23.5,17.6-33.9C149.1,90.7,145.9,84.4,139.8,79z"/>
			</g>
		</g>
	</g>
</g>
</svg>
