<?xml version="1.0" encoding="utf-8"?>
<!-- Generator: Adobe Illustrator 25.0.0, SVG Export Plug-In . SVG Version: 6.00 Build 0)  -->
<svg version="1.1" id="Layer_1" xmlns="http://www.w3.org/2000/svg" xmlns:xlink="http://www.w3.org/1999/xlink" x="0px" y="0px"
	 viewBox="0 0 200 200" style="enable-background:new 0 0 200 200;" xml:space="preserve">
<style type="text/css">
	.st0{clip-path:url(#SVGID_2_);}
	.st1{fill:#FFFFFF;}
	.st2{fill:#6A5442;}
	.st3{fill:#785F4B;}
	.st4{fill:#856954;}
	.st5{fill:#694828;}
</style>
<g id="Layer_2_1_">
	<g id="Layer_1-2">
		<g>
			<defs>
				<circle id="SVGID_1_" cx="100" cy="100" r="100"/>
			</defs>
			<clipPath id="SVGID_2_">
				<use xlink:href="#SVGID_1_"  style="overflow:visible;"/>
			</clipPath>
			<g class="st0">
				<rect x="-59.5" y="-28.1" class="st1" width="319" height="256.3"/>
				<path class="st2" d="M154.3,125c-6.1-15.4-13.5-24.9-19.5-10.4c0,0-5.6-1.8-11.7,8.7c-6.1,10.5-7.5,29,6.1,30.8
					c3.5,0.4,6.6-2.1,9.7-1.9c9,0.4,15.1-3,16.7-10C157.3,133.9,154.3,125,154.3,125z"/>
				<path class="st3" d="M84,111.8c-13.8-18-22.4-15.2-21.4-5.1c-6.9,5.1-10.9,13.2-10.7,21.8c0,14.9,10.7,19.9,18,19.4
					c5.1-0.3,8.5-4.9,8.5-4.9c8.6-1.2,14.2-8.3,13.1-16.3C90.4,118.8,84,111.8,84,111.8z"/>
				<path class="st4" d="M117.3,65.3c-8.8-15.4-16.7-17.1-19-5.8c0,0-8,4.2-13.5,17.2c-4.4,10.3-2.6,24.1,14.6,24.4
					c5.3,0.1,9-4.1,9-4.1c12.4-0.3,14.9-8.2,14.9-14.7C123.2,73.3,117.3,65.3,117.3,65.3z"/>
				<path class="st5" d="M82.3,97.8c0.3,0.1,0.5,0.2,0.8,0.2c1.2,0,2.1-0.9,2.1-2.1c0-0.9-0.5-1.7-1.3-2c-3.6-1.5-5.6-4.3-6.2-8.9
					c-1.2-8.2,5.9-20.7,13.4-29.5c0.8-0.9,0.8-2.2-0.1-3s-2.2-0.8-3,0.1c0,0-0.1,0.1-0.1,0.2C80.3,61.5,72,75.4,73.5,85.5
					C74.4,91.6,77.3,95.7,82.3,97.8z"/>
				<path class="st5" d="M97.1,49.4c0.7-0.6,1.5-1.1,2.3-1.4c4.1,0.9,23.6,23.4,21.7,36.9c-0.7,4.6-2.7,7.4-6.3,9
					c-1.1,0.5-1.6,1.7-1.1,2.8c0.3,0.8,1.1,1.3,1.9,1.3c0.3,0,0.6-0.1,0.8-0.2c5-2.1,8-6.2,8.9-12.3c1.5-10.3-7-24.3-14.7-33.2
					c-2.8-3.2-8-8.6-11.2-8.6l0,0c-1.3,0-2.9,0.8-5,2.4c-1,0.7-1.2,2-0.5,3c0.7,1,2,1.2,3,0.5C97,49.6,97,49.5,97.1,49.4L97.1,49.4z
					"/>
				<path class="st5" d="M110.6,96.9c0-0.7-0.4-1.3-0.9-1.7c-0.6-0.4-6.2-4.1-10.2-4.1s-9.6,3.7-10.2,4.1c-1,0.7-1.2,2-0.6,3
					c0.1,0.2,0.3,0.3,0.4,0.5c0.6,0.5,5.9,4.5,10.4,4.5c4.5,0,9.8-4.1,10.3-4.5C110.3,98.3,110.6,97.6,110.6,96.9z M99.4,99
					c-1.8-0.2-3.5-0.8-5-1.8c1.5-0.9,3.2-1.5,5-1.7c1.8,0.2,3.5,0.8,5,1.7C102.9,98.2,101.2,98.8,99.4,99z"/>
				<path class="st5" d="M98.7,53c-1.2-0.2-2.2,0.6-2.4,1.8C95,63,94,75.3,96,86.3c0.2,1,1.1,1.7,2.1,1.8c0.1,0,0.3,0,0.4,0
					c1.2-0.2,1.9-1.3,1.7-2.5c-1.9-10.5-0.9-22.2,0.3-30.2C100.7,54.3,99.8,53.2,98.7,53z"/>
				<path class="st5" d="M57.1,97.7c-0.9-0.7-2.3-0.5-3,0.4c0,0,0,0,0,0c-6.6,9.2-15.1,27-11.6,38.4c2,6.4,5.9,10,11.9,11h0.4
					c1.2,0,2.2-0.9,2.2-2c0-1.1-0.8-2-1.8-2.2c-4.4-0.8-7.1-3.2-8.6-8.1c-2.9-9.3,4.7-25.9,11-34.7C58.2,99.7,58,98.4,57.1,97.7z"/>
				<path class="st5" d="M65,91.9c-1.1-0.5-2.3,0-2.8,1.1c-0.5,1.1,0,2.3,1.1,2.8c7.3,3.1,26,20.7,26.1,32.8c0.1,4.8-1.6,8-5.1,10
					c-1,0.6-1.4,1.9-0.9,2.9c0.4,0.7,1.1,1.1,1.9,1.1c0.4,0,0.7-0.1,1-0.3c5-2.9,7.4-7.4,7.3-13.8C93.6,114.4,73.5,95.5,65,91.9z"/>
				<path class="st5" d="M79.7,140.6c-0.7-0.3-6.8-3.1-10.7-2.5c-4,0.6-8.9,5.1-9.5,5.6c-0.9,0.8-0.9,2.2-0.1,3
					c0.2,0.2,0.3,0.3,0.5,0.4c0.6,0.3,5.4,3,9.6,3c0.4,0,0.9,0,1.3-0.1c4.4-0.7,9-5.6,9.5-6.1c0.8-0.9,0.8-2.2-0.1-3
					C80.2,140.9,80,140.7,79.7,140.6L79.7,140.6z M70.2,145.9c-1.8,0.1-3.6-0.3-5.3-1c1.4-1.1,3-2,4.7-2.5c1.8,0,3.6,0.3,5.2,0.9
					C73.6,144.5,72,145.4,70.2,145.9z"/>
				<path class="st5" d="M66.9,134.2c0.2,0,0.5,0,0.7-0.1c1.1-0.4,1.7-1.6,1.3-2.7c-3.5-10-4.3-21.3-4.4-29c0-1.2-1-2.1-2.1-2.1l0,0
					c-1.2,0-2.1,1-2.1,2.1c0.1,8,0.9,19.8,4.6,30.4C65.2,133.6,66,134.2,66.9,134.2z"/>
				<path class="st5" d="M115.8,144.7c-3.8-2.1-5.4-5.3-5.3-10.3c0.3-8.9,11.1-21.5,21.1-28.9c0.9-0.7,1.1-2,0.4-3s-2-1.1-3-0.4l0,0
					c-9,6.6-22.5,20.6-22.8,32.2c-0.2,6.6,2.2,11.2,7.4,14.1c0.3,0.2,0.7,0.3,1.1,0.3c1.2,0,2.1-0.9,2.1-2.1
					C116.9,145.7,116.5,145,115.8,144.7L115.8,144.7z"/>
				<path class="st5" d="M140.9,98.3c-0.9-0.7-2.3-0.5-3,0.4c-0.7,0.9-0.5,2.3,0.4,3c0.1,0,0.1,0.1,0.2,0.1c5,3.3,18.9,27.5,14.8,40
					c-1.5,4.5-4.1,7-8.1,7.8c-1.2,0.2-1.9,1.3-1.7,2.4c0.2,1,1.1,1.8,2.2,1.8c0.1,0,0.3,0,0.4,0c5.6-1.1,9.3-4.6,11.3-10.6
					C162.2,128.5,146.8,102.3,140.9,98.3z"/>
				<path class="st5" d="M130.9,144.3c-4-0.7-10.1,2-10.8,2.3c-1.1,0.5-1.6,1.7-1.1,2.8c0.1,0.2,0.2,0.4,0.4,0.5
					c0.5,0.6,5,5.5,9.4,6.3c0.5,0.1,1,0.1,1.5,0.1c4.1,0,8.9-2.5,9.5-2.8c0.6-0.3,1-0.9,1.1-1.6c0.1-0.7-0.1-1.3-0.6-1.8
					C139.7,149.5,134.8,145,130.9,144.3z M129.5,152c-1.7-0.5-3.3-1.4-4.7-2.7c1.7-0.6,3.5-0.9,5.3-0.8c1.7,0.5,3.3,1.4,4.7,2.6
					C133.1,151.8,131.3,152.1,129.5,152z"/>
				<path class="st5" d="M130.8,139.3L130.8,139.3c1.2,0,2.1-1,2.1-2.1c0,0,0,0,0,0c-0.1-10.1,2.6-20.3,4.8-27.1
					c0.5-1.1,0.1-2.3-0.9-2.9c-1.1-0.5-2.3-0.1-2.9,0.9c-0.1,0.2-0.2,0.4-0.2,0.6c-2.3,7.1-5.1,17.7-5,28.4
					C128.7,138.3,129.7,139.3,130.8,139.3z"/>
			</g>
		</g>
	</g>
</g>
</svg>
