<?xml version="1.0" encoding="utf-8"?>
<!-- Generator: Adobe Illustrator 25.0.0, SVG Export Plug-In . SVG Version: 6.00 Build 0)  -->
<svg version="1.1" id="Layer_1" xmlns="http://www.w3.org/2000/svg" xmlns:xlink="http://www.w3.org/1999/xlink" x="0px" y="0px"
	 viewBox="0 0 200 200" style="enable-background:new 0 0 200 200;" xml:space="preserve">
<style type="text/css">
	.st0{clip-path:url(#SVGID_2_);}
	.st1{fill:#FFFFFF;}
	.st2{fill:#FFDB7C;}
	.st3{fill:#694828;}
</style>
<g id="Layer_2_1_">
	<g id="Layer_1-2">
		<g>
			<defs>
				<circle id="SVGID_1_" cx="100" cy="100" r="100"/>
			</defs>
			<clipPath id="SVGID_2_">
				<use xlink:href="#SVGID_1_"  style="overflow:visible;"/>
			</clipPath>
			<g class="st0">
				<rect x="-59.5" y="-28.1" class="st1" width="319" height="256.3"/>
				<path class="st2" d="M38.6,129c-4.1-14.5,10.2-29.6,22-26.4S70,118,79.2,126c13.6,11.8,28.2,7.4,35,8.2
					c6.8,0.9-0.6,22.3-23.8,24.6S43.9,147.7,38.6,129z"/>
				<path class="st2" d="M70.2,69.2c7.7-19.9,43.3-25.8,65.3-14.9s28.6,44.2,14,49c-11.8,3.9-22.1-3-30.4-13.5
					c-8.6-10.8-17.6-13.5-29.3-10.6C76.1,82.5,65.8,80.6,70.2,69.2z"/>
				<path class="st3" d="M116.2,123.5c-16.3,1.2-26.5-2.7-31.2-11.9c-4.4-8.7-8-13.9-12-17.4c-0.9-0.8-2.2-0.7-3,0.1c0,0,0,0,0,0
					c-0.8,0.9-0.7,2.2,0.2,3c3.5,3.1,6.9,8.1,11,16.2c5.6,10.9,17.1,15.5,35.3,14.2c4.8-0.3,8.3,1.5,9.2,4.9
					c1.3,4.9-3.3,12.7-16.6,19c-17.9,8.5-37.7,7.2-52.9-3.5c-13-9.1-21.3-25.3-19.4-37.6c1.2-7.8,6.5-13.4,15.3-16.1
					c3.3-1.2,6.9-1.5,10.4-1c1.2,0.2,2.3-0.5,2.5-1.7s-0.5-2.3-1.7-2.5c-4.2-0.7-8.5-0.3-12.5,1.1c-13.2,4.2-17.2,12.9-18.2,19.5
					c-2.1,13.8,7,31.7,21.2,41.7c9.2,6.5,20.1,9.9,31.3,9.9c9-0.1,17.8-2.1,25.8-6c10.3-4.9,21.5-14.1,18.9-23.9
					C128.4,126.2,123.1,123,116.2,123.5z"/>
				<path class="st3" d="M144.8,46.6c-1-0.6-2.3-0.2-2.9,0.8c-0.5,1-0.2,2.1,0.6,2.8c12.6,7.8,21.2,21,20.8,31.9
					c-0.2,7.4-4.3,13.2-12,17.3c-12.9,6.9-21,0.9-32.2-13.5c-7.5-9.6-19.7-12.1-37.3-7.4c-4.6,1.2-8.5,0.1-10-3.1
					c-2.2-4.6,0.9-13.1,12.8-21.7c7.3-5.3,26.8-16.6,50.1-7.4c1.1,0.4,2.3-0.1,2.8-1.2s-0.1-2.3-1.2-2.8l0,0
					c-25.3-10-46.3,2.2-54.2,7.9C73,57,63.8,68.1,68.1,77.3c2.4,5,8.2,7.1,14.9,5.4c15.8-4.2,26.6-2.3,32.9,5.9
					c8.6,11.2,16.2,18.1,25.5,18.1c4.2-0.1,8.4-1.3,12-3.4c11.4-6.1,14.1-14.8,14.2-21C168,69.7,158.9,55.4,144.8,46.6z"/>
				<path class="st3" d="M68.6,112.8c4.5,9.5,11.4,23.8,35.4,23.8h0.5c1.2,0,2.1-1,2.1-2.1c0,0,0,0,0,0c0-1.2-0.9-2.1-2.1-2.1
					c0,0,0,0,0,0c-21.7,0.1-27.4-11.8-32-21.4c-0.8-1.6-1.5-3.2-2.3-4.5c-0.6-1-1.9-1.4-2.9-0.8s-1.4,1.9-0.8,2.9l0,0
					C67.2,109.8,67.9,111.3,68.6,112.8z"/>
				<path class="st3" d="M132.6,84.1c-6.7-9.8-19.6-19.7-35.4-18c-1.2,0-2.1,1-2,2.2s1,2.1,2.2,2c0.1,0,0.2,0,0.3,0
					c14-1.4,25.4,7.4,31.4,16.2c5.8,8.4,12.8,9.5,16.1,9.5c0.7,0,1.3,0,2-0.2c1.1-0.3,1.9-1.4,1.6-2.6c-0.3-1.1-1.3-1.8-2.4-1.6
					C146.1,91.7,138.7,93,132.6,84.1z"/>
			</g>
		</g>
	</g>
</g>
</svg>
