<?xml version="1.0" encoding="utf-8"?>
<!-- Generator: Adobe Illustrator 25.0.0, SVG Export Plug-In . SVG Version: 6.00 Build 0)  -->
<svg version="1.1" id="Layer_1" xmlns="http://www.w3.org/2000/svg" xmlns:xlink="http://www.w3.org/1999/xlink" x="0px" y="0px"
	 viewBox="0 0 200 200" style="enable-background:new 0 0 200 200;" xml:space="preserve">
<style type="text/css">
	.st0{clip-path:url(#SVGID_2_);}
	.st1{fill:#FFFFFF;}
	.st2{fill:#FFDD00;}
	.st3{fill:#BCCF00;}
	.st4{fill:#694828;}
</style>
<g id="Layer_2_1_">
	<g id="Layer_1-2">
		<g>
			<defs>
				<circle id="SVGID_1_" cx="100" cy="100" r="100"/>
			</defs>
			<clipPath id="SVGID_2_">
				<use xlink:href="#SVGID_1_"  style="overflow:visible;"/>
			</clipPath>
			<g class="st0">
				<rect x="-59.5" y="-28.1" class="st1" width="319" height="256.3"/>
				<path class="st2" d="M128.3,50.9c-3.5,2.9-12.6,9.7-15.5,12.9C109.8,67,97.4,75.3,78,75.6S44.9,69,40.7,75.5
					c-3.8,5.9,3.3,25.6,16.5,25.9s38.2-6.7,49.4-17.6s16.2-20.2,21.5-21.1c2.7-0.4,5.4-1.2,7.9-2.5c0,0-18.9,28.4-41.9,38.4
					c-22.8,9.9-53.4,6.4-56.9,16.4c-3.1,8.9,7.8,19.1,15.5,20.9s14,2.4,20.3,0.2c9-3.1,28.2-14.2,41.9-30.5
					C132.1,85,128.3,70,143.2,65.8c0,0,0,25.8-15.8,45.7s-37.2,28.1-44.5,31.1c-7.3,2.9-12.5,6.3-15.5,10c-4.7,5.8-1.8,11.6,3,12.9
					c13.8,3.8,39.2,4.2,66-20.9c26.3-24.7,30.3-48.2,28.5-61.1s-7.2-14.5-7.2-20.6S131.8,47.9,128.3,50.9z"/>
				<path class="st3" d="M169.8,51.1c0.9-3.3-4.8-7.6-12.7-10c-7.9-2.5-17.8-4.6-20.6-0.7s-8.6,9-5.5,11.9c1.6,1.6,3.7,2.8,5.9,3.3
					c0,0,7.9,1.8,9.2,3.3s11.2,3.7,11.4,0.5c0.4-6.8,5.9-2.2,7.9-3.5S169.8,51.1,169.8,51.1z"/>
				<path class="st4" d="M36.1,84.8c0.3,0.2,0.7,0.3,1,0.2c1.2,0,2.1-0.9,2.1-2.1c0-0.8-0.4-1.5-1.1-1.9c-1.9-0.9-3.1-2.8-3-4.9
					c0.1-2.4,1.4-4.5,3.4-5.7l0.6-0.3c3.4-1.5,5.2-2.3,18.5,0.6c21.9,4.7,37.8,2.1,51.7-8.5c6-4.6,10.4-6.2,15.4-5.7
					c4,0.5,8.9-6.8,10-9.9c0.4-1.1-0.2-2.3-1.3-2.7c-0.1,0-0.2-0.1-0.3-0.1c-0.5-0.1-1.1-0.4-1.5-0.7c-0.2-3.3,3.6-7.6,4.9-8.2
					c1.2,0.1,2.2-0.7,2.3-1.9c0.1-0.9-0.4-1.8-1.3-2.2c-1.2-0.5-2.5-0.1-4,1c-2.8,2.1-6.6,7.1-6.2,11.8c0.2,1.5,1.1,2.8,2.4,3.5
					c-1.4,2.5-3.8,5-4.8,5.2c-6.1-0.7-11.6,1.3-18.4,6.5C93.8,68.6,79,71,58.4,66.6c-14-3-16.7-2.2-21.1-0.3l-0.6,0.3
					c-3.3,1.4-5.8,5.4-5.9,9.4C30.6,79.7,32.7,83.2,36.1,84.8z"/>
				<path class="st4" d="M43.1,88.9c-0.6-1-1.9-1.4-2.9-0.8c-1,0.6-1.4,1.9-0.8,2.9c1.5,2.7,3.5,5.1,6,7.1c0.9,0.7,2.3,0.6,3-0.4
					c0,0,0,0,0,0c0.7-0.9,0.6-2.3-0.3-3c0,0,0,0,0,0C46,93.1,44.4,91.2,43.1,88.9z"/>
				<path class="st4" d="M82.2,83.7c9-1.1,17.7-3.5,25.9-7.2c1.1-0.5,1.5-1.7,1.1-2.8c-0.5-1.1-1.7-1.5-2.8-1.1
					c-7.8,3.5-16.1,5.8-24.7,6.8c-18.5,2.2-34-5-34.2-5.1c-1.1-0.5-2.3-0.1-2.8,1c-0.5,1.1-0.1,2.3,1,2.8c9.1,3.9,18.9,5.9,28.7,5.9
					C77,84.2,79.6,84,82.2,83.7z"/>
				<path class="st4" d="M34.7,121.2c-1.5-1-2.5-2.7-2.6-4.5c-0.2-1.8,0.5-3.5,1.9-4.7c0.5-0.4,1.1-0.9,1.6-1.4
					c3.2-2.8,7.1-6.3,17.4-6.6c29.5-1,49.1-10,65.7-30c5.5-6.7,9.4-9.4,14.3-10.2c2.9-0.4,6.8-7.1,7.7-10.5c0.4-1.1-0.2-2.3-1.3-2.7
					s-2.3,0.2-2.7,1.3c0,0.1,0,0.2-0.1,0.2c-0.9,2.8-2.4,5.4-4.5,7.5c-5.9,1-10.6,4.2-16.7,11.6c-16,19.2-34.1,27.4-62.6,28.4
					c-11.8,0.4-16.6,4.6-20.1,7.7c-0.5,0.4-1,0.9-1.5,1.3c-4.2,3.7-4.6,10.2-0.9,14.4c0.6,0.7,1.4,1.3,2.2,1.8
					c0.3,0.2,0.7,0.3,1.1,0.3c1.2,0,2.1-0.9,2.2-2.1C35.8,122.3,35.4,121.6,34.7,121.2L34.7,121.2z"/>
				<path class="st4" d="M60,139.7c1.2,0,2.1-0.9,2.2-2.1c0-1.1-0.8-2.1-1.9-2.2c-9.8-1.2-15.3-5.2-18.6-8.1c-0.9-0.7-2.3-0.5-3,0.4
					c-0.7,0.9-0.6,2.1,0.2,2.8c3.7,3.2,9.9,7.7,20.9,9.1L60,139.7z"/>
				<path class="st4" d="M118.1,86.1c-7.1,6.2-15.1,11.5-23.6,15.7c-17.4,8.5-44.3,8.1-44.6,8.1l0,0c-1.2,0.1-2.1,1.1-2,2.3
					c0.1,1.1,0.9,1.9,2,2H51c5.3,0,28.9-0.5,45.5-8.6c8.9-4.3,17.1-9.8,24.5-16.3c0.9-0.7,1.1-2.1,0.4-3c-0.7-0.9-2.1-1.1-3-0.4
					C118.3,86,118.3,86.1,118.1,86.1L118.1,86.1z"/>
				<path class="st4" d="M63.6,161.7c-1.9-0.1-3.1-1.9-3.5-2.7c-1.2-2-1.2-4.5-0.1-6.6c0.5-0.8,1-1.7,1.4-2.5
					c1.8-3.5,3.8-7.2,13-11.3c27.4-12.3,46.8-31.5,56.1-55.5c2.7-7.1,6.9-12,12.7-15c3.4-1.7,5.4-9.1,5.5-12.5c0-1.2-0.8-2.1-2-2.2
					c-1.2,0-2.1,0.9-2.2,2c-0.1,3.6-2.2,8.4-3.2,8.9c-6.7,3.5-11.5,9.2-14.7,17.3c-8.9,22.9-27.5,41.3-53.9,53.2
					c-10.6,4.7-13,9.4-15,13.2c-0.4,0.8-0.8,1.5-1.2,2.2c-1.9,3.4-2,7.5-0.1,10.9c1.3,2.8,4,4.7,7.1,5h0.1c1.2,0,2.1-1,2-2.2
					C65.6,162.7,64.7,161.8,63.6,161.7L63.6,161.7z"/>
				<path class="st4" d="M165.3,86.5c-1.2,0-2.1,0.9-2.2,2.1c-0.4,18.9-16.2,55.3-57.3,72.4c-14.7,6.1-25.5,4.6-32.4,2.9
					c-1.1-0.3-2.3,0.4-2.6,1.5c-0.3,1.1,0.4,2.3,1.5,2.6c0,0,0.1,0,0.1,0c4.2,1,8.5,1.6,12.8,1.6c7.7-0.1,15.2-1.7,22.3-4.7
					c18.2-7.5,34-20,45.3-36.2c9-13,14.5-28,14.7-40.1C167.4,87.5,166.4,86.5,165.3,86.5C165.3,86.5,165.3,86.5,165.3,86.5z"/>
				<path class="st4" d="M171,40.4c-0.5-1.1-1.8-1.5-2.8-1c-0.8,0.4-1.3,1.3-1.2,2.2c0.9,2.8,2.4,9.6-2.1,12.6
					c-1,0.7-3.4-0.2-4.7-0.7c-0.9-0.5-1.9-0.7-2.9-0.5c-0.8,0.2-1.4,0.8-1.7,1.6c-0.6,1.8-0.7,12.1,1.1,14.5
					c2.4,3.7,4.2,7.8,5.3,12.1c0.2,0.9,1.1,1.6,2,1.6c0.2,0,0.4,0,0.5-0.1c1.1-0.3,1.8-1.4,1.5-2.6c0,0,0,0,0,0
					c-1.2-4.8-3.2-9.3-5.9-13.4c-0.5-1-0.9-6-0.8-8.8c2.2,0.8,5.3,1.6,7.8-0.1C174,53.1,172.1,44,171,40.4z"/>
				<path class="st4" d="M143.3,34.6c6.5,0.6,12.8,2.1,18.8,4.5c0.3,0.1,0.5,0.2,0.8,0.2c0.9,0,1.7-0.5,2-1.3
					c0.4-1.1-0.1-2.3-1.1-2.8c0,0,0,0,0,0c-6.4-2.6-13.2-4.2-20.1-4.8c-1.2,0-2.1,0.9-2.1,2.1C141.5,33.5,142.3,34.4,143.3,34.6
					L143.3,34.6z"/>
				<path class="st4" d="M137.2,84.7c0,0.1-1.8,13.9-17.9,32c-17.2,19.2-43.5,26.8-43.8,26.8c-1.1,0.3-1.8,1.5-1.5,2.6
					c0.2,0.9,1.1,1.6,2.1,1.6c0.2,0,0.4,0,0.6-0.1c1.1-0.3,27.8-8,45.8-28.1c17.2-19.2,18.9-33.8,19-34.4c0.1-1.2-0.7-2.2-1.9-2.3
					S137.3,83.5,137.2,84.7L137.2,84.7L137.2,84.7z"/>
			</g>
		</g>
	</g>
</g>
</svg>
