<?xml version="1.0" encoding="utf-8"?>
<!-- Generator: Adobe Illustrator 25.0.0, SVG Export Plug-In . SVG Version: 6.00 Build 0)  -->
<svg version="1.1" id="Layer_1" xmlns="http://www.w3.org/2000/svg" xmlns:xlink="http://www.w3.org/1999/xlink" x="0px" y="0px"
	 viewBox="0 0 200 200" style="enable-background:new 0 0 200 200;" xml:space="preserve">
<style type="text/css">
	.st0{clip-path:url(#SVGID_2_);}
	.st1{fill:#FFFFFF;}
	.st2{fill:#D9D3C3;}
	.st3{fill:#F6AF95;}
	.st4{fill:#694828;}
</style>
<g id="Layer_2_1_">
	<g id="Layer_1-2">
		<g>
			<defs>
				<circle id="SVGID_1_" cx="100" cy="100" r="100"/>
			</defs>
			<clipPath id="SVGID_2_">
				<use xlink:href="#SVGID_1_"  style="overflow:visible;"/>
			</clipPath>
			<g class="st0">
				<rect x="-59.5" y="-28.1" class="st1" width="319" height="256.3"/>
				<path class="st2" d="M128.1,55.5c1.7-6.2,15.4-17.1,20.8-17.1c-8.7,13.4-2.5,22-13.3,24.1C129,63.6,127.3,58.3,128.1,55.5z"/>
				<path class="st3" d="M168.4,102c2.4-10.1,11.6-7.3,11.9-2.6c0.3,3.5-7.6,25.7-10,17.4C168.9,112,168.2,107,168.4,102z"/>
				<path class="st4" d="M141.4,62.8c-3.5,1.1-6.4,2.8-7.6,5c-1.3,2.6-1.9,5.5-1.7,8.5c0.1,2.9,0.8,8.9,4.7,12.3
					c6.4,5.7,17.2,7,22.9,2.8c4.9-3.7,2.6-11.6-1.5-19.3c-1.8-3.4-2.4-5.1-5.4-8C150.4,61.7,146.4,61.2,141.4,62.8z"/>
				<path class="st4" d="M61.1,67.6c-19.7,0.7-29.9,12.8-14.8,32.1s42.2-6,40.7-17.6C85.4,70.2,73.4,67.1,61.1,67.6z"/>
				<path class="st4" d="M96.4,83.2c-7.8,2.2-10.3,12-7.2,17.8c3.1,5.8,21.7,1.7,24.2-4.8S102.7,81.4,96.4,83.2z"/>
				<path class="st4" d="M33.8,105c-0.2-2-0.5-4-0.7-6c-1.3-10.4,0.4-18,5-23.3c8.2-9.5,25.6-11.3,43.2-11.7
					c5.6-0.2,10.4-0.2,14.5-0.3c7.6-0.2,13-0.3,16.9-0.6c2.6-0.2,5.1-1.5,8.1-3l0.7-0.3c1-0.6,1.4-1.9,0.8-2.9
					c-0.5-0.9-1.7-1.3-2.7-0.9l-0.7,0.4c-2.5,1.3-4.7,2.4-6.5,2.5c-3.7,0.3-9.1,0.4-16.6,0.5c-4.1,0.1-8.9,0.2-14.5,0.3
					C62.5,60.2,44,62.2,34.8,72.9c-5.4,6.3-7.3,14.9-5.9,26.5c0.2,2,0.5,4,0.7,6c1.4,11.8,2.6,23,6.9,31.5c0.4,0.7,1.1,1.2,1.9,1.2
					c0.3,0,0.7-0.1,1-0.2c1-0.5,1.5-1.8,0.9-2.8c0,0,0,0,0,0C36.3,127.2,35.1,116.4,33.8,105z"/>
				<path class="st4" d="M98.5,145.8c-5.2,0.2-10.8,0.2-16.2,0.2h-1.6h-4.7c-2.8,0-5.7,0.1-8.7,0l0,0c-1.2,0.1-2.1,1.1-2,2.3
					c0.1,1.1,0.9,1.9,2,2c1.2,0,2.3,0,3.4,0c1.8,0,3.6,0,5.4,0c1.6,0,3.2,0,4.6,0h1.6c5.5,0,11.1,0,16.4-0.2c1.2-0.1,2.1-1.1,2-2.2
					C100.7,146.6,99.7,145.7,98.5,145.8z"/>
				<path class="st4" d="M182.6,93c-0.3-1.1-1.4-1.8-2.6-1.6s-1.8,1.4-1.6,2.6l0,0c0.2,1.2,0.3,2.4,0.2,3.6c-0.3,5-5.2,17.7-7.3,19
					c-6.7,2-17.1,2.8-27.8,2.1c-5.6-0.4-7.5,3.6-9.5,7.7c-1.8,4.1-4.4,7.8-7.6,10.9c-0.9,0.8-1,2.1-0.2,3c0.4,0.5,1,0.7,1.7,0.7
					c0.5,0,1-0.2,1.4-0.6c3.6-3.4,6.5-7.6,8.5-12.1c2.1-4.2,2.9-5.5,5.4-5.3c11.2,0.7,22.2-0.1,29.4-2.3c4.8-1.4,10-18.2,10.3-22.8
					C183,96.3,182.9,94.6,182.6,93z"/>
				<path class="st4" d="M148.1,55.3c-0.4,1.1,0.1,2.3,1.1,2.8c7.5,3.2,10.6,8.4,14.2,14.4c1.6,2.8,3.4,5.4,5.3,8
					c1.6,2,3,3.8,4.2,5.2s2.2,2.7,3,3.8c0.4,0.5,1,0.8,1.7,0.8c0.5,0,0.9-0.2,1.3-0.4c0.9-0.7,1.1-2,0.4-3c0,0,0,0,0,0
					c-0.8-1.1-1.9-2.4-3.1-3.9s-2.5-3.1-4.1-5.2c-1.8-2.4-3.5-4.9-5-7.5c-3.7-6.1-7.5-12.4-16.2-16.1
					C149.8,53.7,148.5,54.2,148.1,55.3C148.1,55.3,148.1,55.3,148.1,55.3z"/>
				<path class="st4" d="M123.2,86c2.5-0.5,5.9-2.4,7.8-8.3c0.2-1.2-0.5-2.3-1.7-2.5c-0.9-0.2-1.9,0.3-2.3,1.1
					c-1.1,3.2-2.6,5-4.7,5.4c-3,0.6-6.8-1.8-8.4-3.1c1.6-4.2,3.7-7,6.1-8.1c1.2-0.6,2.6-0.7,3.8-0.3c1.1,0.5,2.3,0,2.8-1.1
					c0.5-1.1,0-2.3-1.1-2.8l0,0c-2.3-0.9-4.9-0.8-7.1,0.3c-3.8,1.7-6.8,5.7-8.9,11.9c-0.3,0.8,0,1.7,0.6,2.3c0.9,1,5.9,5.3,11.3,5.3
					C121.9,86.2,122.5,86.1,123.2,86z"/>
				<path class="st4" d="M173.7,92.7c0.6-1,0.2-2.3-0.8-2.9c-1-0.6-2.3-0.2-2.9,0.8l0,0c-1.7,3-2.9,6.3-3.5,9.7
					c-0.6,3.8-0.4,7.7,0.6,11.4c0.2,0.9,1.1,1.6,2.1,1.6c0.2,0,0.4,0,0.6-0.1c1.1-0.3,1.8-1.5,1.5-2.6c-0.9-3.1-1-6.4-0.6-9.6
					C171.2,98.1,172.3,95.3,173.7,92.7z"/>
				<path class="st4" d="M22.8,114.1L22.8,114.1c1.2,0,2.1-0.9,2.1-2.1c0,0,0,0,0,0c0-4.8,0.5-9.6,1.5-14.3c0.3-1.1-0.3-2.3-1.5-2.6
					c-1.1-0.3-2.3,0.3-2.6,1.5c0,0.1,0,0.2-0.1,0.2c-1.1,5-1.6,10.1-1.6,15.2C20.6,113.1,21.6,114.1,22.8,114.1
					C22.8,114.1,22.8,114.1,22.8,114.1z"/>
				<path class="st4" d="M121.6,135.9c-1.2-0.1-2.2,0.8-2.2,2c-0.5,9.4-1.3,23.5-1.7,27.2c-2.2,0.4-4.5,0.3-6.7-0.1
					c-1-3.9-3-17.2-3.8-22.3c-0.2-1.2-1.3-1.9-2.5-1.7c-1.1,0.2-1.8,1.2-1.7,2.3c0.1,0.8,3,19.8,4.1,23.5c0.7,2.3,4.4,2.8,7.3,2.8
					c0.5,0,1,0,1.4,0c2.3-0.1,5.5-0.5,6-2.9c0.6-2.9,1.8-26,1.9-28.6C123.7,137,122.8,136,121.6,135.9
					C121.6,135.9,121.6,135.9,121.6,135.9z"/>
				<path class="st4" d="M61.5,140.3c-1.2-0.1-2.2,0.7-2.4,1.8c-1.3,9.6-3.1,20.2-3.8,22.8c-2,0.3-3.9,0.3-5.9,0
					c-0.5-3.4-1.8-15.7-2.8-26.8c-0.1-1.2-1.1-2-2.3-1.9c-1.2,0.1-2,1.1-1.9,2.3c0.9,10,2.5,27,3.2,28.6c0.6,1.4,2.1,1.8,3.6,2
					c1.1,0.1,2.2,0.2,3.4,0.2c2.2,0,5-0.3,6.1-1.7c0.4-0.5,1.4-1.8,4.7-25C63.5,141.6,62.7,140.5,61.5,140.3
					C61.5,140.3,61.5,140.3,61.5,140.3z"/>
				<path class="st4" d="M130.8,64.7c0.3,0.1,0.6,0.2,0.9,0.2c1.2,0,2.1-1,2.1-2.1c0-0.8-0.5-1.6-1.3-1.9c-1.5-0.6-2.6-1.9-3-3.4
					c-0.7-4.4,1.9-9.4,8-15.5c1.2-1.2,2.6-2.3,4-3.2c1-0.7,1.2-2,0.5-3c-0.7-0.9-1.9-1.1-2.9-0.6c-1.6,1.1-3.2,2.4-4.6,3.7
					c-7.3,7.2-10.2,13.3-9.2,19.2C126,61.1,128,63.6,130.8,64.7z"/>
				<path class="st4" d="M146.7,35.9c0.6-0.2,1.2-0.5,1.7-0.6c-4,5.5-6.2,10.7-6.5,15.6c-0.1,1.8-0.4,3.7-1,5.4
					c-0.4,1.1,0.1,2.3,1.2,2.8c0,0,0,0,0,0c0.2,0.1,0.5,0.1,0.7,0.1c0.9,0,1.7-0.6,2-1.4c0.7-2.1,1.1-4.3,1.3-6.5
					c0.4-4.9,3.1-10.4,8-16.4c0.9-0.9,1-2.3,0.3-3.3c-1.6-2.1-6-0.9-9.4,0.5c-1.1,0.4-1.7,1.6-1.3,2.7c0.4,1.1,1.6,1.7,2.7,1.3
					C146.5,36,146.6,36,146.7,35.9L146.7,35.9z"/>
				<path class="st4" d="M23.9,116.9c-0.4,0.2-0.7,0.5-0.9,0.8c-0.1-0.6-0.4-1.1-0.9-1.4c-1-0.6-2.3-0.4-2.9,0.6
					c-5.5,8.5,1.7,17.2,2,17.6c0.4,0.4,0.9,0.7,1.5,0.8h0.1c0.6,0,1.1-0.2,1.5-0.6c4.3-4.5,5.3-11.3,2.5-16.9
					C26.2,116.8,25,116.4,23.9,116.9z M22.9,129.5c-1.3-2.4-2.6-6.4-0.2-10.2l0.1-0.1c0,0.2,0.1,0.4,0.2,0.5
					C24.5,122.9,24.4,126.5,22.9,129.5L22.9,129.5z"/>
			</g>
		</g>
	</g>
</g>
</svg>
