<?xml version="1.0" encoding="utf-8"?>
<!-- Generator: Adobe Illustrator 25.0.0, SVG Export Plug-In . SVG Version: 6.00 Build 0)  -->
<svg version="1.1" id="Layer_1" xmlns="http://www.w3.org/2000/svg" xmlns:xlink="http://www.w3.org/1999/xlink" x="0px" y="0px"
	 viewBox="0 0 200 200" style="enable-background:new 0 0 200 200;" xml:space="preserve">
<style type="text/css">
	.st0{clip-path:url(#SVGID_2_);}
	.st1{fill:#FFFFFF;}
	.st2{fill:#FFDD00;}
	.st3{fill:#E4032E;}
	.st4{fill:#E3E3E3;}
	.st5{fill:#694828;}
</style>
<g id="Layer_2_1_">
	<g id="Layer_1-2">
		<g>
			<defs>
				<circle id="SVGID_1_" cx="100" cy="100" r="100"/>
			</defs>
			<clipPath id="SVGID_2_">
				<use xlink:href="#SVGID_1_"  style="overflow:visible;"/>
			</clipPath>
			<g class="st0">
				<rect x="-59.5" y="-28.1" class="st1" width="319" height="256.3"/>
				<path class="st2" d="M149,90.3c0,0,14.3,1.6,14.4,3.6c0.1,2.4-13.5,7.9-13.5,7.9C149.9,98,149.6,94.1,149,90.3z"/>
				<path class="st3" d="M149.6,107.4c3,5.9,5.9,27.3,0.3,27.7c-4.7,0.3-7.9-5.1-5.9-8.7C147,120.5,149,114,149.6,107.4z"/>
				<path class="st3" d="M132.8,59.7c0,0,10.4-18.6-0.6-22c-8.5-2.6-12.7,7.8-12.7,7.8s-2.6-6.8-8.2-4.6c-4.1,1.6-5.2,7.3-5.2,7.3
					c-6.8,1.5-10.9,8-8.3,11.9c2.6,3.9,4.6,1.2,7.3-0.6C118.4,51.1,132.8,59.7,132.8,59.7z"/>
				<path class="st4" d="M133.2,128.4c0,0-10.1,13.8-38.7,13.8s-29.7-13-31-17.6c-1.3-4.6-14.9-8.8-15.2-16s3.5-8.1,2.2-11.7
					s-5-7.7-5-11s5.7,7.2,9.4,10.7s-5.5,11,2,15.4s11,6.8,13.2,13c2.2,6.2,11.2,8.9,23.7,9.9C116.3,136.7,137.8,121.8,133.2,128.4z"
					/>
				<path class="st5" d="M166,92.8c-2.2-2.2-5.8-4.4-10.6-6.8c-1-0.6-2.3-0.2-2.9,0.8c-0.6,1-0.2,2.3,0.8,2.9c0.1,0,0.1,0.1,0.2,0.1
					c2.6,1.2,5.1,2.7,7.4,4.3c-2,1.3-4.1,2.4-6.2,3.3c-1.1,0.5-1.6,1.7-1.1,2.8c0.3,0.8,1.1,1.3,1.9,1.3c0.3,0,0.6-0.1,0.8-0.2
					c3.3-1.5,6.4-3.2,9.3-5.3c1-0.7,1.2-2,0.5-3C166.2,93,166.1,92.9,166,92.8L166,92.8z"/>
				<path class="st5" d="M154.3,112c-1.1,0.2-1.9,1.4-1.6,2.5c1.7,8,1.6,14.4-0.4,17.2c-0.5,0.8-1.3,1.3-2.2,1.4
					c-0.6,0.1-1.2-0.1-1.7-0.5c-1-0.7-2.3-0.4-3,0.6c-0.6,0.9-0.4,2.2,0.5,2.9c1.1,0.8,2.5,1.3,3.9,1.3c0.3,0,0.5,0,0.8,0
					c2.1-0.3,3.9-1.4,5.1-3.1c3.7-5.2,2.2-15.1,1.1-20.6C156.6,112.5,155.5,111.8,154.3,112C154.3,112,154.3,112,154.3,112z"/>
				<path class="st5" d="M96.4,60.9c0.5,0,1-0.2,1.4-0.5c0.9-0.7,1-2.1,0.3-3c0,0,0,0,0,0c-2.6-3.1-1.7-6,0-7.7
					c0.3-0.3,0.7-0.6,1.2-0.8c1-0.6,1.4-1.8,0.9-2.9c-0.5-1-1.7-1.4-2.8-0.9c-0.8,0.4-1.6,0.9-2.2,1.6c-3.1,3-4.6,8.5-0.4,13.5
					C95.1,60.6,95.7,60.9,96.4,60.9z"/>
				<path class="st5" d="M106.5,50.5c1.2,0,2.1-0.9,2.1-2.1c0-0.4-0.1-0.9-0.4-1.2c-1.4-1.9-1.8-4.4-1.2-6.7
					c0.3-1.3,1.3-2.4,2.6-2.9c1.3-0.6,2.9-0.4,4,0.5c0.9,0.7,2.3,0.5,3-0.4c0.7-0.9,0.5-2.3-0.4-3c-2.3-1.8-5.4-2.2-8.1-1.1
					c-2.5,1-4.4,3.1-5.1,5.6c-1,3.6-0.3,7.4,1.8,10.4C105.2,50.2,105.8,50.5,106.5,50.5z"/>
				<path class="st5" d="M119.3,47.4h0.2c1.1,0,2-0.8,2.1-1.9c0-0.1,1.4-12.1,8.4-11.6c1.2,0.2,2.2-0.7,2.4-1.8
					c0.2-1.2-0.7-2.2-1.8-2.4c-0.1,0-0.2,0-0.3,0C121.6,29,118.1,39,117.4,45C117.2,46.2,118,47.2,119.3,47.4
					C119.2,47.4,119.2,47.4,119.3,47.4z"/>
				<path class="st5" d="M134.1,55.7c1,0.5,2.3,0.1,2.8-0.9c0,0,0,0,0,0c2.1-4.1,6.5-14.4,1.6-20.8c-0.7-0.9-2-1.1-3-0.4
					s-1.1,2-0.4,3l0,0c2.8,3.7,0.8,10.8-2,16.3C132.7,53.8,133.1,55.1,134.1,55.7z"/>
				<path class="st5" d="M109.7,160.7c-3.7-1.2-7.7-1.2-11.4,0.1v-3.6c0-1.2-0.9-2.1-2.1-2.1c0,0,0,0,0,0l0,0
					c-1.2,0-2.1,0.9-2.1,2.1c0,0,0,0,0,0v5.1c-2.6,0-5.2,0.4-7.7,1.4c-1.1,0.5-1.6,1.7-1.1,2.8c0.4,1,1.5,1.5,2.5,1.2
					c7.1-2.6,10.8-0.4,13.4,2.1c0.4,0.4,0.9,0.6,1.5,0.6c0.6,0,1.1-0.2,1.5-0.7c0.8-0.8,0.8-2.2-0.1-3c0,0,0,0,0,0
					c-0.9-0.9-2-1.7-3.1-2.4c2.4-0.6,4.9-0.4,7.2,0.3c1.1,0.5,2.3,0.1,2.9-1c0.5-1.1,0.1-2.3-1-2.9
					C110.1,160.8,109.9,160.7,109.7,160.7L109.7,160.7z"/>
				<path class="st5" d="M50.5,74.1c1.6,1,3.2,2.2,4.7,3.4c1.2,1,2.5,2.1,3.7,3.2c6.2,5.5,13.3,11.7,24.6,11.7
					c11.2,0,13.4-8.6,15.5-16.3c2.3-8.6,4.4-16.7,16.9-17.7c1.2-0.1,2-1.1,1.9-2.3s-1.1-2-2.3-1.9C100,55.4,97.1,66.2,94.8,74.9
					C92.5,83.3,90.9,88,83.4,88c-9.6,0-15.8-5.4-21.8-10.6c-1.3-1.1-2.6-2.2-3.9-3.3c-1.6-1.3-3.3-2.6-5.1-3.7
					c-1-0.6-2.3-0.2-2.9,0.8C49.3,72.2,49.6,73.4,50.5,74.1L50.5,74.1z"/>
				<path class="st5" d="M40.4,93.2c1.1-0.5,1.5-1.8,1-2.8c0,0,0,0,0,0c-2.3-4.5-5.6-12.7-2.4-16.7c1-1.4,2.6-2.2,4.3-2.2h0.1
					c1.2-0.1,2.1-1.1,2-2.3c-0.1-1.1-0.9-1.9-2-2h-0.1c-3,0-5.9,1.4-7.6,3.9c-3.5,4.4-2.9,11.8,1.9,21.3c0.4,0.7,1.1,1.2,1.9,1.2
					C39.7,93.5,40.1,93.4,40.4,93.2z"/>
				<path class="st5" d="M52.2,121.4c-6.7-5.3-13.4-13.4-7.2-22.2c0.7-1,0.5-2.3-0.5-3s-2.3-0.5-3,0.5c-6.4,8.9-3.5,18.9,8,28
					c0.9,0.7,2.3,0.6,3-0.3S53.1,122.1,52.2,121.4L52.2,121.4z"/>
				<path class="st5" d="M151.6,95.1c-1.9-22.5-12.1-37.6-27.2-40.6c-1.2-0.2-2.3,0.5-2.5,1.7c-0.2,1.2,0.5,2.3,1.7,2.5
					c6.3,1.2,21.3,7.3,23.8,36.8c1.3,15.3-2.4,28.2-10.9,37.4c-9.3,10.2-24.1,15.5-42.7,15.5c-15.2,0-26.1-3.4-31.6-9.7
					c-2.8-3.2-4.2-7.3-3.8-11.5c0.2-1.2-0.5-2.3-1.7-2.5c-1.2-0.2-2.3,0.5-2.5,1.7c0,0,0,0.1,0,0.1c-0.6,5.4,1.1,10.8,4.7,14.9
					c6.3,7.5,18.1,11.3,34.9,11.3c19.8,0,35.7-5.9,45.8-16.9C148.9,125.7,153,111.6,151.6,95.1z"/>
				<path class="st5" d="M56.1,87.2c-0.7-0.9-2.1-1.1-3-0.3c-0.9,0.7-1.1,2.1-0.3,3c5.2,6.4,12.1,11.2,19.9,13.8
					c0.2,0.1,0.4,0.1,0.6,0.1c1.2,0,2.1-0.9,2.1-2.1c0-1-0.6-1.8-1.5-2.1C66.9,97.2,60.7,92.9,56.1,87.2z"/>
			</g>
		</g>
	</g>
</g>
</svg>
