<?xml version="1.0" encoding="utf-8"?>
<!-- Generator: Adobe Illustrator 25.0.0, SVG Export Plug-In . SVG Version: 6.00 Build 0)  -->
<svg version="1.1" id="Layer_1" xmlns="http://www.w3.org/2000/svg" xmlns:xlink="http://www.w3.org/1999/xlink" x="0px" y="0px"
	 viewBox="0 0 200 200" style="enable-background:new 0 0 200 200;" xml:space="preserve">
<style type="text/css">
	.st0{clip-path:url(#SVGID_2_);}
	.st1{fill:#FFFFFF;}
	.st2{fill:#FBBA00;}
	.st3{fill:#E3E3E3;}
	.st4{fill:#694828;}
</style>
<g id="Layer_2_1_">
	<g id="Layer_1-2">
		<g>
			<defs>
				<circle id="SVGID_1_" cx="100" cy="100" r="100"/>
			</defs>
			<clipPath id="SVGID_2_">
				<use xlink:href="#SVGID_1_"  style="overflow:visible;"/>
			</clipPath>
			<g class="st0">
				<rect x="-59.5" y="-28.1" class="st1" width="319" height="256.3"/>
				<path class="st2" d="M74.6,96c-8.2-3.1-2.3-24.6,20.4-27.5s44.3,12.2,40.6,20.8S103.8,106.9,74.6,96z"/>
				<path class="st3" d="M156.1,92c0,0,16.4,6.8,14,21.3s-50.4,17-58.3,17c0,0,41.4-8.3,47.9-18.2S156.1,92,156.1,92z"/>
				<path class="st4" d="M178.8,99.3c-5.3-10-18.5-18.5-33.5-21.6c-1.2-0.2-2.3,0.5-2.5,1.7c-0.2,1.1,0.5,2.2,1.6,2.5
					c13.9,2.9,25.9,10.5,30.6,19.5c2.5,4.4,2.9,9.7,1,14.4c-7,17.3-41.1,19.9-75.4,21c-36.6,1.2-74.7-5.4-77.4-22.7
					c-1.8-11.1,4-14.9,14.6-21.8c3.1-2,6.5-4.3,10.2-7c3.7-2.7,7.7-4.9,11.9-6.6c1.1-0.4,1.7-1.6,1.3-2.7s-1.6-1.7-2.7-1.3
					c-0.1,0-0.1,0-0.2,0.1c-4.6,1.8-8.9,4.2-12.8,7.1c-3.6,2.7-7,4.9-10,6.9c-10.8,7.1-18.7,12.2-16.5,26
					c3.1,19.6,38.3,26.4,73,26.4c2.9,0,5.9,0,8.8-0.1c37.2-1.2,71.3-3.9,79.2-23.7C182.3,111.4,181.9,104.8,178.8,99.3z"/>
				<path class="st4" d="M100.5,103.2c18.3,0,38-5.5,38-17.4c0-14.1-18.1-26.9-38-26.9c-2.6,0-5.2,0.2-7.8,0.6
					c-1.1,0.3-1.9,1.4-1.6,2.5c0.2,1.1,1.2,1.8,2.3,1.7c2.3-0.4,4.7-0.6,7.1-0.6c19.3,0,33.8,11.9,33.8,22.6
					c0,6.4-11.8,13.2-33.8,13.2s-33.8-6.8-33.8-13.2c0-7.2,6.7-14.9,16.6-19.2c1.1-0.5,1.5-1.8,1-2.8c-0.5-1-1.6-1.5-2.7-1.1
					c-11.6,5-19.1,14.1-19.1,23.1C62.5,97.7,82.2,103.2,100.5,103.2z"/>
				<path class="st4" d="M34.9,109c-1.2-0.2-2.3,0.6-2.5,1.7c-0.2,2.2,0.4,4.3,1.8,6c2.9,4.1,8.9,6.9,17.7,8.3c0.1,0,0.2,0,0.3,0
					c1.2,0,2.1-1,2.1-2.1c0-1-0.8-1.9-1.8-2.1c-13.2-2.1-16.2-7.1-15.9-9.4C36.8,110.2,36,109.2,34.9,109z"/>
				<path class="st1" d="M75.9,83.7c-0.2,0-0.5,0-0.7-0.1c-1.1-0.4-1.7-1.6-1.3-2.7c0.1-0.4,3.3-8.8,14.2-11.6
					c1.2-0.2,2.3,0.6,2.5,1.7c0.2,1-0.4,2.1-1.5,2.4c-8.6,2.2-11.1,8.6-11.2,8.9C77.6,83.2,76.8,83.7,75.9,83.7z"/>
			</g>
		</g>
	</g>
</g>
</svg>
