<?xml version="1.0" encoding="utf-8"?>
<!-- Generator: Adobe Illustrator 25.0.0, SVG Export Plug-In . SVG Version: 6.00 Build 0)  -->
<svg version="1.1" id="Layer_1" xmlns="http://www.w3.org/2000/svg" xmlns:xlink="http://www.w3.org/1999/xlink" x="0px" y="0px"
	 viewBox="0 0 200 200" style="enable-background:new 0 0 200 200;" xml:space="preserve">
<style type="text/css">
	.st0{clip-path:url(#SVGID_2_);}
	.st1{fill:#FFFFFF;}
	.st2{fill:#C9E8FB;}
	.st3{fill:#83D0F5;}
	.st4{fill:#694828;}
</style>
<g id="Layer_2_1_">
	<g id="Layer_1-2">
		<g>
			<defs>
				<circle id="SVGID_1_" cx="100" cy="100" r="100"/>
			</defs>
			<clipPath id="SVGID_2_">
				<use xlink:href="#SVGID_1_"  style="overflow:visible;"/>
			</clipPath>
			<g class="st0">
				<rect x="-59.5" y="-28.1" class="st1" width="319" height="256.3"/>
				<path class="st2" d="M148.7,75c-4-9.1-17.9-16.7-37.8-17.9C91,56,54.7,60.9,70.8,69.4s39.8,5.9,46.9,3.5s5,4.7-7.3,7
					c-12.3,2.3-37.5,3.5-49.5,1.2s-14.6,10.6-16.7,21.7s-5.6,31.3,2.9,34.9s67.7,12,89.1,8.2s22.3-22,21.1-35.7S151.1,80.2,148.7,75
					z"/>
				<path class="st3" d="M105.4,121.5c-23.2-3.7-54.2,6.4-53.3,11.7c0.9,5.3,25.2,9.1,54.5,8.5S175.4,132.7,105.4,121.5z"/>
				<path class="st3" d="M97.2,61.2C77.6,60.5,71.7,70,97.8,70S122.1,62.1,97.2,61.2z"/>
				<path class="st4" d="M150.9,64.2c-5.8-10.8-22.4-16-50.9-16c-12.5,0-22.9,1-30.8,3.1c-1.2,0.2-1.9,1.4-1.7,2.5s1.4,1.9,2.5,1.7
					c0.1,0,0.1,0,0.2-0.1c7.6-2,17.7-3,29.8-3c26.3,0,42.2,4.6,47.1,13.8c10.1,18.8,16,54.7,15.4,67c-0.1,1.2,0.8,2.2,2,2.2h0.1
					c1.1,0,2.1-0.9,2.1-2C167.4,121,161.7,84.4,150.9,64.2z"/>
				<path class="st4" d="M158.1,139.9c-6.1,3.5-21.2,7.7-58.1,7.7c-54.3,0-61.3-9-62.2-11.7c-2.1-6.8,3.7-48.3,15.1-69.5
					c1.7-3.1,4.7-5.7,8.9-7.8c1-0.6,1.4-1.9,0.8-2.9c-0.5-0.9-1.7-1.3-2.7-0.9c-5,2.5-8.6,5.7-10.8,9.6
					c-11.5,21.3-18,64.4-15.4,72.8c3,9.8,25.3,14.7,66.3,14.7c30.3,0,50.6-2.8,60.2-8.2c1-0.6,1.3-1.9,0.7-2.9
					C160.2,139.7,159.1,139.4,158.1,139.9z"/>
				<path class="st4" d="M64.8,71.4c8.8,4,21.4,6.2,34.6,6.2c13.9,0,27-2.5,35.9-6.8c1-0.6,1.3-1.9,0.7-2.9
					c-0.5-0.8-1.6-1.2-2.5-0.9c-8.3,4.1-20.7,6.4-34,6.4c-12.6,0-24.6-2.1-32.9-5.9c-1.1-0.4-2.3,0.1-2.7,1.2
					C63.4,69.8,63.8,70.9,64.8,71.4L64.8,71.4z"/>
				<path class="st4" d="M99,119.2c-7.3,0-14.7,0.3-22,1c-1.2,0-2.1,1-2,2.2s1,2.1,2.2,2c0.1,0,0.2,0,0.3,0c7.2-0.7,14.3-1,21.5-1
					c11.1-0.1,22.1,0.8,33,2.8c0.1,0,0.3,0,0.4,0c1.2,0,2.1-1,2.1-2.2c0-1-0.7-1.8-1.7-2C121.7,120,110.3,119,99,119.2z"/>
				<path class="st4" d="M66.9,121.6c-14.4,2.5-19.6,6.2-19.8,6.4c-0.9,0.7-1.2,2-0.5,3c0.4,0.6,1,0.9,1.7,0.9
					c0.4,0,0.9-0.1,1.2-0.4c0,0,4.8-3.3,18-5.6c1.2-0.2,1.9-1.3,1.7-2.5S68,121.4,66.9,121.6L66.9,121.6z"/>
			</g>
		</g>
	</g>
</g>
</svg>
