<?xml version="1.0" encoding="utf-8"?>
<!-- Generator: Adobe Illustrator 25.0.0, SVG Export Plug-In . SVG Version: 6.00 Build 0)  -->
<svg version="1.1" id="Layer_1" xmlns="http://www.w3.org/2000/svg" xmlns:xlink="http://www.w3.org/1999/xlink" x="0px" y="0px"
	 viewBox="0 0 200 200" style="enable-background:new 0 0 200 200;" xml:space="preserve">
<style type="text/css">
	.st0{clip-path:url(#SVGID_2_);}
	.st1{fill:#FFFFFF;}
	.st2{fill:#BCE4FA;}
	.st3{fill:#A4BDE4;}
	.st4{fill:#DBD7BD;}
	.st5{fill:#694828;}
</style>
<g id="Layer_2_1_">
	<g id="Layer_1-2">
		<g>
			<defs>
				<circle id="SVGID_1_" cx="100" cy="100" r="100"/>
			</defs>
			<clipPath id="SVGID_2_">
				<use xlink:href="#SVGID_1_"  style="overflow:visible;"/>
			</clipPath>
			<g class="st0">
				<rect x="-59.5" y="-28.1" class="st1" width="319" height="256.3"/>
				<path class="st2" d="M88.5,54.5c-0.3,0.5-11.1,15.9-9.6,19.2c1.5,3.3,45.9,4.6,50.4-2.4c-4.9-9.6-10.3-16-16.6-16.9
					c-5.2-0.8-7.6,4.7-14.1,4.1C92.5,57.9,93.3,54.8,88.5,54.5z"/>
				<path class="st3" d="M124.4,35.2c-0.1-1.8-8.2-5-22.1-5c-13.8,0-23.9,0.4-21.2,6.3c0.5,1,1.6,5.3,1.6,5.3
					c0.2,4.6-2.9,10-6.4,14.5c5.4,1.4,9.8-3.5,14.3-1.3c2.8,1.4,8.3-5.7,17.8-1.9c7,2.9,19.5-2.1,17.4-3.8c-2.8-2.4-5.3-5.1-7.7-8
					C118.2,41.4,124.5,38.5,124.4,35.2z"/>
				<path class="st4" d="M128.9,124c0,0,2.4,27.2-2,34.5s-24.4,11-38.9,6.6c-3.5-1.1,27-1.8,32.3-12.3
					C125.9,141.6,128.2,114.1,128.9,124z"/>
				<path class="st5" d="M89.1,28.1c3.9-0.3,8.1-0.4,10.9-0.4c3.7,0,12.8,0.1,17.3,1.4c3.7,1,5,3.6,4.9,5.5s-1.3,3.9-4.5,4.6
					c-1.1,0.2-1.9,1.3-1.7,2.5c0.2,1,1.1,1.7,2.1,1.7c0.1,0,0.3,0,0.4,0c4.7-1,7.7-4.4,7.9-8.6c0.1-3.7-2.3-8.2-8-9.8
					c-4.9-1.4-13.7-1.6-18.5-1.6c-2.9,0-7.2,0.1-11.3,0.4c-1.2,0.1-2,1.1-1.9,2.3S88,28.3,89.1,28.1L89.1,28.1z"/>
				<path class="st5" d="M121.2,45.2c-0.8,0.8-0.8,2.2,0,3c0,0,0,0,0,0c1.6,1.5,3.2,3,5,4.3c-1.8,2.3-4.3,2.7-7.5,1.4
					c-6.5-2.8-10.4-1.4-12.4,0.3c-1.3,1-2.9,1.6-4.5,1.9c-1.2,0.2-1.9,1.3-1.7,2.5c0.2,1,1,1.7,2,1.7c0.1,0,0.2,0,0.4,0
					c2.3-0.4,4.6-1.3,6.4-2.8c2.1-1.7,5.6-0.8,8.2,0.3c7.1,3,11.2-1,12.6-2.9c0.7-0.9,0.9-1.9,0.8-3c-0.2-1.1-0.7-2.1-1.6-2.8
					c-1.7-1.2-3.2-2.6-4.7-4C123.3,44.4,122,44.4,121.2,45.2z"/>
				<path class="st5" d="M81.3,43.4c0.1,0,0.3,0,0.4,0c1.2,0,2.1-0.9,2.2-2.1c0-1-0.7-1.9-1.7-2.1c-3.2-0.7-4.5-2.8-4.5-4.6
					c-0.1-1.8,1.2-4.5,4.9-5.5c1.1-0.4,1.7-1.5,1.4-2.7c-0.3-1.1-1.5-1.7-2.5-1.4c-5.7,1.6-8.2,6.1-8,9.8
					C73.6,39.1,76.7,42.4,81.3,43.4z"/>
				<path class="st5" d="M82.9,57.8c2.5-1.1,6-2,8.1-0.3c0.9,0.7,1.9,1.3,3,1.7c0.3,0.1,0.5,0.2,0.8,0.2c1.2,0,2.1-0.9,2.1-2.1
					c0-0.9-0.5-1.7-1.3-2c-0.7-0.3-1.4-0.7-2-1.2c-2.1-1.7-5.9-3-12.4-0.3c-3.1,1.3-5.7,0.9-7.5-1.4c1.8-1.4,3.6-2.9,5.2-4.5
					c0.8-0.8,0.8-2.2,0-3c-0.8-0.8-2.2-0.8-3,0c-1.5,1.5-3.2,2.9-4.9,4.2c-0.9,0.7-1.5,1.7-1.6,2.8c-0.2,1.1,0.1,2.1,0.8,3
					C71.7,56.8,75.8,60.9,82.9,57.8z"/>
				<path class="st5" d="M110.7,41.7c0-1.2-0.9-2.1-2.1-2.1c0,0,0,0,0,0H91.4c-1.2,0.1-2.1,1.1-2,2.3c0.1,1.1,0.9,1.9,2,2h17.1
					C109.7,43.9,110.7,42.9,110.7,41.7L110.7,41.7z"/>
				<path class="st5" d="M126.7,62.7c-0.7-1-2-1.2-3-0.5c-0.9,0.6-1.1,1.8-0.6,2.7c5.1,8.1,11.1,20.4,11.1,33.3v53
					c0,13.1-12.8,21-34.2,21s-34.2-7.8-34.2-21v-53c0-13,6.1-25.4,11.2-33.5c0.7-1,0.5-2.3-0.5-3c-1-0.7-2.3-0.5-3,0.5
					c0,0.1-0.1,0.1-0.1,0.2C68,71.1,61.5,84.2,61.5,98.3v53c0,15.6,14.8,25.2,38.5,25.2s38.5-9.6,38.5-25.2v-53
					C138.5,84.3,132.1,71.2,126.7,62.7z"/>
				<path class="st5" d="M122.3,76.8c1.1-0.2,1.9-1.4,1.6-2.5c-0.2-1.1-1.4-1.9-2.5-1.6c-0.1,0-7.8,1.7-21.4,1.7
					c-13.6,0-21.2-1.6-21.3-1.6c-1.2-0.2-2.3,0.6-2.4,1.8c-0.2,1.1,0.5,2.1,1.5,2.4c0.3,0.1,8.1,1.7,22.2,1.7
					C114,78.6,122,76.9,122.3,76.8z"/>
				<path class="st5" d="M75,86.3c-0.8,4.3-1.2,8.7-1.2,13.1V146c-0.1,1.2,0.8,2.2,2,2.3c1.2,0.1,2.2-0.8,2.3-2c0-0.1,0-0.2,0-0.3
					V99.4c0-4.1,0.3-8.2,1.1-12.3c0.2-1.2-0.6-2.2-1.8-2.4C76.3,84.6,75.3,85.2,75,86.3z"/>
			</g>
		</g>
	</g>
</g>
</svg>
