<?xml version="1.0" encoding="utf-8"?>
<!-- Generator: Adobe Illustrator 25.0.0, SVG Export Plug-In . SVG Version: 6.00 Build 0)  -->
<svg version="1.1" id="Layer_1" xmlns="http://www.w3.org/2000/svg" xmlns:xlink="http://www.w3.org/1999/xlink" x="0px" y="0px"
	 viewBox="0 0 200 200" style="enable-background:new 0 0 200 200;" xml:space="preserve">
<style type="text/css">
	.st0{clip-path:url(#SVGID_2_);}
	.st1{fill:#FFFFFF;}
	.st2{fill:#95C11F;}
	.st3{fill:#F39DB1;}
	.st4{fill:#694828;}
</style>
<g id="Layer_2_1_">
	<g id="Layer_1-2">
		<g>
			<defs>
				<circle id="SVGID_1_" cx="100" cy="100" r="100"/>
			</defs>
			<clipPath id="SVGID_2_">
				<use xlink:href="#SVGID_1_"  style="overflow:visible;"/>
			</clipPath>
			<g class="st0">
				<rect x="-59.5" y="-28.1" class="st1" width="319" height="256.3"/>
				<path class="st2" d="M68.4,138.2c0,0-18.9,7.6-26.7,17.3c-2,2.5,29.8,10.6,43,0.9c5.7-4.2,10.6-9.5,14.3-15.6
					c0,0,3.3,3.2,9.5,9.6c10.2,10.6,21.9,12.5,36,10c5.4-0.8,10.6-2.5,15.5-5c0,0-11.2-13.1-32.6-16.2c-19.2,0.8-27.6-3.6-27.6-3.6
					C91.2,140.2,80.7,140.9,68.4,138.2z"/>
				<path class="st3" d="M140.8,61.3c0,0-29-13.5-39.3-11.7c-10.3,1.8-62.9,15.2-58,60.7c1.8,17.3,22.2,30.3,37.2,29.8
					c11.4-0.4,18-3.4,18-3.4s11.7,3.4,21.6,3.2c17.1-0.3,29.9-10.8,34.6-26.6C160.3,94.6,154.9,74.6,140.8,61.3z"/>
				<path class="st4" d="M57,134.9c6.7,4.7,14.7,7.1,24,7.1c3.8,0,7.6-0.3,11.3-1c7.5-1.3,14-6.8,18.8-15.7
					c9.3-17.3,10.3-43.3,2.4-62c-0.4-1.1-1.6-1.7-2.7-1.3c-1.1,0.4-1.7,1.6-1.3,2.7c0,0.1,0.1,0.2,0.1,0.2
					c7.5,17.6,6.6,42.1-2.2,58.3c-2.9,5.4-8,12.1-15.8,13.5c-13,2.3-23.8,0.5-32-5.3c-7.6-5.4-12.8-14.3-14.4-24.9
					C41.5,84.1,50,66.1,70.8,51.6c3.4-2.3,7-4.3,10.7-5.9c1.1-0.5,1.5-1.8,1-2.9c-0.5-1-1.6-1.4-2.7-1c-4,1.7-7.8,3.9-11.4,6.3
					C46,63.6,37,82.9,40.9,107.1C42.7,119,48.5,128.8,57,134.9z"/>
				<path class="st4" d="M91.6,42.2c2.7-0.8,5.6-1.2,8.4-1.3c4.5,0,17.5,2.6,29.2,10.8c20.9,14.5,29.3,32.4,25.7,54.9
					c-1.5,9.8-6.1,18.2-12.8,23.7c-8.1,6.6-18.9,8.9-32.2,6.8c-1.2-0.1-2.2,0.8-2.3,1.9c-0.1,1.1,0.6,2,1.7,2.3
					c3.2,0.5,6.4,0.8,9.6,0.8c10.2,0,19.1-2.9,26-8.5c7.5-6.1,12.6-15.5,14.3-26.3c3.8-24.2-5.2-43.6-27.5-59
					c-13.6-9.4-27.7-11.6-31.6-11.6c-3.2,0.1-6.4,0.6-9.4,1.5c-1.1,0.4-1.7,1.6-1.3,2.7C89.6,41.8,90.5,42.4,91.6,42.2L91.6,42.2z"
					/>
				<path class="st4" d="M96,144.8c-0.9-0.7-2.3-0.5-3,0.5c0,0,0,0,0,0.1c-7.6,10.9-19.2,15.4-34.3,13.4c-6.6-1-13-2.9-19-5.6
					c3.6-5.1,8.2-9.3,13.5-12.5c1-0.6,1.3-1.9,0.7-2.9c-0.6-0.9-1.8-1.2-2.7-0.8c-6.1,3.4-11.7,8.9-16.4,15.8
					c-0.7,1-0.4,2.3,0.6,2.9c0.1,0,0.1,0.1,0.2,0.1c0.2,0.1,14.3,7.6,30,7.5c10.9,0,22.6-3.6,30.9-15.6
					C97.2,146.8,97,145.5,96,144.8z"/>
				<path class="st4" d="M64.4,142.5c-4.7,1.4-9.3,3.1-13.7,5.2c-1.1,0.5-1.5,1.8-1,2.8c0.4,0.7,1.1,1.2,1.9,1.2
					c0.3,0,0.6-0.1,0.9-0.2c4.3-2,8.7-3.7,13.2-5c1.1-0.4,1.7-1.6,1.3-2.7C66.5,142.7,65.5,142.2,64.4,142.5L64.4,142.5z"/>
				<path class="st4" d="M165.1,152.8c-4-6.3-9.4-11.6-15.7-15.5c-1-0.5-2.3-0.1-2.9,0.9c-0.5,1-0.2,2.1,0.7,2.7
					c5.1,3.1,9.6,7.3,13,12.2c-6,2.7-12.4,4.6-18.9,5.6c-15.1,2.1-26.6-2.4-34.3-13.2c-0.7-0.9-2.1-1.1-3-0.4
					c-0.9,0.7-1.1,1.9-0.5,2.8c8.4,11.9,20,15.4,30.8,15.4c15.7,0,29.8-7.4,30-7.5c1-0.5,1.4-1.8,0.9-2.9
					C165.2,152.9,165.2,152.8,165.1,152.8L165.1,152.8z"/>
				<path class="st4" d="M131.1,143.4c-0.3,1.1,0.3,2.3,1.5,2.6c5.1,1.4,10.1,3.3,14.9,5.5c0.3,0.1,0.6,0.2,0.9,0.2
					c1.2,0,2.1-1,2.1-2.1c0-0.8-0.5-1.6-1.2-1.9c-5-2.3-10.2-4.2-15.5-5.7C132.6,141.6,131.5,142.2,131.1,143.4z"/>
			</g>
		</g>
	</g>
</g>
</svg>
