<?xml version="1.0" encoding="utf-8"?>
<!-- Generator: Adobe Illustrator 25.0.0, SVG Export Plug-In . SVG Version: 6.00 Build 0)  -->
<svg version="1.1" id="Layer_1" xmlns="http://www.w3.org/2000/svg" xmlns:xlink="http://www.w3.org/1999/xlink" x="0px" y="0px"
	 viewBox="0 0 200 200" style="enable-background:new 0 0 200 200;" xml:space="preserve">
<style type="text/css">
	.st0{clip-path:url(#SVGID_2_);}
	.st1{fill:#FFFFFF;}
	.st2{fill:#E9B646;}
	.st3{fill:#694828;}
</style>
<g id="Layer_2_1_">
	<g id="Layer_1-2">
		<g>
			<defs>
				<circle id="SVGID_1_" cx="100" cy="100" r="100"/>
			</defs>
			<clipPath id="SVGID_2_">
				<use xlink:href="#SVGID_1_"  style="overflow:visible;"/>
			</clipPath>
			<g class="st0">
				<rect x="-59.5" y="-28.1" class="st1" width="319" height="256.3"/>
				<path class="st2" d="M157.6,60.2c-3.8-11.9-25.2-16.8-40.5-1.8s-8.8,15.5-22.6,24.9c-13.8,9.4-44.8,8.2-47.5,39.8
					s16,40.1,35.6,38.3c15.4-1.4,30.7-15.6,34-32.4c3.6-17.9,6.1-23,16.9-26.5C142.1,99.8,165.5,84.9,157.6,60.2z"/>
				<path class="st3" d="M59.7,154.6c-1.8-1.1-3.4-2.3-5-3.6c-10.3-8.9-14.3-21.7-11.1-35.1c3.9-15.9,16.7-28.2,33.4-32.1
					c13.8-3.3,17.7-6.5,20.9-17.3c4.6-15.8,15.8-25.5,30-26c1.2-0.1,2-1,2-2.2c0-1.2-1-2-2.2-2c0,0,0,0,0,0
					c-16.1,0.5-28.8,11.4-33.9,29c-2.5,8.7-4.9,11.3-17.8,14.3c-18.3,4.3-32.3,17.8-36.6,35.3c-3.8,14.4,1.1,29.7,12.4,39.4
					c1.8,1.5,3.6,2.9,5.6,4.1c0.3,0.2,0.7,0.3,1.1,0.3c1.2,0,2.1-0.9,2.1-2.1C60.7,155.7,60.3,155,59.7,154.6L59.7,154.6z"/>
				<path class="st3" d="M154,47c-4.2-4.8-9.8-8.3-16.1-9.8c-1.1-0.3-2.3,0.3-2.6,1.5c-0.3,1.1,0.3,2.3,1.5,2.6c0,0,0.1,0,0.1,0
					c5.4,1.3,10.3,4.3,13.9,8.5c6.1,7.2,8.2,16.9,5.7,26c-3.1,11.5-12.4,20.8-25.7,25.5c-8.5,3-12.7,9-14.6,20.6
					c-2.3,14.2-9.2,25.6-19.5,32.1c-8.5,5.4-18.9,7-28.6,4.3c-1.1-0.3-2.3,0.3-2.6,1.5c-0.3,1.1,0.3,2.3,1.5,2.6l0,0
					c3.5,1,7,1.5,10.6,1.5c7.6,0,15-2.2,21.4-6.2c11.3-7.2,18.9-19.6,21.4-35c1.9-11.5,5.9-15.2,11.8-17.2
					c14.6-5.2,24.9-15.5,28.4-28.5C163.5,66.5,161,55.3,154,47z"/>
				<path class="st3" d="M152.5,59.6c-1.1-0.5-2.3-0.1-2.8,1c-1.1,2.3-2.4,4.5-3.8,6.6c-1.6-2.7-3.5-5.2-5.6-7.5
					c-4.3-4.7-9.4-8.6-14.9-11.6c0.7-0.8,1.4-1.5,2.2-2.2c0.9-0.7,1-2.1,0.3-3s-2.1-1-3-0.3c-0.1,0.1-0.1,0.1-0.2,0.2
					c-1.1,1.1-2.2,2.2-3.2,3.3c-0.8-0.3-1.5-0.7-2.2-0.9c-1.1-0.4-2.3,0.1-2.8,1.2s0.1,2.3,1.2,2.8l0,0c0.3,0.1,0.7,0.2,1,0.4
					c-2.5,3.5-4.9,7.1-6.9,10.9c-1.3-0.6-2.5-1.2-3.7-1.7c-1.1-0.4-2.3,0.1-2.8,1.2c-0.4,1.1,0.1,2.3,1.2,2.8l0,0
					c1,0.4,2,0.9,3.1,1.4l-2,3.8c-1,2-2.1,3.9-3.1,5.8c-0.9,1.7-2,3.3-3.2,4.8c-1.2-0.7-2.3-1.2-3.4-1.7c-1.1-0.4-2.3,0.1-2.8,1.2
					c-0.4,1,0,2.2,1,2.7c0.6,0.3,1.4,0.6,2.2,1c-3.9,3.9-8.7,7.1-13.9,10.6c-1.5,1-3,2.1-4.5,3.1c-3.1-2.3-6.1-4.3-8.6-6
					c-0.9-0.7-2.3-0.5-3,0.4c-0.7,0.9-0.5,2.3,0.4,3c0.1,0.1,0.1,0.1,0.2,0.1c2.2,1.4,4.7,3.2,7.4,5.1c-3.4,2.5-6.7,5.3-9.8,8.2
					c-2.6,2.5-4.9,5.1-7.1,7.7c-1.6-2.8-3.1-5.7-4.4-8.7c-0.3-1.1-1.4-1.8-2.6-1.6s-1.8,1.4-1.6,2.6c0.1,0.2,0.2,0.5,0.3,0.6
					c1.6,3.6,3.4,7.1,5.4,10.5c-3.6,4.6-6.9,9.4-9.9,14.3c-0.7,1-0.4,2.3,0.6,3c1,0.7,2.3,0.4,3-0.6c0.1-0.1,0.1-0.2,0.1-0.2
					c2.6-4.4,5.5-8.6,8.6-12.7c3.9,6,8.4,11.4,13.6,16.3c3,2.8,6.2,5.4,9.6,7.7c-3.5,2.7-7.2,5.2-11.1,7.3c-1,0.6-1.4,1.9-0.9,2.9
					c0.4,0.7,1.1,1.1,1.9,1.1c0.4,0,0.7-0.1,1-0.3c4.6-2.4,8.9-5.3,12.9-8.6c2.8,1.7,5.3,3,7.4,4c0.3,0.1,0.6,0.2,0.9,0.2
					c1.2,0,2.1-1,2.1-2.2c0-0.8-0.5-1.5-1.1-1.8c-1.7-0.8-3.7-1.9-5.9-3.1c6-5.4,10.9-11.9,14.5-19.2c1.4,2.1,2.6,4.1,3.6,5.8
					c0.4,0.7,1.1,1.1,1.8,1.1c0.4,0,0.7-0.1,1.1-0.3c1-0.6,1.4-1.9,0.8-2.9c0,0,0,0,0,0c-1.3-2.3-3-5.1-5.2-8.2
					c3-7,6.6-13.6,10.9-19.9c0.5,1.1,0.8,2.1,1.1,3c0.3,0.9,1.1,1.4,2,1.4c0.2,0,0.5,0,0.7-0.1c1.1-0.4,1.7-1.6,1.3-2.7c0,0,0,0,0,0
					c-0.6-1.9-1.4-3.7-2.2-5.4c3.4-4.1,7.3-7.7,11.7-10.8c0.9,2.2,1.6,4.5,2.2,6.8c0.2,0.9,1.1,1.6,2.1,1.6c0.2,0,0.3,0,0.5-0.1
					c1.1-0.3,1.8-1.4,1.6-2.6c-0.7-2.9-1.6-5.7-2.8-8.4l0.9-0.6c3.4-2.5,6.6-5.4,9.4-8.5c0.9,2.2,1.5,4.4,2,6.7
					c0.2,1,1.1,1.7,2.1,1.7c1.2,0,2.2-0.9,2.2-2.1c0-0.2,0-0.3,0-0.5c-0.7-3.3-1.8-6.5-3.2-9.6c2.1-2.8,3.9-5.8,5.4-9
					C154,61.4,153.6,60.1,152.5,59.6C152.5,59.6,152.5,59.6,152.5,59.6z M85.4,142.7c-3.6-2.3-7-5-10.1-7.9
					c-5.3-5-9.9-10.6-13.7-16.8c2.4-3,5-5.8,7.8-8.5c3.2-3.1,6.7-6,10.4-8.6c4.6,3.5,9,7.3,13.1,11.4c2.9,3,5.6,6.2,8.1,9.6
					C97.2,129.8,92,136.9,85.4,142.7z M102.9,117.5c-2.2-2.8-4.6-5.6-7.1-8.2c-3.9-3.9-8.1-7.6-12.5-11l3.3-2.3
					c5.6-3.8,10.9-7.4,15.3-12c3.4,2,6.5,4.6,9,7.6c1.3,1.7,2.5,3.6,3.6,5.5C110,103.5,106.1,110.3,102.9,117.5z M117.4,93.6
					c-0.9-1.6-1.9-3.1-3-4.5c-2.7-3.3-5.9-6.1-9.5-8.3c1.2-1.5,2.3-3.2,3.2-4.9c1.1-1.9,2.1-3.9,3.2-5.9c0.7-1.2,1.3-2.5,2-3.7
					c5.2,3.2,10.5,7.6,13.7,12.3c0.9,1.4,1.7,2.8,2.5,4.2C125.1,86,121,89.6,117.4,93.6z M133.1,80.2l-0.2,0.1
					c-0.7-1.4-1.5-2.8-2.4-4.1C127,70.9,121,66,115.3,62.6c2.1-3.9,4.5-7.6,7.2-11.1c5.5,2.8,10.4,6.6,14.6,11.1
					c2.3,2.5,4.3,5.3,6,8.3C140.2,74.4,136.8,77.5,133.1,80.2z"/>
			</g>
		</g>
	</g>
</g>
</svg>
