<?xml version="1.0" encoding="utf-8"?>
<!-- Generator: Adobe Illustrator 25.0.0, SVG Export Plug-In . SVG Version: 6.00 Build 0)  -->
<svg version="1.1" id="Layer_1" xmlns="http://www.w3.org/2000/svg" xmlns:xlink="http://www.w3.org/1999/xlink" x="0px" y="0px"
	 viewBox="0 0 200 200" style="enable-background:new 0 0 200 200;" xml:space="preserve">
<style type="text/css">
	.st0{clip-path:url(#SVGID_2_);}
	.st1{fill:#FFFFFF;}
	.st2{fill:#F6B2B6;}
	.st3{fill:#F9C5AF;}
	.st4{fill:#694828;}
</style>
<g id="Layer_2_1_">
	<g id="Layer_1-2">
		<g>
			<defs>
				<circle id="SVGID_1_" cx="100" cy="100" r="100"/>
			</defs>
			<clipPath id="SVGID_2_">
				<use xlink:href="#SVGID_1_"  style="overflow:visible;"/>
			</clipPath>
			<g class="st0">
				<rect x="-59.5" y="-28.1" class="st1" width="319" height="256.3"/>
				<path class="st2" d="M177.4,102c0,0-7-3.5-12.6-0.3c0,0-2.4,6.7,0.8,13c3.9,7.7,9.4,8.3,10.2,6.6
					C177.7,117.2,177.4,102,177.4,102z"/>
				<path class="st3" d="M35.1,94.2c2.8-18,25.9-35,56.8-33.2c1.1,3.8,2.8,7.5,4.9,10.8c0,0-1.5-12.7,14.9-15.7
					c14.1-2.5,22.3,2.1,23.6,29.7c0,0,2.5-7.8,2.5-12.2c0,0,7.6-0.1,15.2,7.8c6.6,6.9,16.3,12.9,16.3,12.9
					c-3.7,3.4-5.7,8.3-5.5,13.3c0.2,11.2,10.9,15.3,10.9,15.3c-13.4,11.8-34.1,14.8-34.1,14.8s-0.8,15.3-1.3,15.5
					c-4.9,2-11.2,0.4-11.2,0.4c-1.2-4.5-2.1-9.1-2.5-13.7c0,0-11.7,2.7-36.7,1.6c-16.9-0.7-19.4-2.3-19.4-2.3s-1.8,13.1-2.6,14.2
					s-10.3,0.9-10.7-0.8c-0.5-2.4-2.6-19.2-2.6-19.2s-14.1-7-17.9-20C33.8,106.9,34.2,99.8,35.1,94.2z"/>
				<path class="st4" d="M179.1,93.4c-0.2-1.2-1.3-1.9-2.5-1.7c-1.1,0.2-1.8,1.2-1.7,2.2c0.8,6.8,0.2,22.4-0.6,25.1
					c-0.4,1.5-4.4,6.7-16.3,11.5c-10.3,4.1-29.5,9.1-62.5,9.1c-23.5,0-40.4-5-50.2-14.9c-6.9-7-10.4-16.5-10.4-28.2
					C34.8,74.2,55.5,57,86.2,53.7c1.2-0.2,2-1.3,1.8-2.4c-0.2-1.1-1.1-1.9-2.2-1.8C52.8,53,30.6,71.9,30.5,96.5
					c0,12.9,3.9,23.4,11.6,31.2c10.7,10.7,28.6,16.1,53.2,16.1c62.3,0,81-17.1,82.9-23.7C179.5,116.5,179.9,99.9,179.1,93.4z"/>
				<path class="st4" d="M147.3,69c9.9,12.3,17.2,16.5,22,19.3l1.6,0.9c0.3,0.2,0.7,0.3,1.1,0.3c1.2,0,2.1-0.9,2.1-2.1
					c0-0.8-0.4-1.5-1-1.8c-0.5-0.3-1.1-0.6-1.6-1C166.9,82,160,78,150.7,66.3c-1.3-1.6-2.8-3.2-4.4-4.5c-0.8-0.8-2.2-0.8-3,0.1
					s-0.8,2.2,0.1,3c0.1,0.1,0.1,0.1,0.2,0.1C144.9,66.2,146.2,67.6,147.3,69z"/>
				<path class="st4" d="M140.5,142.6c-1.2-0.1-2.2,0.8-2.2,2c-0.2,4.2-0.4,6.2-0.5,7.2c-2.6,0.4-5.2,0.3-7.8-0.1
					c-0.2-0.7-0.5-2.2-0.9-5c-0.3-1.1-1.4-1.9-2.5-1.6c-1,0.2-1.8,1.2-1.7,2.3c0.7,4.6,1.2,6,1.4,6.6c0.8,1.9,4.6,2.3,7.6,2.3
					c1.2,0,2.3-0.1,3-0.1c2.4-0.2,4.6-0.6,5.1-2.6c0.2-0.7,0.4-2.4,0.7-8.8C142.6,143.6,141.7,142.6,140.5,142.6
					C140.5,142.6,140.5,142.6,140.5,142.6z"/>
				<path class="st4" d="M68.5,143.5c-1.2-0.2-2.2,0.7-2.4,1.8c-0.5,3.8-0.8,5.7-1,6.7c-2.3,0.1-4.7,0-7-0.2
					c-0.2-1.2-0.5-4-1.1-10.2c-0.1-1.2-1.2-2-2.3-1.9c-1.2,0.1-2,1.2-1.9,2.3c0,0,0,0,0,0c1.1,11.3,1.3,11.8,1.5,12.3
					c0.6,1.2,1.9,1.5,3.2,1.7c1.9,0.2,3.7,0.3,5.6,0.4c2.3,0,4.5-0.2,5.3-1.1c0.5-0.6,0.8-0.9,1.9-9.3
					C70.5,144.8,69.7,143.7,68.5,143.5C68.5,143.5,68.5,143.5,68.5,143.5z"/>
				<path class="st4" d="M33,75.2c1.2,0,2.1-0.9,2.1-2.1c0-0.8-0.4-1.5-1-1.8c-0.2-0.1-0.4-0.3-0.6-0.4c1.5-0.6,2.8-1.6,3.7-2.9
					c2-2.8,1.4-6.8-1.5-8.8c-0.1-0.1-0.1-0.1-0.2-0.2c-2.5-1.7-6.4-1.6-8.9,2.1c-0.9,1.4-1.3,3-1.1,4.6c-0.4-0.4-0.8-0.9-1.1-1.4
					c-0.6-1-1.9-1.4-2.9-0.9c-0.9,0.5-1.4,1.6-1,2.6c1.5,2.8,4.2,4.8,7.3,5.3c1.1,1.4,2.4,2.7,4,3.6C32.3,75,32.6,75.1,33,75.2z
					 M29.9,65.7c-0.2-0.8-0.1-1.7,0.3-2.4c0.4-0.7,1.1-1.2,1.9-1.3c0.4,0,0.8,0.1,1.1,0.4c1,0.6,1.3,1.9,0.6,2.9
					c0,0.1-0.1,0.1-0.1,0.2c-0.8,1-2,1.6-3.3,1.7C30.2,66.7,30,66.2,29.9,65.7L29.9,65.7z"/>
				<path class="st4" d="M171.6,95.5c1-0.7,1.2-2,0.5-3c-0.6-0.9-1.8-1.2-2.8-0.6c-2.8,1.8-7.4,6.1-7.4,15.3
					c0,7.3,3.1,11.3,5.7,13.3c0.9,0.7,2.3,0.6,3-0.3c0,0,0,0,0,0c0.7-0.9,0.6-2.2-0.3-3c0,0,0,0,0,0c-2.6-2.1-4.1-5.5-4.1-10
					C166.2,100,169.6,96.7,171.6,95.5z"/>
				<path class="st4" d="M125.2,98.3c0.6,0,1.2-0.1,1.8-0.2c4.1-0.8,7.5-4.3,9.9-10.2c4.3-10.8,4.5-29.4-2.2-38.7
					c-0.7-1-2-1.2-3-0.5c0,0,0,0,0,0c-1,0.7-1.2,2-0.5,3c0,0,0,0,0,0c5.7,8,5.6,24.9,1.7,34.7c-1.8,4.4-4.2,7.1-6.7,7.6
					c-5.3,1-15-6.4-23.7-18c-7.6-10.2-9.8-17.5-8.9-19.3c1-2,5.4-4.9,13-6.9c7.2-2,14.4-2.4,19.4-1.1c1.1,0.4,2.3-0.3,2.7-1.4
					s-0.3-2.3-1.4-2.7c-0.1,0-0.2,0-0.3-0.1c-12.2-3.1-33.4,2.7-37.2,10.2c-3.3,6.5,7.1,21,9.3,23.8
					C106.4,88.4,116.9,98.3,125.2,98.3z"/>
			</g>
		</g>
	</g>
</g>
</svg>
