<?xml version="1.0" encoding="utf-8"?>
<!-- Generator: Adobe Illustrator 25.0.0, SVG Export Plug-In . SVG Version: 6.00 Build 0)  -->
<svg version="1.1" id="Layer_1" xmlns="http://www.w3.org/2000/svg" xmlns:xlink="http://www.w3.org/1999/xlink" x="0px" y="0px"
	 viewBox="0 0 200 200" style="enable-background:new 0 0 200 200;" xml:space="preserve">
<style type="text/css">
	.st0{clip-path:url(#SVGID_2_);}
	.st1{fill:#FFFFFF;}
	.st2{fill:#FAC39F;}
	.st3{fill:#5A666A;}
	.st4{fill:#DAE0E3;}
	.st5{fill:#8DA3C3;}
	.st6{fill:#694828;}
</style>
<g id="Layer_2_1_">
	<g id="Layer_1-2">
		<g>
			<defs>
				<circle id="SVGID_1_" cx="100" cy="100" r="100"/>
			</defs>
			<clipPath id="SVGID_2_">
				<use xlink:href="#SVGID_1_"  style="overflow:visible;"/>
			</clipPath>
			<g class="st0">
				<rect x="-59.5" y="-28.1" class="st1" width="319" height="256.3"/>
				<path class="st2" d="M76.2,133.3c0,0-4.8,8.2-5.6,7.8c-3.4-1.4-11.6-15.3-9.9-14.5C66.2,129.2,74.8,132.7,76.2,133.3z"/>
				<path class="st3" d="M38.8,96.9c-5.1-1.6-9.9-4.2-14-7.7c-3.9-3.2-1.2,5.8,2.3,15.9c-3.4,8-5.8,15.3-5.8,19.5s16.3-5.2,20.7-10
					C43.7,112.9,43.3,99.7,38.8,96.9z"/>
				<path class="st4" d="M40.6,103c14.2-2.2,88.8-0.6,102.2-0.9s22,2.5,22,2.5c-1.3,2.9-2.8,5.7-4.4,8.4c-2.1,3.2-1.1,6.8,1.8,7.2
					s7.2,0.3,6.9,3.2s-35.6,10-62.6,9.2C86,132,59.2,121.3,51.6,116.1s-18.9-8.1-18-11S36.8,103.6,40.6,103z"/>
				<path class="st3" d="M126.3,123c0,0-20.7-0.6-21.7,1.9s5.4,6.7,8.3,6.9C115.9,131.9,134.2,127.5,126.3,123z"/>
				<path class="st3" d="M95.5,76.7c0,0-12.4-12.5-20.6-14.2C73.4,70,70,84.6,70,84.6C78.2,81.2,86.7,78.5,95.5,76.7z"/>
				<path class="st5" d="M109.6,82.8c24,0.2,56.4,10.1,60.1,15.7c1.9,2.9,1.3,2.8-1.3,5.4s-88.8,1.2-103.1,1.2s-32.5,1-31.3-1
					s19.5-10,32.4-14.1S96.1,82.7,109.6,82.8z"/>
				<path class="st6" d="M180.6,114.6c-0.9-0.7-2.3-0.6-3,0.4c-1.9,2.2-4.1,4-6.6,5.5c-8.8,5.7-36.9,18-62.8,17.2
					c-25.5-0.8-42.7-11.4-55.2-19.1c-5.6-3.4-10-6.2-13.8-7.1c-1.1-0.3-2.3,0.4-2.6,1.6c-0.3,1.1,0.4,2.3,1.6,2.6
					c3.1,0.8,7.3,3.3,12.5,6.6c12.2,7.5,30.6,18.9,57.3,19.8c0.9,0,1.8,0,2.8,0c28.9,0,56.4-14,62.4-17.9c2.9-1.7,5.5-3.9,7.7-6.5
					C181.6,116.6,181.5,115.3,180.6,114.6z"/>
				<path class="st6" d="M142.8,83c11.6,3.5,22.7,8.8,29.5,14.1c0.4,0.3,0.8,0.4,1.3,0.4c1.2,0,2.1-1,2.1-2.1c0-0.7-0.3-1.3-0.8-1.7
					c-7.2-5.6-18.8-11.1-30.9-14.8c-1.1-0.4-2.3,0.2-2.7,1.3s0.2,2.3,1.3,2.7C142.6,83,142.7,83,142.8,83z"/>
				<path class="st6" d="M36.7,97.1c0.1,1.1,1,2,2.1,2h0.1c4.1-0.3,10.3-3.1,18.2-6.7c13.5-6.2,31.9-14.6,50.3-14.7
					c9.5,0,18.9,1.1,28.1,3.3c1.1,0.3,2.3-0.5,2.5-1.6c0.2-1.1-0.4-2.2-1.5-2.5c-9.5-2.3-19.3-3.4-29.1-3.4
					c-19.3,0.1-38.2,8.8-52,15.1c-7.2,3.2-13.4,6.1-16.7,6.3C37.5,94.9,36.6,95.9,36.7,97.1z"/>
				<path class="st6" d="M168.2,100.8c-3-0.2-5.2,3.3-8,7.6c-1.4,2.4-3,4.6-4.9,6.6v0.1c-0.1,0.1-0.1,0.1-0.1,0.2l-0.1,0.2
					c0,0.1-0.1,0.1-0.1,0.2c0,0.1-0.1,0.1-0.1,0.2c0,0.1,0,0.1-0.1,0.2c0,0.1,0,0.1,0,0.2c0,0.1,0,0.1,0,0.2c0,0.1,0,0.1,0,0.2
					s0,0.1,0,0.2v0.2c0,0,0,0,0,0.1l0.1,0.2c0,0.1,0,0.1,0.1,0.2c0,0.1,0.1,0.2,0.1,0.3c0,0,0,0,0,0.1c0.1,0.1,0.2,0.2,0.2,0.3l0,0
					h0.1c0.1,0.1,0.1,0.1,0.2,0.2l0.1,0.1c0.1,0,0.1,0.1,0.2,0.1l0.1,0.1l0.3,0.1h0.1c0.1,0,0.3,0,0.4,0l0,0c0.2,0,0.3,0,0.5-0.1
					l0,0c7.7-2,13-3.2,14.6-3.6h0.1c1.2,0.2,2.3-0.5,2.5-1.7s-0.5-2.3-1.7-2.5c-0.1,0-0.1,0-0.2,0c-0.5-0.1-1-0.1-1.5,0
					c-1,0.2-4.2,1-8.9,2.1l1.5-2.2c1.4-2.1,3.4-5.2,4.4-5.7c7.4,0.3,11.8-2.1,12-2.2c1-0.6,1.4-1.9,0.8-2.9c-0.6-1-1.9-1.4-2.9-0.8
					C175,100.4,171.6,101,168.2,100.8z"/>
				<path class="st6" d="M71,79.2c0.2,0.1,0.4,0.1,0.6,0.1c0.9,0,1.7-0.7,2-1.6c2-7.6,3.2-15.4,3.8-23.3c0.1-1.2-0.8-2.2-2-2.3
					c-1.2-0.1-2.2,0.8-2.3,2l0,0c0,0.1-0.9,12.6-3.6,22.4C69.2,77.7,69.8,78.8,71,79.2C71,79.2,71,79.2,71,79.2z"/>
				<path class="st6" d="M130.9,104c-1,5.9-0.5,15.1,7.7,25.2c0.8,0.9,2.1,0.9,3,0.1c0.8-0.7,0.9-1.9,0.3-2.8
					c-7.2-8.9-7.7-16.8-6.8-21.9c1.1-6.2,4.6-10.9,7.6-12.8c1-0.6,1.3-1.9,0.7-2.9c-0.6-1-1.9-1.3-2.9-0.7
					C136.8,90.5,132.2,96,130.9,104z"/>
				<path class="st6" d="M59,129.9c-0.5-1-1.8-1.5-2.9-0.9c0,0,0,0,0,0c-1,0.5-1.5,1.8-0.9,2.9c2.7,5.5,6.1,10.6,9.9,15.3
					c0.4,0.5,1,0.7,1.6,0.7c0.5,0,1-0.2,1.4-0.5c0.9-0.8,1-2.1,0.2-3C64.7,139.9,61.6,135,59,129.9z"/>
				<path class="st6" d="M20.7,129.5c1.1,0,2-0.8,2.1-1.9c0.8-7.4,3-14.6,6.5-21.1c0.4-0.6,0.4-1.4,0.1-2
					c-3.1-7.2-5.3-14.7-6.5-22.4c-0.1-1.2-1.2-2-2.4-1.8c-1.2,0.1-2,1.2-1.8,2.4c0,0,0,0,0,0.1c1.2,7.8,3.3,15.4,6.3,22.6
					c-3.5,6.8-5.7,14.2-6.5,21.8c-0.1,1.2,0.7,2.2,1.9,2.3L20.7,129.5z"/>
				<path class="st6" d="M21.3,76.9c1.4,0.2,4,2.9,6.4,5.2c1.7,1.7,3.6,3.6,5.6,5.3c1.7,1.4,3.4,2.8,5.3,4.3c0.9,0.7,2.3,0.6,3-0.4
					c0,0,0,0,0,0c0.7-0.9,0.6-2.3-0.3-3c0,0,0,0,0,0c-1.8-1.4-3.5-2.8-5.2-4.2c-1.9-1.5-3.6-3.3-5.3-5c-3.3-3.3-5.9-6-8.7-6.4
					c-1.2-0.2-2.3,0.6-2.4,1.7S20.1,76.7,21.3,76.9L21.3,76.9L21.3,76.9z"/>
				<path class="st6" d="M37.7,119.2l-1.2,1.2c-1.4,1.4-3,3-4.9,4.5c-5.8,4.9-11.1,8.7-11.2,8.7c-1,0.7-1.2,2-0.5,3
					c0.7,1,2,1.2,3,0.5c0.1,0,5.4-3.9,11.4-8.9c2-1.7,3.7-3.3,5.2-4.7l1.2-1.2c0.9-0.8,1-2.1,0.3-3c-0.8-0.9-2.1-1-3-0.3
					C37.8,119,37.7,119.1,37.7,119.2z"/>
				<path class="st6" d="M124.6,107c1.2,0.1,2.2-0.8,2.3-2c0.1-1.2-0.8-2.2-2-2.3c-0.1,0-0.2,0-0.3,0l0,0c-0.5,0-52.6,0.2-78.2-1.1
					c-1.2-0.1-2.2,0.8-2.2,2c-0.1,1.2,0.8,2.2,2,2.2c18.8,1,51.7,1.1,68.3,1.1C120.6,107,124.5,107,124.6,107z"/>
				<path class="st6" d="M80.5,59.6c4.9,3,9.2,7,12.7,11.6c0.7,0.9,2.1,1,3,0.3c0.8-0.7,1-1.9,0.5-2.8c-3.8-5.1-8.5-9.4-13.9-12.7
					c-1-0.6-2.3-0.3-2.9,0.7C79.3,57.7,79.6,59,80.5,59.6L80.5,59.6z"/>
				<path class="st6" d="M74.2,136.8c-1-0.6-2.3-0.3-2.9,0.7c0,0,0,0,0,0c-0.6,1-1.4,2-2.1,3c-0.7,0.9-0.5,2.3,0.4,3
					c0.9,0.7,2.1,0.5,2.8-0.3c0.9-1.1,1.7-2.2,2.5-3.4C75.5,138.7,75.2,137.4,74.2,136.8C74.2,136.8,74.2,136.8,74.2,136.8z"/>
				<path class="st6" d="M127,124.8c1.2,0.1,2.2-0.7,2.4-1.9c0.1-1.2-0.7-2.2-1.9-2.4l0,0c-0.6-0.1-14.8-1.7-27.6,0.9
					c-1.2,0.2-1.9,1.4-1.7,2.5c0.1,0.3,0.2,0.7,0.5,0.9c0.3,0.3,7,8.3,14.4,8.8c0.3,0,0.7,0,1,0c5.3,0,12.1-2.6,12.4-2.7
					c1.1-0.4,1.7-1.7,1.2-2.8s-1.7-1.7-2.8-1.2c-0.1,0-7.1,2.7-11.6,2.4c-3-0.2-6.3-2.5-8.6-4.5C112.1,124.1,119.6,124,127,124.8z"
					/>
			</g>
		</g>
	</g>
</g>
</svg>
