<?xml version="1.0" encoding="utf-8"?>
<!-- Generator: Adobe Illustrator 25.0.0, SVG Export Plug-In . SVG Version: 6.00 Build 0)  -->
<svg version="1.1" id="Layer_1" xmlns="http://www.w3.org/2000/svg" xmlns:xlink="http://www.w3.org/1999/xlink" x="0px" y="0px"
	 viewBox="0 0 200 200" style="enable-background:new 0 0 200 200;" xml:space="preserve">
<style type="text/css">
	.st0{clip-path:url(#SVGID_2_);}
	.st1{fill:#FFFFFF;}
	.st2{fill:#F39200;}
	.st3{fill:#E94E24;}
	.st4{fill:#694828;}
</style>
<g id="Layer_2_1_">
	<g id="Layer_1-2">
		<g>
			<defs>
				<circle id="SVGID_1_" cx="100" cy="100" r="100"/>
			</defs>
			<clipPath id="SVGID_2_">
				<use xlink:href="#SVGID_1_"  style="overflow:visible;"/>
			</clipPath>
			<g class="st0">
				<rect x="-59.5" y="-28.1" class="st1" width="319" height="256.3"/>
				<path class="st2" d="M139.2,64c-6.4-6.9-15.1-4.8-22,1.8s-9.2,19.8-1.9,24.9c1.8,1.2,3.9,2,6.1,2.2c3.8-3.1,9.2-3.6,12.7-8.7
					c0.5-0.7,6.5-0.8,6.8-1.5C144.1,76,142.2,67.3,139.2,64z"/>
				<circle class="st3" cx="123.5" cy="74.1" r="8.4"/>
				<path class="st2" d="M84.9,57.8c-6.4-6.9-15.1-4.8-22,1.8S53.7,79.4,61,84.5s19.8,0.9,24.5-5.9C90.1,71.9,88.3,61.5,84.9,57.8z"
					/>
				<circle class="st3" cx="69.2" cy="68" r="8.4"/>
				<path class="st2" d="M89.7,133.9c-6.4-6.9-15.1-4.8-22,1.8s-9.2,19.8-1.9,24.9c7.3,5.1,19.8,0.9,24.5-5.9S93.1,137.5,89.7,133.9
					z"/>
				<circle class="st3" cx="74" cy="144" r="8.4"/>
				<path class="st2" d="M108,82.7c-6.4-6.9-15.1-4.8-22,1.8s-9.2,19.8-1.9,24.9s19.8,0.9,24.5-5.9C113.2,96.7,111.4,86.3,108,82.7z
					"/>
				<circle class="st3" cx="92.2" cy="92.8" r="8.4"/>
				<path class="st2" d="M155.2,90.8c-6.4-6.9-15.1-4.8-22,1.8s-9.2,19.8-1.9,24.9s19.8,0.9,24.5-5.9S158.6,94.5,155.2,90.8z"/>
				<circle class="st3" cx="139.5" cy="101" r="8.4"/>
				<path class="st2" d="M73.7,87.7c-6.3-6.9-15.1-4.8-22,1.8s-9.2,19.8-1.9,24.9s20.2,2,24.9-4.8S77.1,91.4,73.7,87.7z"/>
				<circle class="st3" cx="58" cy="97.9" r="8.4"/>
				<path class="st2" d="M111.7,44.2c-6.4-6.9-15.1-4.8-22,1.8c-6.9,6.6-9.2,19.8-1.9,24.9c7.3,5.1,19.8,0.9,24.5-5.9
					S115.1,47.9,111.7,44.2z"/>
				<circle class="st3" cx="96" cy="54.4" r="8.4"/>
				<path class="st1" d="M61.2,70.3c-0.1,0-0.3,0-0.4,0c-1.2-0.2-1.9-1.4-1.7-2.5c1-4.6,4.7-8.2,9.3-9c1.2-0.1,2.2,0.8,2.3,2
					c0.1,1-0.6,2-1.6,2.2c-2.9,0.5-5.2,2.8-5.8,5.7C63,69.6,62.2,70.3,61.2,70.3z"/>
				<path class="st1" d="M115,75.5c-0.1,0-0.3,0-0.4,0c-1.1-0.2-1.9-1.4-1.7-2.5c0,0,0,0,0,0c1-4.6,4.6-8.2,9.3-9
					c1.1-0.3,2.3,0.4,2.6,1.6c0.3,1.1-0.4,2.3-1.6,2.6c-0.1,0-0.2,0-0.3,0c-2.9,0.5-5.2,2.8-5.8,5.7C116.9,74.8,116,75.5,115,75.5z"
					/>
				<path class="st1" d="M84.7,93.8c-0.1,0-0.3,0-0.4,0c-1.2-0.2-1.9-1.4-1.7-2.5c1-4.6,4.7-8.2,9.3-9c1.1-0.3,2.3,0.4,2.6,1.6
					s-0.4,2.3-1.6,2.6c-0.1,0-0.2,0-0.3,0c-2.9,0.5-5.2,2.8-5.9,5.7C86.5,93.2,85.7,93.8,84.7,93.8z"/>
				<path class="st1" d="M87.8,55.6c-0.1,0-0.3,0-0.4,0c-1.2-0.2-1.9-1.4-1.7-2.5c0,0,0,0,0-0.1c1-4.6,4.7-8.2,9.3-9
					c1.1-0.3,2.3,0.4,2.6,1.6c0.3,1.1-0.4,2.3-1.6,2.6c-0.1,0-0.2,0-0.3,0c-2.9,0.5-5.2,2.8-5.9,5.7C89.7,54.9,88.8,55.6,87.8,55.6z
					"/>
				<path class="st1" d="M50,99.2c-0.1,0-0.3,0-0.4,0c-1.1-0.3-1.8-1.4-1.6-2.5c0,0,0,0,0,0c1-4.6,4.7-8.2,9.3-9
					c1.2-0.1,2.2,0.8,2.3,2c0.1,1-0.6,1.9-1.6,2.2c-2.9,0.5-5.2,2.8-5.8,5.7C51.9,98.5,51,99.2,50,99.2z"/>
				<path class="st1" d="M66.1,144.9c-0.1,0-0.3,0-0.4,0c-1.2-0.2-1.9-1.4-1.7-2.5c1-4.6,4.7-8.2,9.3-9c1.1-0.3,2.3,0.4,2.6,1.6
					c0.3,1.1-0.4,2.3-1.6,2.6c-0.1,0-0.2,0-0.3,0c-2.9,0.5-5.2,2.8-5.9,5.7C68,144.2,67.1,144.9,66.1,144.9z"/>
				<path class="st4" d="M52.8,78.9c0.3,0,0.5-0.1,0.8-0.1c1.1-0.4,1.7-1.6,1.3-2.8c0,0,0,0,0,0c-0.7-1.9-1.1-3.9-1.1-6
					c0.1-9.2,7.5-16.7,16.8-16.7h0.7c1.2,0.1,2.2-0.7,2.3-1.9c0.1-1.2-0.7-2.2-1.9-2.3c-0.1,0-0.2,0-0.2,0h-0.8
					c-11.6,0-21,9.4-21,21c0,2.6,0.5,5.1,1.4,7.5C51.2,78.4,51.9,78.9,52.8,78.9z"/>
				<path class="st4" d="M124,58.5h0.3c9.1,0,16.6,7.3,16.8,16.5c0,1.2,1,2.1,2.1,2.1l0,0c1.2,0,2.1-1,2.1-2.1c0,0,0,0,0,0
					c-0.2-11.4-9.6-20.6-21-20.7H124c-1.2-0.1-2.2,0.8-2.2,2c-0.1,1.2,0.8,2.2,2,2.2C123.9,58.5,124,58.5,124,58.5L124,58.5z"/>
				<path class="st4" d="M78.7,84.7c0.7,0,1.3-0.3,1.7-0.9c1.4-1.9,3.1-3.5,5.2-4.7c1-0.7,1.2-2,0.6-3c-0.6-0.9-1.8-1.2-2.7-0.7
					c-2.5,1.5-4.7,3.5-6.5,5.9c-0.7,0.9-0.5,2.3,0.5,3c0,0,0,0,0,0C77.8,84.6,78.2,84.7,78.7,84.7z"/>
				<path class="st4" d="M107.1,77.2c-1-0.7-2.3-0.5-3,0.5c-0.6,0.9-0.5,2.1,0.3,2.8c7.2,5.8,8.3,16.4,2.5,23.6
					c-5.6,6.9-15.6,8.3-22.8,3.1c-0.9-0.7-2.3-0.6-3,0.3s-0.6,2.3,0.3,3c0.1,0.1,0.1,0.1,0.2,0.1c9.2,7,22.4,5.3,29.4-4
					C118.1,97.4,116.3,84.2,107.1,77.2L107.1,77.2z"/>
				<path class="st4" d="M97.1,34.3c-1.2,0.1-2.1,1.1-2,2.3c0.1,1.1,0.9,1.9,2,2c9.3,0,16.7,7.5,16.7,16.8c0,9.3-7.5,16.7-16.8,16.7
					c-9.3,0-16.7-7.5-16.7-16.8c0-6.2,3.4-11.8,8.8-14.7c1-0.6,1.4-1.8,0.9-2.9c-0.6-1-1.8-1.4-2.9-0.9l0,0
					c-10.2,5.5-14,18.2-8.5,28.4s18.2,14,28.4,8.5s14-18.2,8.5-28.4C111.9,38.6,104.8,34.4,97.1,34.3L97.1,34.3z"/>
				<path class="st4" d="M80.4,98.9c0-11.6-9.4-21-21-21c-1.2-0.1-2.2,0.8-2.3,2c-0.1,1.2,0.8,2.2,2,2.3c0.1,0,0.2,0,0.3,0
					c9.2,0,16.7,7.4,16.8,16.7c0,9.2-7.4,16.7-16.7,16.8S42.7,108.2,42.7,99c0-6.2,3.4-11.8,8.8-14.8c1.1-0.5,1.6-1.7,1.1-2.8
					c-0.5-1.1-1.7-1.6-2.8-1.1c-0.1,0-0.2,0.1-0.3,0.1c-10.2,5.5-14.1,18.2-8.6,28.4S59,123,69.3,117.5
					C76.1,113.8,80.4,106.7,80.4,98.9L80.4,98.9z"/>
				<path class="st4" d="M75.5,123.6c-1.2,0.1-2.1,1.1-2,2.3c0.1,1.1,0.9,1.9,2,2c9.2,0,16.7,7.5,16.7,16.8
					c0,9.2-7.5,16.7-16.8,16.7c-9.2,0-16.7-7.5-16.7-16.8c0-6.3,3.5-12,9.1-14.9c1-0.6,1.4-1.8,0.9-2.9c-0.6-1-1.8-1.4-2.9-0.9
					c-10.3,5.3-14.4,18-9.1,28.3s18,14.4,28.3,9.1c10.3-5.3,14.4-18,9.1-28.3C90.5,128,83.3,123.6,75.5,123.6L75.5,123.6z"/>
				<path class="st4" d="M140.6,80.9c-1.2-0.1-2.2,0.8-2.3,2c-0.1,1.2,0.8,2.2,2,2.3c0.1,0,0.2,0,0.3,0c9.2,0,16.7,7.5,16.7,16.8
					s-7.5,16.7-16.8,16.7c-9.2,0-16.7-7.5-16.7-16.8c0-6.6,3.9-12.6,10-15.3c1.1-0.5,1.6-1.7,1.1-2.8s-1.7-1.6-2.8-1.1
					c-10.6,4.7-15.5,17-10.8,27.7s17,15.5,27.7,10.8c10.6-4.7,15.5-17,10.8-27.7C156.5,85.8,149,80.9,140.6,80.9z"/>
				<path class="st1" d="M131.3,102.1c-0.1,0-0.3,0-0.4,0c-1.1-0.2-1.9-1.4-1.7-2.5c0,0,0,0,0,0c1-4.6,4.6-8.2,9.3-9
					c1.1-0.2,2.2,0.6,2.5,1.7c0.2,1.2-0.6,2.3-1.7,2.4c0,0,0,0,0,0c-2.9,0.5-5.2,2.8-5.9,5.7C133.2,101.4,132.3,102.1,131.3,102.1z"
					/>
			</g>
		</g>
	</g>
</g>
</svg>
