<?xml version="1.0" encoding="utf-8"?>
<!-- Generator: Adobe Illustrator 25.0.0, SVG Export Plug-In . SVG Version: 6.00 Build 0)  -->
<svg version="1.1" id="Layer_1" xmlns="http://www.w3.org/2000/svg" xmlns:xlink="http://www.w3.org/1999/xlink" x="0px" y="0px"
	 viewBox="0 0 200 200" style="enable-background:new 0 0 200 200;" xml:space="preserve">
<style type="text/css">
	.st0{clip-path:url(#SVGID_2_);}
	.st1{fill:#FFFFFF;}
	.st2{fill:#EBCB7A;}
	.st3{fill:#694828;}
</style>
<g id="Layer_2_1_">
	<g id="Layer_1-2">
		<g>
			<defs>
				<circle id="SVGID_1_" cx="100" cy="100" r="100"/>
			</defs>
			<clipPath id="SVGID_2_">
				<use xlink:href="#SVGID_1_"  style="overflow:visible;"/>
			</clipPath>
			<g class="st0">
				<rect x="-59.5" y="-28.1" class="st1" width="319" height="256.3"/>
				<path class="st2" d="M158,94.8c-0.7-11.6-13.8-17.6-26.1-9.2s-20.6,33.6-4.8,39.8C142.1,131.2,158.9,108.3,158,94.8z"/>
				<path class="st2" d="M89.2,63.2C80.5,52,55.6,51.7,50.8,66.9S59.2,98,77.2,95.6S97.8,74.2,89.2,63.2z"/>
				<path class="st2" d="M104,130.2c-0.2-7.2-11.9-13.4-28.4-11.9S48.5,128.6,51,137.4s12.5,16.5,32,14.1
					C100.1,149.3,104.1,137.4,104,130.2z"/>
				<path class="st3" d="M160.3,91.6c-0.6-5.8-3.6-13.7-14.3-18.1c-5.1-2.1-10.8-1.8-16.4,0.7c-1,0.5-1.5,1.8-0.9,2.9
					c0.5,1,1.7,1.4,2.7,1c4.5-2.1,9-2.3,13-0.7c6.9,2.9,11,7.9,11.6,14.6c1,9.9-5.4,22.3-15,28.8c-3.7,2.5-11.1,6.2-18.7,2.3
					c-5.5-2.9-8.7-7.3-9.5-13.1c-1.2-8.7,3.5-19.8,11.4-27c0.8-0.8,0.8-2.2,0-3c-0.8-0.8-2-0.8-2.8-0.1c-9,8.2-14,20.6-12.7,30.7
					c0.9,7.1,5.3,13.2,11.7,16.3c2.8,1.5,5.9,2.2,9,2.2c5-0.1,9.9-1.8,14-4.8C154.3,117.1,161.5,103,160.3,91.6z"/>
				<path class="st3" d="M119.9,105.4c0.2,0.1,0.4,0.1,0.6,0.1c0.9,0,1.7-0.6,2-1.5c1.6-4.6,4-8.9,7.2-12.7c0.7-0.9,0.6-2.3-0.3-3
					c-0.8-0.7-2.1-0.6-2.9,0.1c-3.6,4.2-6.3,9-8.1,14.3C118.1,103.9,118.8,105,119.9,105.4z"/>
				<path class="st3" d="M96,111.7c-7.8-4.8-18.8-6.2-28.8-3.7c-1.1,0.4-1.7,1.6-1.4,2.7c0.3,1,1.3,1.6,2.4,1.5
					c8.8-2.2,18.8-0.9,25.5,3.2c3.9,2.2,6.8,6,7.9,10.3c1.7,7.3-0.1,13.5-5,17.9c-7.3,6.4-20.9,8.1-31.7,4.1
					c-4.4-1.6-12-5.7-13.2-14.5c-1.4-9.8,4.1-15.2,8.9-18c1-0.6,1.3-1.9,0.7-2.9c-0.6-1-1.8-1.3-2.8-0.7
					c-8.4,4.9-12.2,12.8-10.9,22.2c1.1,8.1,6.8,14.5,16,17.9c4.4,1.6,9.1,2.4,13.9,2.4c8.4,0,16.6-2.6,22.1-7.4
					c4.3-3.8,9-10.7,6.4-22C104.4,119.2,100.9,114.5,96,111.7z"/>
				<path class="st3" d="M67.2,122.8c0.2,0,0.4,0,0.6-0.1c4.7-1.4,9.6-1.8,14.5-1.4c1.2,0.1,2.2-0.8,2.3-2c0.1-1.1-0.7-2-1.7-2.2
					c-5.5-0.6-11,0-16.3,1.5c-1.1,0.4-1.7,1.6-1.3,2.7C65.5,122.2,66.3,122.8,67.2,122.8z"/>
				<path class="st3" d="M68.4,97.5c2,0.4,4.1,0.7,6.2,0.7c6.1,0.2,12-2.3,16.1-6.9c7.2-8.1,7.7-18.2,1.3-27.9
					C84.6,52,67.8,42.7,54.6,47c-1.1,0.2-1.9,1.3-1.7,2.5s1.3,1.9,2.5,1.7c0.2,0,0.3-0.1,0.5-0.2c10.1-3.2,25.4,3.6,32.6,14.7
					c3,4.7,7,13.8-1,22.8c-5.7,6.4-13.9,5.8-18.3,4.9c-11-2.3-21.5-11-24.5-20.2c-2-6.1-0.6-12,4-17.2c0.8-0.9,0.7-2.2-0.2-3
					c-0.9-0.8-2.2-0.7-3,0.2c-7.2,8-6.6,16-4.9,21.3C44.2,85.2,55.8,94.9,68.4,97.5z"/>
				<path class="st3" d="M77,68.8c0.4,0.4,1,0.7,1.6,0.7c0.5,0,1.1-0.2,1.4-0.6c0.8-0.8,0.9-2.1,0.1-3c-3.9-3.9-8.4-7.1-13.5-9.3
					c-1.1-0.4-2.3,0.1-2.8,1.2c-0.4,1.1,0.1,2.3,1.2,2.8C69.5,62.5,73.6,65.3,77,68.8z"/>
			</g>
		</g>
	</g>
</g>
</svg>
