<?xml version="1.0" encoding="utf-8"?>
<!-- Generator: Adobe Illustrator 25.0.0, SVG Export Plug-In . SVG Version: 6.00 Build 0)  -->
<svg version="1.1" id="Layer_1" xmlns="http://www.w3.org/2000/svg" xmlns:xlink="http://www.w3.org/1999/xlink" x="0px" y="0px"
	 viewBox="0 0 200 200" style="enable-background:new 0 0 200 200;" xml:space="preserve">
<style type="text/css">
	.st0{clip-path:url(#SVGID_2_);}
	.st1{fill:#FFFFFF;}
	.st2{fill:#E3E3E3;}
	.st3{fill:#694828;}
</style>
<g id="Layer_2_1_">
	<g id="Layer_1-2">
		<g>
			<defs>
				<circle id="SVGID_1_" cx="100" cy="100" r="100"/>
			</defs>
			<clipPath id="SVGID_2_">
				<use xlink:href="#SVGID_1_"  style="overflow:visible;"/>
			</clipPath>
			<g class="st0">
				<rect x="-59.5" y="-28.1" class="st1" width="319" height="256.3"/>
				<path class="st2" d="M150.9,81.5c0,0,16,14.5,22.2,14.5c0,0-8.6,4.2-15.4,3.8s-15.6-4-13.6-7.2S150.9,81.5,150.9,81.5z"/>
				<path class="st2" d="M118,49.4c0,0-15.8-19.5-15-25.8c0,0-3.8,9.8-2.7,19.3s4.2,11.7,7.1,11.1C110.3,53.3,118,49.4,118,49.4z"/>
				<path class="st2" d="M114,59.5c0,0-22.3,11.9-35,25.9c-2,2.2,19.6,30.3,28.7,32.6c3.3,0.8-11.5-13.4-16.3-23.7
					C87.6,86,94,78.7,101.7,71.6C107.7,66.2,121.5,56,114,59.5z"/>
				<path class="st2" d="M97.5,124.8c-0.7,0-11.3,0.2-17.1-5.3s-6.6-18.6-6.6-18.6L97.5,124.8z"/>
				<path class="st2" d="M165.1,116.2c-1.6-2.2-20.2,10.6-16,14.8C153.3,135.1,167.9,119.9,165.1,116.2z"/>
				<path class="st2" d="M84.3,34.5C82.4,31.8,64.1,47,67.1,50.8C70.2,54.7,86.8,37.9,84.3,34.5z"/>
				<path class="st3" d="M172.2,71.6c-2.2-3.1-4.6-6.4-6.6-9.7c-0.7-0.9-2.1-1.1-3-0.3c-0.8,0.6-1,1.7-0.6,2.5
					c2.1,3.5,4.5,6.8,6.8,10c5.9,8.3,11.1,15.5,8.1,20.9c-2.2,4-12.2,4.6-26.9,1.5c-1.2-0.2-2.2,0.6-2.4,1.8
					c-0.2,1.1,0.5,2.1,1.5,2.4c5.5,1.3,11.2,2,16.8,2.1c7.7,0,12.6-1.9,14.7-5.8C184.8,89.3,178.7,80.7,172.2,71.6z"/>
				<path class="st3" d="M101.2,51.6c0.1,0,0.3,0,0.4,0c1.2-0.2,1.9-1.3,1.7-2.5c-2.8-14.1-2.2-23.8,1.7-25.9
					c5.4-2.9,12.6,2.2,20.9,8.1c3.4,2.4,6.8,4.9,10.5,7.1c1,0.6,2.3,0.2,2.9-0.8c0.5-1,0.2-2.2-0.7-2.8c-3.6-2.1-7-4.6-10.3-6.9
					c-9.1-6.5-17.6-12.6-25.4-8.4c-6,3.2-7.3,13.5-3.9,30.4C99.3,50.9,100.1,51.6,101.2,51.6z"/>
				<path class="st3" d="M68.2,83c-2.2,2.7-2.9,10.4,17.7,31.1c15.2,15.1,23.3,18.8,27.7,18.8c1.2,0.1,2.4-0.3,3.4-1.1
					c22.4-18.4,43.5-64.5,44.4-82.6c0.2-4-0.5-6.8-2.2-8.5c-0.8-0.9-2.1-1-3-0.3s-1,2.1-0.3,3c0.1,0.1,0.2,0.2,0.3,0.3
					c0.3,0.3,1.1,1.5,0.9,5.2c-0.9,17.4-21.9,62.3-42.9,79.5c-1.8,1.5-11.7-3.7-25.4-17.4S70,87.5,71.5,85.7
					c16.2-19.8,56.3-39.1,75.3-42.4c1.2-0.1,2-1.2,1.9-2.4s-1.2-2-2.4-1.9c-0.1,0-0.2,0-0.2,0C126.6,42.5,85.7,61.7,68.2,83z"/>
				<path class="st3" d="M109.1,173.3c-0.1-0.1-13.7-10.4-14.5-22.1c-0.4-6.3,2.5-12.3,5-16.2c0.6-1,0.2-2.3-0.8-2.9
					c-0.9-0.5-2.1-0.3-2.8,0.6c-2.8,4.5-6.1,11.3-5.7,18.8c0.4,5.5,3,10.7,6,14.8c-4.6-3.6-9.1-8.8-10.7-16.1v-0.2
					c-0.3-1.1-1.5-1.8-2.6-1.5c-1.1,0.3-1.7,1.3-1.6,2.4l0.1,0.2c4.3,18.9,24.8,25.5,25.7,25.8c0.2,0.1,0.4,0.1,0.6,0.1
					c1.2,0,2.1-0.9,2.1-2.1C110,174.3,109.7,173.7,109.1,173.3L109.1,173.3z"/>
				<path class="st3" d="M80.2,153.2c-1.5-11.6,8.6-21.5,8.7-21.6c0.9-0.8,1-2.1,0.3-3c-0.8-0.9-2.1-1-3-0.3
					c-0.1,0.1-0.1,0.1-0.2,0.2c-0.5,0.5-11.7,11.5-9.9,25.2c0.8,6,3.8,12.1,6.9,17.1c-5-4.3-10.3-10.3-11.7-17.6
					c-1.2-6.4-0.6-13,1.7-19.1c0.4-1.1-0.1-2.3-1.2-2.8c-1.1-0.4-2.3,0.1-2.8,1.2c-2.6,6.8-3.3,14.2-1.9,21.4
					c3.4,17.1,23.7,27.4,24.5,27.8c0.3,0.2,0.7,0.2,1,0.2c1.2,0,2.1-1,2-2.2c0-0.5-0.2-1-0.6-1.4C93.9,178.3,81.7,165.2,80.2,153.2z
					"/>
				<path class="st3" d="M68.3,128.5c-0.4-1.1-1.6-1.7-2.7-1.3c0,0,0,0,0,0c-6,2.3-12.4,2.8-18.7,1.6c-7.3-1.4-13.3-6.7-17.6-11.7
					c4.9,3.1,11,6.1,17,6.9c13.8,1.8,24.8-9.5,25.2-9.9c0.8-0.8,0.8-2.2,0-3c-0.8-0.8-2.2-0.8-3,0c-0.1,0.1-10,10.2-21.6,8.7
					c-12-1.6-25.1-13.7-25.2-13.8c-0.9-0.8-2.2-0.7-3,0.1c-0.6,0.6-0.7,1.6-0.3,2.4c0.4,0.9,10.7,21.2,27.8,24.5
					c2.4,0.5,4.8,0.7,7.3,0.7c4.7,0,9.3-0.8,13.7-2.5C68.1,130.9,68.7,129.6,68.3,128.5C68.3,128.5,68.3,128.5,68.3,128.5z"/>
				<path class="st3" d="M48.4,118.3c0.2,0,0.3,0.1,0.5,0.1c1.2,0,2.1-1,2.1-2.2c0-1-0.7-1.8-1.6-2c-7-1.7-12.1-6.1-15.6-10.7
					c4.2,3,9.3,5.7,14.8,6s12-1.5,18.2-5.3c1-0.7,1.2-2,0.5-3c-0.6-0.9-1.8-1.2-2.7-0.7c-3.8,2.3-9.6,5.1-15.7,4.7
					c-11.7-0.8-22-14.3-22-14.5c-0.5-1-1.8-1.5-2.9-0.9s-1.5,1.8-0.9,2.9l0,0C23.3,93.6,29.8,113.8,48.4,118.3z"/>
				<path class="st3" d="M169.3,109c-0.8,0.8-0.8,2.2,0.1,3c0,0,0,0,0,0c1.1,1.8-3.8,12.7-8.4,17.3c-4.2,4.2-13.5,7.5-13.6,7.5
					c-0.4,0.1-0.7,0.3-0.9,0.6c-6.8,7.9-16.6,17.6-27.9,17.6c-2,0-4-0.3-5.9-0.9c-4.3-1.3-8.2-3.6-11.4-6.8c-0.9-0.8-2.2-0.6-3,0.3
					c-0.7,0.8-0.7,1.9,0,2.7c3.6,3.7,8.2,6.4,13.1,7.8c2.3,0.7,4.8,1.1,7.2,1.1c14.4,0,25.8-12.9,30.8-18.7c2.2-0.8,10.4-4,14.6-8.3
					c3.9-3.9,9.9-14.1,9.8-19.7c0.1-1.4-0.5-2.7-1.4-3.7C171.6,108.1,170.2,108.1,169.3,109C169.4,109,169.4,109,169.3,109z"/>
				<path class="st3" d="M113.9,145.7c-3.5-1.2-6.6-3.4-8.9-6.3c-0.7-1-2-1.2-3-0.6s-1.2,2-0.6,3c0,0.1,0.1,0.1,0.2,0.2
					c2.8,3.5,6.5,6.2,10.8,7.7c1.9,0.7,3.9,1.1,5.8,1.1c13.3,0,24.6-15.7,25.1-16.5c0.1-0.2,0.2-0.3,0.3-0.5c0-0.1,3.4-9.3,8.7-14.6
					c2-2,6-4.3,10.2-5.9c1.1-0.4,1.7-1.6,1.3-2.7s-1.6-1.7-2.7-1.3l0,0c-3.7,1.4-8.7,3.9-11.7,6.8c-5.4,5.4-8.9,14.1-9.6,15.9
					C138.2,134.1,125.7,150.2,113.9,145.7z"/>
				<path class="st3" d="M50.1,102.1c0.4,0.4,0.9,0.6,1.5,0.6c0.6,0,1.2-0.2,1.6-0.7c0.8-0.9,0.8-2.2-0.1-3
					c-3.4-3.2-5.8-7.2-7.1-11.7c-2-6.6-2.6-17.3,16.7-33.9c0.3-0.2,0.5-0.6,0.6-0.9c0-0.1,3.3-9.4,7.5-13.6c3.1-2.7,6.5-5,10.3-6.7
					c1.1-0.4,1.7-1.6,1.2-2.7c-0.4-1.1-1.6-1.7-2.7-1.2c-0.1,0-0.2,0.1-0.2,0.1c-4.2,1.9-8.1,4.4-11.5,7.5
					c-4.3,4.3-7.5,12.4-8.3,14.6c-6.7,5.8-23,20.3-17.5,38C43.4,93.8,46.2,98.4,50.1,102.1z"/>
				<path class="st3" d="M80.8,47.7c-5.3,5.3-14.5,8.6-14.6,8.7c-0.2,0.1-0.4,0.2-0.5,0.3c-0.9,0.6-21.4,15.4-15.4,31
					c1.2,3.4,3.2,6.5,5.7,9.1c0.4,0.4,0.9,0.6,1.5,0.6c0.6,0,1.1-0.2,1.5-0.6c0.8-0.8,0.8-2.2,0-3c-2.1-2.2-3.7-4.8-4.8-7.6
					C49.8,74.3,65.9,61.8,68,60.3c1.8-0.7,10.4-4.1,15.9-9.5c4.6-4.7,11.2-18.9,7.3-23.1c-0.8-0.8-2.1-0.9-3-0.1
					c-0.9,0.8-0.9,2.1-0.2,2.9c0,0,0,0,0.1,0.1C89.1,32.4,85.2,43.3,80.8,47.7z"/>
				<path class="st3" d="M142.7,63.6c0,0.1-4.6,12.2-11.5,21.4c-0.7,0.9-0.5,2.3,0.4,3c0.4,0.3,0.8,0.4,1.3,0.4
					c0.7,0,1.3-0.3,1.7-0.8c7.2-9.8,11.9-22,12.1-22.5c0.4-1.1-0.1-2.3-1.2-2.8S143,62.5,142.7,63.6L142.7,63.6L142.7,63.6z"/>
			</g>
		</g>
	</g>
</g>
</svg>
