<?xml version="1.0" encoding="utf-8"?>
<!-- Generator: Adobe Illustrator 25.0.0, SVG Export Plug-In . SVG Version: 6.00 Build 0)  -->
<svg version="1.1" id="Layer_1" xmlns="http://www.w3.org/2000/svg" xmlns:xlink="http://www.w3.org/1999/xlink" x="0px" y="0px"
	 viewBox="0 0 200 200" style="enable-background:new 0 0 200 200;" xml:space="preserve">
<style type="text/css">
	.st0{clip-path:url(#SVGID_2_);}
	.st1{fill:#FFFFFF;}
	.st2{fill:#F7A600;}
	.st3{fill:#52AE32;}
	.st4{fill:#694828;}
</style>
<g id="Layer_2_1_">
	<g id="Layer_1-2">
		<g>
			<defs>
				<circle id="SVGID_1_" cx="100" cy="100" r="100"/>
			</defs>
			<clipPath id="SVGID_2_">
				<use xlink:href="#SVGID_1_"  style="overflow:visible;"/>
			</clipPath>
			<g class="st0">
				<rect x="-59.5" y="-28.1" class="st1" width="319" height="256.3"/>
				<path class="st2" d="M87.9,70.6c0,0-62,11.6-43.9,76c6,21.3,51.3,28.2,82.4,19.8c31.5-8.5,43.3-35.4,36.7-60.9
					s-43.1-34.8-52.3-36.9c0,0-0.7,7.5-11.7,7.8C89.6,76.6,87.9,70.6,87.9,70.6z"/>
				<path class="st3" d="M112,42.9c0,0,26-11.7,54.6-4.3c0,0-14,20.2-31.5,19c-17.5-1.1-26.2-11.3-26.2-11.3s-0.8,0.9-1.8,4.7
					c-1.6,5.7-2.7,10.7-2.7,10.7s9,4.2,5,10.6s-15.2,3-14.7-6.7c0.4-7.7,6.1-19.4,8.4-21.2C105.6,42.2,109,41.7,112,42.9z"/>
				<path class="st4" d="M114.8,59.6c-1.1-0.2-2.3,0.5-2.5,1.6c-0.2,1.1,0.5,2.3,1.6,2.5c28.2,6.1,48.7,28.5,48.7,53.3
					c0,33.1-22,50.6-63.5,50.6s-63.5-17.5-63.5-50.6c0-24.9,20.5-47.4,48.9-53.4c1.1-0.2,1.9-1.4,1.6-2.5c-0.2-1.1-1.4-1.9-2.5-1.6
					C53.3,66,31.3,90.2,31.3,117.1c0,16.7,5.3,30,15.7,39.3c11.5,10.3,29,15.5,52.1,15.5s40.6-5.2,52.1-15.5
					c10.4-9.4,15.7-22.6,15.7-39.3C166.8,90.3,145,66.1,114.8,59.6z"/>
				<path class="st4" d="M78.7,89.2c-2.2,0-4,1.8-4,4s1.8,4,4,4s4-1.8,4-4S80.9,89.2,78.7,89.2z"/>
				<path class="st4" d="M119.5,97.1c2.2,0,4-1.8,4-4s-1.8-4-4-4s-4,1.8-4,4S117.3,97.1,119.5,97.1z"/>
				<path class="st4" d="M78.7,143.7c-2.2,0-3.9,1.8-3.9,4c0,2.2,1.8,3.9,4,3.9c2.1,0,3.9-1.8,3.9-3.9
					C82.7,145.5,80.9,143.7,78.7,143.7z"/>
				<path class="st4" d="M119.5,151.6c2.2,0,4-1.8,4-4c0-2.2-1.8-4-4-4s-4,1.8-4,4c0,0,0,0,0,0C115.5,149.8,117.3,151.6,119.5,151.6
					z"/>
				<path class="st4" d="M54.3,118.3c0,2.2,1.8,3.9,4,3.9c2.2,0,3.9-1.8,3.9-4c0-2.1-1.8-3.9-3.9-3.9
					C56.1,114.3,54.3,116.1,54.3,118.3z"/>
				<path class="st4" d="M95.1,121.8c0,2.2,1.8,3.9,4,3.9c2.2,0,3.9-1.8,3.9-4c0-2.2-1.8-3.9-3.9-3.9
					C96.9,117.9,95.1,119.7,95.1,121.8z"/>
				<path class="st4" d="M143.8,118.3c0-2.2-1.8-4-3.9-4s-3.9,1.8-3.9,3.9c0,2.2,1.8,4,3.9,4l0,0C142,122.2,143.8,120.5,143.8,118.3
					z"/>
				<path class="st4" d="M99.1,78.5c7.7,0,13.4-3.9,13.4-9.1c0-1.2-0.4-2.4-1-3.4c-0.7-1-2-1.2-3-0.6c-0.9,0.6-1.2,1.8-0.7,2.7
					c0.2,0.4,0.4,0.8,0.4,1.2c0,2.3-3.5,4.8-9.2,4.8s-9.2-2.5-9.2-4.8c0-0.4,0.1-0.8,0.4-1.2c0.5-1.1,0.1-2.3-1-2.9
					c-1-0.5-2.1-0.2-2.7,0.7c-0.6,1-0.9,2.1-0.9,3.3C85.6,74.6,91.4,78.5,99.1,78.5z"/>
				<path class="st4" d="M167.7,36.8c-2.6-1.5-5.3-2.9-8.1-4c-1.1-0.4-2.3,0.1-2.8,1.2c-0.4,1.1,0.1,2.3,1.2,2.8
					c2.3,1,4.2,1.9,5.5,2.6c-3.1,4.3-12,14.6-25.6,15.4c-11,0.7-18.6-3.2-23-6.6c-0.9-0.7-2.3-0.5-3,0.4s-0.5,2.3,0.4,3
					c6.6,5,14.8,7.6,23.1,7.5c0.9,0,1.9,0,2.8-0.1c19.1-1.2,29.7-18.6,30.1-19.3C169,38.7,168.7,37.4,167.7,36.8z"/>
				<path class="st4" d="M111.9,42.7c0.5,0,0.9-0.2,1.3-0.5c4.2-3.3,12.6-9,21.8-9.8c5.4-0.4,10.8,0.3,15.9,1.8
					c1.1,0.4,2.3-0.2,2.7-1.3c0.4-1.1-0.2-2.3-1.3-2.7c-0.1,0-0.1,0-0.2-0.1c-5.6-1.7-11.5-2.4-17.4-2c-9.9,0.9-18.6,6.3-24.1,10.7
					c-0.9,0.7-1.1,2.1-0.3,3C110.7,42.4,111.3,42.7,111.9,42.7L111.9,42.7z"/>
				<path class="st4" d="M118.9,42.1c-1.1,0.2-1.9,1.3-1.7,2.5c0.2,1,1.1,1.7,2.1,1.7c0.1,0,0.3,0,0.4,0c11.2-2.2,22.6-3.4,34-3.3
					h0.1c1.2-0.1,2.1-1.1,2-2.3c-0.1-1.1-0.9-1.9-2-2C142.1,38.6,130.4,39.8,118.9,42.1z"/>
				<path class="st4" d="M92.9,67.5c0.4,1.4,2.2,3.8,6.2,3.8c4,0,5.9-2.3,6.4-3.7c0.1-0.2,0.1-0.4,0.1-0.7
					c0.5-8.6,3.5-17.3,4.8-20.7c0.4-1.1-0.1-2.3-1.2-2.8c-1.1-0.4-2.3,0.1-2.8,1.2c-1.3,3.5-4.5,12.4-5,21.4
					c-0.6,0.6-1.5,0.9-2.3,0.8c-0.8,0.1-1.5-0.2-2.1-0.7c0-2.5-0.1-14.1,1.9-19.7c0.7-0.2,1.4-0.4,2.1-0.5c1.2-0.2,1.9-1.3,1.7-2.5
					c-0.2-1.1-1.2-1.8-2.3-1.7c-2.1,0.3-4.6,0.8-5.4,2.8c-2.7,7-2.3,21.6-2.3,22.2C92.8,67.1,92.8,67.3,92.9,67.5z"/>
			</g>
		</g>
	</g>
</g>
</svg>
