<?xml version="1.0" encoding="utf-8"?>
<!-- Generator: Adobe Illustrator 25.0.0, SVG Export Plug-In . SVG Version: 6.00 Build 0)  -->
<svg version="1.1" id="Layer_1" xmlns="http://www.w3.org/2000/svg" xmlns:xlink="http://www.w3.org/1999/xlink" x="0px" y="0px"
	 viewBox="0 0 200 200" style="enable-background:new 0 0 200 200;" xml:space="preserve">
<style type="text/css">
	.st0{clip-path:url(#SVGID_2_);}
	.st1{fill:#FFFFFF;}
	.st2{fill:#AB8248;}
	.st3{fill:#694828;}
</style>
<g id="Layer_2_1_">
	<g id="Layer_1-2">
		<g>
			<defs>
				<circle id="SVGID_1_" cx="100" cy="100" r="100"/>
			</defs>
			<clipPath id="SVGID_2_">
				<use xlink:href="#SVGID_1_"  style="overflow:visible;"/>
			</clipPath>
			<g class="st0">
				<rect x="-59.5" y="-28.1" class="st1" width="319" height="256.3"/>
				<path class="st2" d="M157.7,86.7c-4.9-20.6-20.6-26.6-29.6-27.2s-19.4,3.2-21.1,9.1c0.9,6.7,1.3,13.5,1.4,20.2
					c0,0-4.2-0.8-7.5-13.5c-3.6-13.8-6.3-16.4-17.3-15.7c-11,0.7-35.4,4.9-41.6,29.6c-6.2,25.1,2.3,52,25,61
					c18.6,7.4,21.7,5,24.6,7.1c10.2,7.4,12.7,0.1,17.3-1c10.3-2.4,32.6-4.1,44.8-24.3C162.7,117.2,160.6,98.7,157.7,86.7z"/>
				<path class="st3" d="M80.6,152.6c-27-5.6-40.7-24-38.4-51.8c2.1-25.9,13.2-41.9,33.1-47.6c1.1-0.4,1.7-1.6,1.3-2.7
					c-0.4-1-1.4-1.6-2.5-1.4c-21.8,6.2-34,23.5-36.2,51.3c-2.4,29.8,12.9,50.4,41.8,56.3c0.1,0,0.3,0,0.4,0c1.2,0,2.1-1,2.1-2.2
					C82.3,153.6,81.6,152.8,80.6,152.6L80.6,152.6z"/>
				<path class="st3" d="M162,100.5c-2.2-28.2-14.7-45.5-37-51.5c-1.2-0.1-2.2,0.8-2.3,2c-0.1,0.9,0.4,1.7,1.3,2.1
					c20.4,5.5,31.8,21.6,33.9,47.8c1.1,14.5-2.4,27-10.2,36.1c-8.1,9.5-21.1,15.4-37.3,17c-2,0.4-3.9,1.2-5.7,2.3
					c-1.7,1-3.4,2-4.9,1.9c-2.3,0-4-1.1-5.8-2.2c-1.4-1.1-3.1-1.8-4.9-2.1c-1.2,0-2.2,0.9-2.2,2.1c0,1.1,0.7,2,1.8,2.2
					c1.1,0.3,2.1,0.8,3,1.5c2.3,1.7,5.1,2.7,8,2.9h0.1c2.5,0,4.9-1.3,6.9-2.5c1.2-0.8,2.6-1.4,4-1.8
					C145.4,154.6,164.6,133.1,162,100.5z"/>
				<path class="st3" d="M100,41.8c3.4,0,6.1,2.5,8.6,5c2.3,2.2,4.5,4.3,7.3,4.7h0.3c1.2,0,2.2-0.9,2.2-2c0-1.1-0.8-2.1-1.9-2.2
					c-1.4-0.2-3.1-1.8-5-3.5c-2.8-2.7-6.4-6.2-11.5-6.2s-8.7,3.4-11.6,6.2c-1.8,1.7-3.5,3.3-5,3.5c-1.2,0.2-2,1.2-1.8,2.4
					c0.2,1.2,1.2,2,2.4,1.8l0,0c2.8-0.4,5-2.5,7.3-4.7C93.9,44.3,96.6,41.8,100,41.8z"/>
				<path class="st3" d="M102.8,145.9c0.1,0,0.3,0,0.4,0c1,0,1.9-0.7,2.1-1.7c10.5-52.6,1.9-83.8,1.5-85.2c-0.4-1.1-1.6-1.7-2.7-1.3
					c-1,0.4-1.6,1.4-1.4,2.5c0,0.1,2.2,7.9,3.1,22c0.8,13,0.7,34.2-4.7,61.1C100.9,144.5,101.6,145.6,102.8,145.9
					C102.7,145.9,102.8,145.9,102.8,145.9z"/>
				<path class="st3" d="M95.2,125.3c0.1,0,0.3,0,0.4,0c1,0,1.9-0.7,2.1-1.8c2.2-12.5,2.9-25.3,2-37.9c-0.1-1.2-1.2-2-2.3-1.9
					c-1.2,0.1-2,1.2-1.9,2.3c0.8,12.3,0.1,24.7-2,36.8C93.2,124,94,125.1,95.2,125.3C95.1,125.3,95.1,125.3,95.2,125.3z"/>
				<path class="st3" d="M117.6,82.3c-1.2,0.2-1.9,1.3-1.7,2.5c0,0,0,0,0,0c1.8,12.9,1.2,26-1.7,38.7c-0.3,1.1,0.4,2.3,1.6,2.6
					c0.2,0,0.3,0.1,0.5,0.1c1,0,1.8-0.7,2.1-1.6c3.2-13.2,3.8-27,1.8-40.4C119.9,82.9,118.8,82.1,117.6,82.3
					C117.7,82.3,117.6,82.3,117.6,82.3z"/>
				<path class="st3" d="M57.1,82.2c-1.1-0.5-2.3-0.1-2.8,1c0,0,0,0,0,0c-0.3,0.6-7,15-2.4,36.2c0.2,1,1.1,1.7,2.1,1.7
					c0.1,0,0.3,0,0.5,0c1.1-0.2,1.9-1.4,1.6-2.5c-4.3-19.8,1.9-33.4,2-33.5C58.6,83.9,58.2,82.7,57.1,82.2
					C57.1,82.2,57.1,82.2,57.1,82.2z"/>
				<path class="st3" d="M147.1,118.4c0.2,0,0.3,0,0.5,0c1,0,1.8-0.7,2.1-1.6c3.8-16,0-27.1-0.2-27.6c-0.3-1.1-1.4-1.8-2.6-1.5
					c-1.1,0.3-1.8,1.4-1.5,2.6c0,0.1,0.1,0.3,0.1,0.4c0,0.1,3.6,10.4,0.1,25.2C145.2,116.9,145.9,118.1,147.1,118.4
					C147.1,118.4,147.1,118.4,147.1,118.4z"/>
			</g>
		</g>
	</g>
</g>
</svg>
