<svg xmlns="http://www.w3.org/2000/svg" xmlns:xlink="http://www.w3.org/1999/xlink" width="500" zoomAndPan="magnify" viewBox="0 0 375 374.999991" height="500" preserveAspectRatio="xMidYMid meet" version="1.0"><defs><g/><clipPath id="73a3ca3139"><path d="M 251 151.875 L 258 151.875 L 258 165 L 251 165 Z M 251 151.875 " clip-rule="nonzero"/></clipPath><clipPath id="a3144e540c"><path d="M 253 164 L 255 164 L 255 203.625 L 253 203.625 Z M 253 164 " clip-rule="nonzero"/></clipPath><clipPath id="a13f00060a"><path d="M 253 160 L 262.492188 160 L 262.492188 172 L 253 172 Z M 253 160 " clip-rule="nonzero"/></clipPath><clipPath id="d7ea23f0a3"><path d="M 253 169 L 262.492188 169 L 262.492188 180 L 253 180 Z M 253 169 " clip-rule="nonzero"/></clipPath><clipPath id="8aa73d7ad9"><path d="M 253 177 L 262.492188 177 L 262.492188 188 L 253 188 Z M 253 177 " clip-rule="nonzero"/></clipPath><clipPath id="1db8ebf341"><path d="M 253 185 L 262.492188 185 L 262.492188 196 L 253 196 Z M 253 185 " clip-rule="nonzero"/></clipPath><clipPath id="3c384ea395"><path d="M 104.503906 216.792969 L 270 216.792969 L 270 251.980469 L 104.503906 251.980469 Z M 104.503906 216.792969 " clip-rule="nonzero"/></clipPath></defs><rect x="-37.5" width="450" fill="#ffffff" y="-37.499999" height="449.999989" fill-opacity="1"/><rect x="-37.5" width="450" fill="#ffffff" y="-37.499999" height="449.999989" fill-opacity="1"/><rect x="-37.5" width="450" fill="#ffffff" y="-37.499999" height="449.999989" fill-opacity="1"/><g clip-path="url(#73a3ca3139)"><path fill="#000000" d="M 254.242188 152.898438 C 252.183594 155.457031 251.574219 158.085938 252.433594 160.722656 C 252.925781 162.246094 253.800781 163.359375 254.238281 163.851562 C 254.679688 163.359375 255.554688 162.246094 256.046875 160.722656 C 256.90625 158.085938 256.300781 155.457031 254.242188 152.898438 Z M 254.242188 164.828125 C 254.144531 164.828125 254.046875 164.792969 253.96875 164.71875 C 253.90625 164.664062 252.4375 163.269531 251.6875 161.003906 C 250.996094 158.902344 250.824219 155.640625 253.941406 152.019531 C 254.015625 151.933594 254.125 151.882812 254.238281 151.882812 C 254.355469 151.882812 254.464844 151.933594 254.539062 152.019531 C 257.65625 155.640625 257.484375 158.902344 256.792969 161.003906 C 256.042969 163.269531 254.574219 164.664062 254.511719 164.71875 C 254.433594 164.792969 254.335938 164.828125 254.242188 164.828125 Z M 254.242188 164.828125 " fill-opacity="1" fill-rule="evenodd"/></g><g clip-path="url(#a3144e540c)"><path fill="#000000" d="M 254.242188 203.617188 C 254.019531 203.617188 253.84375 203.4375 253.84375 203.21875 L 253.84375 164.429688 C 253.84375 164.210938 254.019531 164.03125 254.238281 164.03125 C 254.460938 164.03125 254.636719 164.210938 254.636719 164.429688 L 254.636719 203.21875 C 254.636719 203.4375 254.460938 203.617188 254.242188 203.617188 Z M 254.242188 203.617188 " fill-opacity="1" fill-rule="evenodd"/></g><g clip-path="url(#a13f00060a)"><path fill="#000000" d="M 254.242188 171.011719 C 254.03125 171.011719 253.855469 170.847656 253.84375 170.636719 C 253.832031 170.414062 254 170.230469 254.21875 170.21875 C 254.238281 170.21875 256.144531 170.101562 258 168.945312 C 260.347656 167.480469 261.566406 165.070312 261.628906 161.785156 C 255.992188 162.890625 254.824219 166.871094 254.636719 169.1875 C 254.617188 169.40625 254.425781 169.570312 254.207031 169.550781 C 253.988281 169.53125 253.828125 169.339844 253.84375 169.121094 C 253.945312 167.90625 254.308594 166.121094 255.496094 164.5 C 256.894531 162.589844 259.070312 161.386719 261.964844 160.917969 C 262.078125 160.898438 262.191406 160.933594 262.28125 161.007812 C 262.371094 161.082031 262.421875 161.191406 262.421875 161.304688 C 262.488281 166.089844 260.265625 168.476562 258.390625 169.640625 C 256.363281 170.890625 254.34375 171.007812 254.261719 171.011719 C 254.253906 171.011719 254.246094 171.011719 254.242188 171.011719 Z M 254.242188 171.011719 " fill-opacity="1" fill-rule="evenodd"/></g><path fill="#000000" d="M 254.242188 171.011719 C 254.234375 171.011719 254.226562 171.011719 254.21875 171.011719 C 254.136719 171.007812 252.117188 170.890625 250.089844 169.640625 C 248.214844 168.476562 245.992188 166.089844 246.058594 161.304688 C 246.058594 161.191406 246.109375 161.082031 246.199219 161.007812 C 246.289062 160.933594 246.402344 160.898438 246.515625 160.917969 C 249.410156 161.386719 251.585938 162.589844 252.984375 164.5 C 254.171875 166.121094 254.535156 167.90625 254.636719 169.121094 C 254.652344 169.339844 254.492188 169.53125 254.273438 169.550781 C 254.054688 169.566406 253.863281 169.40625 253.84375 169.1875 C 253.65625 166.871094 252.488281 162.890625 246.851562 161.785156 C 246.914062 165.085938 248.140625 167.496094 250.507812 168.960938 C 252.363281 170.109375 254.242188 170.21875 254.261719 170.21875 C 254.480469 170.230469 254.648438 170.417969 254.636719 170.636719 C 254.625 170.847656 254.449219 171.011719 254.242188 171.011719 Z M 254.242188 171.011719 " fill-opacity="1" fill-rule="evenodd"/><g clip-path="url(#d7ea23f0a3)"><path fill="#000000" d="M 254.242188 179.21875 C 254.03125 179.21875 253.855469 179.054688 253.84375 178.84375 C 253.832031 178.625 254 178.4375 254.21875 178.425781 C 254.238281 178.425781 256.144531 178.308594 258 177.152344 C 260.347656 175.6875 261.566406 173.28125 261.628906 169.992188 C 255.992188 171.101562 254.824219 175.078125 254.636719 177.394531 C 254.617188 177.613281 254.425781 177.773438 254.207031 177.757812 C 253.988281 177.738281 253.828125 177.546875 253.84375 177.328125 C 253.945312 176.113281 254.308594 174.328125 255.496094 172.707031 C 256.894531 170.796875 259.070312 169.59375 261.964844 169.125 C 262.078125 169.105469 262.191406 169.140625 262.28125 169.214844 C 262.371094 169.289062 262.421875 169.398438 262.421875 169.511719 C 262.488281 174.296875 260.265625 176.683594 258.390625 177.847656 C 256.363281 179.097656 254.34375 179.214844 254.261719 179.21875 C 254.253906 179.21875 254.246094 179.21875 254.242188 179.21875 Z M 254.242188 179.21875 " fill-opacity="1" fill-rule="evenodd"/></g><path fill="#000000" d="M 254.242188 179.21875 C 254.234375 179.21875 254.226562 179.21875 254.21875 179.21875 C 254.136719 179.214844 252.117188 179.097656 250.089844 177.847656 C 248.214844 176.683594 245.992188 174.296875 246.058594 169.511719 C 246.058594 169.398438 246.109375 169.289062 246.199219 169.214844 C 246.289062 169.140625 246.402344 169.105469 246.515625 169.125 C 249.410156 169.59375 251.585938 170.796875 252.984375 172.707031 C 254.171875 174.328125 254.535156 176.113281 254.636719 177.328125 C 254.652344 177.546875 254.492188 177.738281 254.273438 177.757812 C 254.054688 177.773438 253.863281 177.613281 253.84375 177.394531 C 253.65625 175.078125 252.488281 171.101562 246.851562 169.992188 C 246.914062 173.292969 248.140625 175.707031 250.507812 177.167969 C 252.363281 178.316406 254.242188 178.425781 254.261719 178.425781 C 254.480469 178.4375 254.648438 178.625 254.636719 178.84375 C 254.625 179.054688 254.449219 179.21875 254.242188 179.21875 Z M 254.242188 179.21875 " fill-opacity="1" fill-rule="evenodd"/><g clip-path="url(#8aa73d7ad9)"><path fill="#000000" d="M 254.242188 187.429688 C 254.03125 187.429688 253.855469 187.261719 253.84375 187.050781 C 253.832031 186.832031 254 186.644531 254.21875 186.632812 C 254.238281 186.632812 256.144531 186.515625 258 185.359375 C 260.347656 183.894531 261.566406 181.488281 261.628906 178.199219 C 255.992188 179.308594 254.824219 183.285156 254.636719 185.601562 C 254.617188 185.820312 254.425781 185.980469 254.207031 185.964844 C 253.988281 185.945312 253.828125 185.753906 253.84375 185.535156 C 253.945312 184.320312 254.308594 182.535156 255.496094 180.914062 C 256.894531 179.007812 259.070312 177.800781 261.964844 177.332031 C 262.078125 177.3125 262.191406 177.347656 262.28125 177.421875 C 262.371094 177.496094 262.421875 177.605469 262.421875 177.71875 C 262.488281 182.503906 260.265625 184.890625 258.390625 186.054688 C 256.363281 187.308594 254.34375 187.421875 254.261719 187.429688 C 254.253906 187.429688 254.246094 187.429688 254.242188 187.429688 Z M 254.242188 187.429688 " fill-opacity="1" fill-rule="evenodd"/></g><path fill="#000000" d="M 254.242188 187.429688 C 254.234375 187.429688 254.226562 187.429688 254.21875 187.429688 C 254.136719 187.421875 252.117188 187.308594 250.089844 186.054688 C 248.214844 184.890625 245.992188 182.503906 246.058594 177.71875 C 246.058594 177.605469 246.109375 177.496094 246.199219 177.421875 C 246.289062 177.347656 246.402344 177.316406 246.515625 177.332031 C 249.410156 177.800781 251.585938 179.007812 252.984375 180.914062 C 254.171875 182.535156 254.535156 184.320312 254.636719 185.535156 C 254.652344 185.753906 254.492188 185.945312 254.273438 185.964844 C 254.054688 185.980469 253.863281 185.820312 253.84375 185.601562 C 253.65625 183.285156 252.488281 179.308594 246.851562 178.199219 C 246.914062 181.5 248.140625 183.914062 250.507812 185.375 C 252.363281 186.523438 254.242188 186.632812 254.261719 186.632812 C 254.480469 186.644531 254.648438 186.832031 254.636719 187.050781 C 254.625 187.261719 254.449219 187.429688 254.242188 187.429688 Z M 254.242188 187.429688 " fill-opacity="1" fill-rule="evenodd"/><g clip-path="url(#1db8ebf341)"><path fill="#000000" d="M 254.242188 195.636719 C 254.03125 195.636719 253.855469 195.472656 253.84375 195.257812 C 253.832031 195.039062 254 194.851562 254.21875 194.839844 C 254.238281 194.839844 256.144531 194.722656 258 193.566406 C 260.347656 192.101562 261.566406 189.695312 261.628906 186.410156 C 255.992188 187.515625 254.824219 191.496094 254.636719 193.808594 C 254.617188 194.027344 254.425781 194.191406 254.207031 194.171875 C 253.988281 194.15625 253.828125 193.960938 253.84375 193.742188 C 253.945312 192.527344 254.308594 190.742188 255.496094 189.125 C 256.894531 187.214844 259.070312 186.007812 261.964844 185.539062 C 262.078125 185.519531 262.191406 185.554688 262.28125 185.628906 C 262.371094 185.703125 262.421875 185.8125 262.421875 185.925781 C 262.488281 190.710938 260.265625 193.101562 258.390625 194.261719 C 256.363281 195.515625 254.34375 195.628906 254.261719 195.632812 C 254.253906 195.636719 254.246094 195.636719 254.242188 195.636719 Z M 254.242188 195.636719 " fill-opacity="1" fill-rule="evenodd"/></g><path fill="#000000" d="M 254.242188 195.636719 C 254.234375 195.636719 254.226562 195.636719 254.21875 195.632812 C 254.136719 195.628906 252.117188 195.515625 250.089844 194.261719 C 248.214844 193.101562 245.992188 190.710938 246.058594 185.925781 C 246.058594 185.8125 246.109375 185.703125 246.199219 185.628906 C 246.289062 185.554688 246.402344 185.519531 246.515625 185.539062 C 249.410156 186.007812 251.585938 187.214844 252.984375 189.125 C 254.171875 190.742188 254.535156 192.527344 254.636719 193.742188 C 254.652344 193.960938 254.492188 194.15625 254.273438 194.171875 C 254.054688 194.191406 253.863281 194.027344 253.84375 193.808594 C 253.65625 191.496094 252.488281 187.515625 246.851562 186.410156 C 246.914062 189.707031 248.140625 192.121094 250.507812 193.582031 C 252.363281 194.730469 254.242188 194.839844 254.261719 194.839844 C 254.480469 194.851562 254.648438 195.039062 254.636719 195.257812 C 254.625 195.472656 254.449219 195.636719 254.242188 195.636719 Z M 254.242188 195.636719 " fill-opacity="1" fill-rule="evenodd"/><g clip-path="url(#3c384ea395)"><path fill="#ffffff" d="M 104.503906 216.792969 L 269.738281 216.792969 L 269.738281 251.949219 L 104.503906 251.949219 Z M 104.503906 216.792969 " fill-opacity="1" fill-rule="nonzero"/></g><g fill="#000000" fill-opacity="1"><g transform="translate(109.414018, 238.892987)"><g><path d="M 5.421875 0 L 5.421875 -7.84375 L 12.140625 -7.84375 L 12.140625 -11.179688 L 5.421875 -11.179688 L 5.421875 -14.515625 L 11.203125 -14.515625 L 11.203125 -17.875 L 1.703125 -17.875 L 1.703125 0 Z M 5.421875 0 "/></g></g></g><g fill="#000000" fill-opacity="1"><g transform="translate(123.231711, 238.892987)"><g><path d="M 6.980469 -12.378906 C 3.503906 -12.378906 0.695312 -9.550781 0.695312 -6.046875 C 0.695312 -2.589844 3.503906 0.265625 6.980469 0.265625 C 10.460938 0.265625 13.363281 -2.589844 13.363281 -6.046875 C 13.363281 -9.550781 10.460938 -12.378906 6.980469 -12.378906 Z M 6.980469 -3.117188 C 5.421875 -3.117188 4.152344 -4.320312 4.152344 -6.046875 C 4.152344 -7.75 5.421875 -8.972656 6.980469 -8.972656 C 8.636719 -8.972656 9.886719 -7.75 9.886719 -6.046875 C 9.886719 -4.320312 8.636719 -3.117188 6.980469 -3.117188 Z M 6.980469 -3.117188 "/></g></g></g><g fill="#000000" fill-opacity="1"><g transform="translate(138.248813, 238.892987)"><g><path d="M 6.980469 -12.378906 C 3.503906 -12.378906 0.695312 -9.550781 0.695312 -6.046875 C 0.695312 -2.589844 3.503906 0.265625 6.980469 0.265625 C 10.460938 0.265625 13.363281 -2.589844 13.363281 -6.046875 C 13.363281 -9.550781 10.460938 -12.378906 6.980469 -12.378906 Z M 6.980469 -3.117188 C 5.421875 -3.117188 4.152344 -4.320312 4.152344 -6.046875 C 4.152344 -7.75 5.421875 -8.972656 6.980469 -8.972656 C 8.636719 -8.972656 9.886719 -7.75 9.886719 -6.046875 C 9.886719 -4.320312 8.636719 -3.117188 6.980469 -3.117188 Z M 6.980469 -3.117188 "/></g></g></g><g fill="#000000" fill-opacity="1"><g transform="translate(153.265915, 238.892987)"><g><path d="M 9.597656 -17.875 L 9.597656 -11.277344 C 9.070312 -11.851562 7.726562 -12.378906 6.644531 -12.378906 C 3.40625 -12.378906 0.695312 -9.550781 0.695312 -6.046875 C 0.695312 -2.589844 3.335938 0.265625 6.644531 0.265625 C 7.75 0.265625 9.070312 -0.167969 9.597656 -0.863281 L 9.597656 0 L 13.003906 0 L 13.003906 -17.875 Z M 6.980469 -3.117188 C 5.421875 -3.117188 4.152344 -4.320312 4.152344 -6.046875 C 4.152344 -7.75 5.421875 -8.972656 6.980469 -8.972656 C 8.566406 -8.972656 9.742188 -7.75 9.742188 -6.046875 C 9.742188 -4.320312 8.566406 -3.117188 6.980469 -3.117188 Z M 6.980469 -3.117188 "/></g></g></g><g fill="#000000" fill-opacity="1"><g transform="translate(168.426949, 238.892987)"><g/></g></g><g fill="#000000" fill-opacity="1"><g transform="translate(179.485998, 238.892987)"><g><path d="M 14.683594 0 L 18.738281 0 L 9.285156 -18.1875 L -0.144531 0 L 3.695312 0 L 4.847656 -2.398438 L 13.507812 -2.398438 Z M 9.140625 -11.324219 L 11.875 -5.757812 L 6.453125 -5.757812 Z M 9.140625 -11.324219 "/></g></g></g><g fill="#000000" fill-opacity="1"><g transform="translate(199.036883, 238.892987)"><g><path d="M 1.199219 -17.875 L 1.199219 0 L 4.605469 0 L 4.605469 -17.875 Z M 1.199219 -17.875 "/></g></g></g><g fill="#000000" fill-opacity="1"><g transform="translate(205.802034, 238.892987)"><g><path d="M 1.199219 -17.875 L 1.199219 0 L 4.605469 0 L 4.605469 -17.875 Z M 1.199219 -17.875 "/></g></g></g><g fill="#000000" fill-opacity="1"><g transform="translate(212.567186, 238.892987)"><g><path d="M 9.886719 -4.34375 C 9.332031 -3.480469 8.300781 -3.117188 7.269531 -3.117188 C 6.910156 -3.117188 6.574219 -3.144531 6.261719 -3.261719 L 13.027344 -8.109375 C 12.285156 -10.363281 9.980469 -12.378906 6.980469 -12.378906 C 3.503906 -12.378906 0.695312 -9.550781 0.695312 -6.046875 C 0.695312 -2.589844 3.621094 0.265625 7.269531 0.265625 C 9.429688 0.265625 11.5625 -0.71875 12.597656 -2.253906 Z M 4.152344 -6.046875 C 4.152344 -7.75 5.421875 -8.972656 6.980469 -8.972656 C 7.628906 -8.972656 8.179688 -8.757812 8.660156 -8.398438 L 4.246094 -5.253906 C 4.175781 -5.496094 4.152344 -5.757812 4.152344 -6.046875 Z M 4.152344 -6.046875 "/></g></g></g><g fill="#000000" fill-opacity="1"><g transform="translate(227.248467, 238.892987)"><g><path d="M 8.132812 -12.332031 C 7.820312 -12.378906 7.582031 -12.378906 7.292969 -12.378906 C 6.359375 -12.378906 5.351562 -12.066406 4.605469 -11.277344 L 4.605469 -12.117188 L 1.199219 -12.117188 L 1.199219 0 L 4.605469 0 L 4.605469 -6.046875 C 4.605469 -7.988281 5.734375 -8.972656 7.054688 -8.972656 C 7.4375 -8.972656 7.796875 -8.925781 8.132812 -8.804688 Z M 8.132812 -12.332031 "/></g></g></g><g fill="#000000" fill-opacity="1"><g transform="translate(236.652329, 238.892987)"><g><path d="M 6.8125 2.664062 C 5.804688 2.664062 4.917969 2.136719 4.414062 1.296875 L 1.65625 3.285156 C 2.78125 4.941406 4.65625 6.046875 6.8125 6.046875 C 10.246094 6.046875 13.003906 3.261719 13.003906 -0.121094 L 13.003906 -12.117188 L 9.597656 -12.117188 L 9.597656 -11.277344 C 9.070312 -11.851562 7.726562 -12.378906 6.644531 -12.378906 C 3.40625 -12.378906 0.695312 -9.550781 0.695312 -6.046875 C 0.695312 -2.589844 3.335938 0.265625 6.644531 0.265625 C 7.75 0.265625 9.070312 -0.167969 9.597656 -0.863281 L 9.597656 0.0976562 C 9.597656 1.535156 8.375 2.664062 6.8125 2.664062 Z M 6.980469 -3.117188 C 5.421875 -3.117188 4.152344 -4.320312 4.152344 -6.046875 C 4.152344 -7.75 5.421875 -8.972656 6.980469 -8.972656 C 8.566406 -8.972656 9.742188 -7.75 9.742188 -6.046875 C 9.742188 -4.320312 8.566406 -3.117188 6.980469 -3.117188 Z M 6.980469 -3.117188 "/></g></g></g><g fill="#000000" fill-opacity="1"><g transform="translate(251.813369, 238.892987)"><g><path d="M 5.300781 -1.152344 L 2.0625 5.78125 L 5.589844 5.78125 L 13.914062 -12.117188 L 10.53125 -12.117188 L 7.101562 -4.605469 L 3.597656 -12.117188 L -0.144531 -12.117188 Z M 5.300781 -1.152344 "/></g></g></g><g fill="#000000" fill-opacity="1"><g transform="translate(187.976512, 249.392986)"><g/></g></g><g fill="#000000" fill-opacity="1"><g transform="translate(10.772465, 202.124987)"><g><path d="M 48.535156 -24.417969 L 25.617188 -24.417969 L 25.617188 -16.136719 L 37.734375 -16.136719 C 35.753906 -10.917969 30.777344 -8.160156 25.375 -8.160156 C 17.878906 -8.160156 11.9375 -14.457031 11.9375 -22.316406 C 11.9375 -30.234375 17.878906 -36.59375 25.375 -36.59375 C 30.65625 -36.59375 35.277344 -33.597656 37.617188 -29.214844 L 45.054688 -34.617188 C 41.035156 -41.15625 33.65625 -45.472656 25.316406 -45.472656 C 12.597656 -45.472656 2.398438 -35.09375 2.398438 -22.316406 C 2.398438 -9.539062 12.597656 0.78125 25.375 0.78125 C 38.214844 0.78125 48.535156 -9.839844 48.535156 -23.039062 Z M 48.535156 -24.417969 "/></g></g></g><g fill="#000000" fill-opacity="1"><g transform="translate(61.58257, 202.124987)"><g><path d="M 23.15625 0.78125 C 35.035156 0.78125 42.292969 -6.898438 42.292969 -19.917969 L 42.292969 -44.695312 L 33.117188 -44.695312 L 33.117188 -19.136719 C 33.117188 -12.417969 30.117188 -8.160156 23.15625 -8.160156 C 16.558594 -8.160156 13.136719 -12.117188 13.136719 -19.136719 L 13.136719 -44.695312 L 3.839844 -44.695312 L 3.839844 -20.699219 C 3.839844 -8.277344 10.078125 0.78125 23.15625 0.78125 Z M 23.15625 0.78125 "/></g></g></g><g fill="#000000" fill-opacity="1"><g transform="translate(107.713586, 202.124987)"><g><path d="M 36.714844 0 L 46.855469 0 L 23.21875 -45.472656 L -0.359375 0 L 9.238281 0 L 12.117188 -6 L 33.777344 -6 Z M 22.855469 -28.316406 L 29.695312 -14.398438 L 16.136719 -14.398438 Z M 22.855469 -28.316406 "/></g></g></g><g fill="#000000" fill-opacity="1"><g transform="translate(154.204531, 202.124987)"><g><path d="M 18.238281 -7.738281 L 25.558594 0 L 37.914062 0 L 28.257812 -10.320312 C 34.496094 -13.199219 38.335938 -19.078125 38.335938 -27.117188 C 38.335938 -36.835938 30.296875 -44.695312 19.796875 -44.695312 L 4.257812 -44.695312 L 4.257812 0 L 13.558594 0 L 13.558594 -7.738281 Z M 13.558594 -16.136719 L 13.558594 -36.296875 L 19.199219 -36.296875 C 25.558594 -36.296875 28.796875 -31.855469 28.796875 -26.398438 C 28.796875 -19.738281 24.777344 -16.136719 17.398438 -16.136719 Z M 13.558594 -16.136719 "/></g></g></g><g fill="#000000" fill-opacity="1"><g transform="translate(194.696643, 202.124987)"><g><path d="M 4.257812 -44.695312 L 4.257812 0 L 22.4375 0 C 35.277344 0 45.773438 -9.539062 45.773438 -22.378906 C 45.773438 -35.09375 35.277344 -44.695312 22.378906 -44.695312 Z M 13.558594 -8.398438 L 13.558594 -36.296875 L 22.378906 -36.296875 C 30.175781 -36.296875 36.234375 -30.476562 36.234375 -22.378906 C 36.234375 -14.339844 30.175781 -8.398438 22.4375 -8.398438 Z M 13.558594 -8.398438 "/></g></g></g><g fill="#000000" fill-opacity="1"><g transform="translate(242.86726, 202.124987)"><g/></g></g><g fill="#000000" fill-opacity="1"><g transform="translate(268.122331, 202.124987)"><g><path d="M 36.714844 0 L 46.855469 0 L 23.21875 -45.472656 L -0.359375 0 L 9.238281 0 L 12.117188 -6 L 33.777344 -6 Z M 22.855469 -28.316406 L 29.695312 -14.398438 L 16.136719 -14.398438 Z M 22.855469 -28.316406 "/></g></g></g><g fill="#000000" fill-opacity="1"><g transform="translate(314.613265, 202.124987)"><g><path d="M 36.054688 -18.835938 L 4.257812 -45.535156 L 4.257812 0 L 13.558594 0 L 13.558594 -25.675781 L 45.355469 0.78125 L 45.355469 -44.695312 L 36.054688 -44.695312 Z M 36.054688 -18.835938 "/></g></g></g></svg>