<svg xmlns="http://www.w3.org/2000/svg" width="500" viewBox="0 0 375 375" height="500" version="1.0"><defs><clipPath id="a"><path d="M251 151.875h7V165h-7zm0 0"/></clipPath><clipPath id="b"><path d="M253 164h2v39.625h-2zm0 0"/></clipPath><clipPath id="c"><path d="M253 160h9.492v12H253zm0 0"/></clipPath><clipPath id="d"><path d="M253 169h9.492v11H253zm0 0"/></clipPath><clipPath id="e"><path d="M253 177h9.492v11H253zm0 0"/></clipPath><clipPath id="f"><path d="M253 185h9.492v11H253zm0 0"/></clipPath><clipPath id="g"><path d="M104.504 216.793H270v35.187H104.504zm0 0"/></clipPath></defs><path fill="#fff" d="M-37.5-37.5h450v450h-450z"/><path fill="#fff" d="M-37.5-37.5h450v450h-450z"/><path fill="#fff" d="M-37.5-37.5h450v450h-450z"/><g clip-path="url(#a)"><path d="M254.242 152.898c-2.058 2.559-2.668 5.188-1.808 7.825.492 1.523 1.367 2.636 1.804 3.129.442-.493 1.317-1.606 1.809-3.13.86-2.636.254-5.265-1.805-7.824zm0 11.93a.394.394 0 0 1-.273-.11c-.063-.054-1.531-1.448-2.281-3.714-.692-2.102-.864-5.363 2.253-8.984a.395.395 0 0 1 .598 0c3.117 3.62 2.945 6.882 2.254 8.984-.75 2.266-2.219 3.66-2.281 3.715a.391.391 0 0 1-.27.11zm0 0" fill-rule="evenodd"/></g><g clip-path="url(#b)"><path d="M254.242 203.617a.398.398 0 0 1-.398-.398v-38.79a.397.397 0 1 1 .793 0v38.79a.397.397 0 0 1-.395.398zm0 0" fill-rule="evenodd"/></g><g clip-path="url(#c)"><path d="M254.242 171.012a.398.398 0 0 1-.398-.375.395.395 0 0 1 .375-.418c.02 0 1.926-.117 3.781-1.274 2.348-1.465 3.566-3.875 3.629-7.16-5.637 1.106-6.805 5.086-6.992 7.403a.398.398 0 0 1-.793-.067c.101-1.215.465-3 1.652-4.621 1.399-1.91 3.574-3.113 6.469-3.582a.391.391 0 0 1 .316.09c.09.074.14.183.14.297.067 4.785-2.155 7.172-4.03 8.336-2.028 1.25-4.047 1.367-4.13 1.37h-.019zm0 0" fill-rule="evenodd"/></g><path d="M254.242 171.012h-.023c-.082-.004-2.102-.121-4.13-1.371-1.874-1.164-4.097-3.551-4.03-8.336 0-.114.05-.223.14-.297a.391.391 0 0 1 .317-.09c2.894.469 5.07 1.672 6.468 3.582 1.188 1.621 1.551 3.406 1.653 4.621a.4.4 0 0 1-.364.43.4.4 0 0 1-.43-.363c-.187-2.317-1.355-6.297-6.991-7.403.062 3.3 1.289 5.711 3.656 7.176 1.855 1.148 3.734 1.258 3.754 1.258a.397.397 0 0 1-.02.793zm0 0" fill-rule="evenodd"/><g clip-path="url(#d)"><path d="M254.242 179.219a.397.397 0 0 1-.023-.793c.02 0 1.926-.117 3.781-1.274 2.348-1.464 3.566-3.87 3.629-7.16-5.637 1.11-6.805 5.086-6.992 7.403a.4.4 0 0 1-.43.363.4.4 0 0 1-.363-.43c.101-1.215.465-3 1.652-4.621 1.399-1.91 3.574-3.113 6.469-3.582a.391.391 0 0 1 .316.09c.09.074.14.183.14.297.067 4.785-2.155 7.172-4.03 8.336-2.028 1.25-4.047 1.367-4.13 1.37h-.019zm0 0" fill-rule="evenodd"/></g><path d="M254.242 179.219h-.023c-.082-.004-2.102-.121-4.13-1.371-1.874-1.164-4.097-3.551-4.03-8.336 0-.114.05-.223.14-.297a.391.391 0 0 1 .317-.09c2.894.469 5.07 1.672 6.468 3.582 1.188 1.621 1.551 3.406 1.653 4.621a.4.4 0 0 1-.364.43.4.4 0 0 1-.43-.363c-.187-2.317-1.355-6.293-6.991-7.403.062 3.301 1.289 5.715 3.656 7.176 1.855 1.148 3.734 1.258 3.754 1.258a.397.397 0 0 1-.02.793zm0 0" fill-rule="evenodd"/><g clip-path="url(#e)"><path d="M254.242 187.43a.402.402 0 0 1-.398-.38.397.397 0 0 1 .375-.417c.02 0 1.926-.117 3.781-1.274 2.348-1.464 3.566-3.87 3.629-7.16-5.637 1.11-6.805 5.086-6.992 7.403a.4.4 0 0 1-.43.363.4.4 0 0 1-.363-.43c.101-1.215.465-3 1.652-4.62 1.399-1.907 3.574-3.114 6.469-3.583a.391.391 0 0 1 .316.09c.09.074.14.183.14.297.067 4.785-2.155 7.172-4.03 8.336-2.028 1.254-4.047 1.367-4.13 1.375h-.019zm0 0" fill-rule="evenodd"/></g><path d="M254.242 187.43h-.023c-.082-.008-2.102-.121-4.13-1.375-1.874-1.164-4.097-3.551-4.03-8.336 0-.114.05-.223.14-.297a.406.406 0 0 1 .317-.09c2.894.469 5.07 1.676 6.468 3.582 1.188 1.621 1.551 3.406 1.653 4.621a.4.4 0 0 1-.364.43.4.4 0 0 1-.43-.363c-.187-2.317-1.355-6.293-6.991-7.403.062 3.301 1.289 5.715 3.656 7.176 1.855 1.148 3.734 1.258 3.754 1.258.218.012.386.199.375.418a.4.4 0 0 1-.395.379zm0 0" fill-rule="evenodd"/><g clip-path="url(#f)"><path d="M254.242 195.637a.399.399 0 0 1-.023-.797c.02 0 1.926-.117 3.781-1.274 2.348-1.464 3.566-3.87 3.629-7.156-5.637 1.106-6.805 5.086-6.992 7.399a.398.398 0 0 1-.793-.067c.101-1.215.465-3 1.652-4.617 1.399-1.91 3.574-3.117 6.469-3.586a.391.391 0 0 1 .316.09c.09.074.14.184.14.297.067 4.785-2.155 7.176-4.03 8.336-2.028 1.254-4.047 1.367-4.13 1.37-.007.005-.015.005-.019.005zm0 0" fill-rule="evenodd"/></g><path d="M254.242 195.637c-.008 0-.015 0-.023-.004-.082-.004-2.102-.117-4.13-1.371-1.874-1.16-4.097-3.551-4.03-8.336 0-.113.05-.223.14-.297a.391.391 0 0 1 .317-.09c2.894.469 5.07 1.676 6.468 3.586 1.188 1.617 1.551 3.402 1.653 4.617a.398.398 0 0 1-.793.067c-.188-2.313-1.356-6.293-6.992-7.399.062 3.297 1.289 5.711 3.656 7.172 1.855 1.148 3.734 1.258 3.754 1.258a.398.398 0 0 1-.02.797zm0 0" fill-rule="evenodd"/><g clip-path="url(#g)"><path fill="#fff" d="M104.504 216.793h165.234v35.156H104.504zm0 0"/></g><path d="M114.836 238.893v-7.844h6.719v-3.336h-6.72v-3.336h5.782v-3.359h-9.5v17.875zM130.212 226.514c-3.476 0-6.285 2.828-6.285 6.332 0 3.457 2.809 6.313 6.285 6.313 3.48 0 6.383-2.856 6.383-6.313 0-3.504-2.902-6.332-6.383-6.332zm0 9.262c-1.558 0-2.828-1.203-2.828-2.93 0-1.703 1.27-2.926 2.828-2.926 1.656 0 2.906 1.223 2.906 2.926 0 1.727-1.25 2.93-2.906 2.93zM145.23 226.514c-3.477 0-6.286 2.828-6.286 6.332 0 3.457 2.809 6.313 6.285 6.313 3.48 0 6.383-2.856 6.383-6.313 0-3.504-2.902-6.332-6.383-6.332zm0 9.262c-1.56 0-2.829-1.203-2.829-2.93 0-1.703 1.27-2.926 2.828-2.926 1.657 0 2.907 1.223 2.907 2.926 0 1.727-1.25 2.93-2.907 2.93zM162.864 221.018v6.598c-.528-.575-1.872-1.102-2.954-1.102-3.238 0-5.949 2.828-5.949 6.332 0 3.457 2.64 6.313 5.95 6.313 1.105 0 2.425-.434 2.953-1.13v.864h3.406v-17.875zm-2.618 14.758c-1.558 0-2.828-1.203-2.828-2.93 0-1.703 1.27-2.926 2.828-2.926 1.586 0 2.762 1.223 2.762 2.926 0 1.727-1.176 2.93-2.762 2.93zM194.17 238.893h4.054l-9.453-18.188-9.43 18.188h3.84l1.153-2.398h8.66zm-5.543-11.324 2.734 5.566h-5.422zM200.236 221.018v17.875h3.406v-17.875zM207.001 221.018v17.875h3.407v-17.875zM222.454 234.55c-.555.863-1.586 1.226-2.617 1.226-.36 0-.696-.028-1.008-.145l6.766-4.847c-.743-2.254-3.047-4.27-6.047-4.27-3.477 0-6.286 2.828-6.286 6.332 0 3.457 2.926 6.313 6.575 6.313 2.16 0 4.293-.985 5.328-2.52zm-5.734-1.704c0-1.703 1.27-2.926 2.828-2.926.648 0 1.199.215 1.68.575l-4.415 3.144a2.832 2.832 0 0 1-.093-.793zM235.381 226.561c-.312-.047-.55-.047-.84-.047-.933 0-1.941.313-2.687 1.102v-.84h-3.406v12.117h3.406v-6.047c0-1.941 1.129-2.926 2.45-2.926.382 0 .741.047 1.077.168zM243.465 241.557a2.778 2.778 0 0 1-2.399-1.367l-2.757 1.988c1.125 1.656 3 2.762 5.156 2.762 3.433 0 6.191-2.785 6.191-6.168v-11.996h-3.406v.84c-.527-.575-1.871-1.102-2.953-1.102-3.238 0-5.95 2.828-5.95 6.332 0 3.457 2.641 6.313 5.95 6.313 1.105 0 2.426-.434 2.953-1.13v.962c0 1.437-1.223 2.566-2.785 2.566zm.168-5.781c-1.559 0-2.828-1.203-2.828-2.93 0-1.703 1.27-2.926 2.828-2.926 1.586 0 2.762 1.223 2.762 2.926 0 1.727-1.176 2.93-2.762 2.93zM257.114 237.74l-3.238 6.934h3.527l8.324-17.898h-3.382l-3.43 7.512-3.504-7.512h-3.742zM59.308 177.707H36.39v8.281h12.117c-1.98 5.219-6.957 7.977-12.36 7.977-7.496 0-13.437-6.297-13.437-14.156 0-7.918 5.941-14.278 13.437-14.278 5.282 0 9.903 2.996 12.243 7.38l7.437-5.403c-4.02-6.54-11.398-10.856-19.738-10.856-12.719 0-22.918 10.38-22.918 23.157s10.2 23.097 22.976 23.097c12.84 0 23.16-10.62 23.16-23.82zM84.739 202.906c11.879 0 19.137-7.68 19.137-20.699V157.43H94.7v25.558c0 6.719-3 10.977-9.961 10.977-6.598 0-10.02-3.957-10.02-10.977V157.43h-9.297v23.996c0 12.422 6.239 21.48 19.317 21.48zM144.428 202.125h10.141l-23.637-45.473-23.578 45.473h9.598l2.879-6h21.66zm-13.859-28.316 6.84 13.918H123.85zM172.443 194.387l7.32 7.738h12.356l-9.657-10.32c6.239-2.88 10.078-8.758 10.078-16.797 0-9.719-8.039-17.578-18.539-17.578h-15.539v44.695h9.301v-7.738zm-4.68-8.399v-20.16h5.64c6.36 0 9.598 4.442 9.598 9.899 0 6.66-4.02 10.261-11.398 10.261zM198.954 157.43v44.695h18.18c12.84 0 23.336-9.54 23.336-22.379 0-12.715-10.496-22.316-23.394-22.316zm9.301 36.297v-27.899h8.82c7.797 0 13.856 5.82 13.856 13.918 0 8.04-6.059 13.98-13.797 13.98zM304.837 202.125h10.14l-23.636-45.473-23.578 45.473h9.598l2.879-6h21.66zm-13.86-28.316 6.84 13.918H284.26zM350.668 183.289l-31.797-26.7v45.536h9.3v-25.676l31.798 26.457V157.43h-9.301zm0 0"/></svg>