<?xml version="1.0" encoding="utf-8"?>
<!-- Generator: Adobe Illustrator 25.0.0, SVG Export Plug-In . SVG Version: 6.00 Build 0)  -->
<svg version="1.1" id="Layer_1" xmlns="http://www.w3.org/2000/svg" xmlns:xlink="http://www.w3.org/1999/xlink" x="0px" y="0px"
	 viewBox="0 0 200 200" style="enable-background:new 0 0 200 200;" xml:space="preserve">
<style type="text/css">
	.st0{clip-path:url(#SVGID_2_);}
	.st1{fill:#FFFFFF;}
	.st2{fill:#EBCB7A;}
	.st3{fill:#706F6F;}
	.st4{fill:#694828;}
</style>
<g id="Layer_2_1_">
	<g id="Layer_1-2">
		<g>
			<defs>
				<circle id="SVGID_1_" cx="100" cy="100" r="100"/>
			</defs>
			<clipPath id="SVGID_2_">
				<use xlink:href="#SVGID_1_"  style="overflow:visible;"/>
			</clipPath>
			<g class="st0">
				<rect x="-59.5" y="-28.1" class="st1" width="319" height="256.3"/>
				<path class="st2" d="M153.7,103.2c-1-6.1-5.6-4.2-8.4,0.2s-5,11.1,0.9,11.9S154.5,108.5,153.7,103.2z"/>
				<path class="st2" d="M98,75.5c-0.3-3.1-15.1,3.2-16,8.1s5.6,5.5,10.7,1.2C96.7,81.4,98.1,77.1,98,75.5z"/>
				<path class="st2" d="M71.3,141.6c-3.6-4.4-14.2-4-12.2,3.2s7.3,10,10.8,7.5C73.5,149.7,72.7,143.2,71.3,141.6z"/>
				<path class="st2" d="M121.7,58.2c-1.5-3.6-8.6-5.4-9.5,0.7c-0.9,6.2,4.3,11.4,8.1,10.6C124.1,68.6,123.3,62,121.7,58.2z"/>
				<path class="st3" d="M67.8,51.8c-6.4-2.1-12.3,1.5-8.9,6.6c3.4,5.1,8.2,6.6,12,3.2C74.6,58.2,73.1,53.5,67.8,51.8z"/>
				<path class="st3" d="M120.7,101.7c-1.3,1.1-12.7,7.2-10.8,13c1.6,5,7.9,2.6,10.6-2.8S122,100.5,120.7,101.7z"/>
				<path class="st3" d="M89.6,111.4c0,0-11.1-5-16.8,0.3c-2,1.9,6.6,7.3,11.7,6.2S90.2,113.1,89.6,111.4z"/>
				<path class="st3" d="M145.7,135c-3.5-0.2-10.8,4.8-10.4,12.6c0.2,5.4,10.3-1.6,11.9-6C148.6,137.7,147.5,135.1,145.7,135z"/>
				<path class="st2" d="M109.3,137.2c-2.4-2.6-6.4-2.9-7.6,3.4c-1.2,6.3,0.6,11.1,6.4,9.8S111.3,139.4,109.3,137.2z"/>
				<path class="st3" d="M150.9,66.9c-1-1.9-11.9,1.9-11.9,7.6c0.1,6.7,7.9,5.8,10.5,1.8S150.9,66.9,150.9,66.9z"/>
				<path class="st2" d="M60.5,90.3c-4.2-4.6-14-3.3-11.8,3.5s8.6,8.1,12,5.4C64.1,96.5,62,91.9,60.5,90.3z"/>
				<path class="st4" d="M147.1,129.3c-2.1-1.6-4.8-2.2-7.4-1.5c-1.1,0.3-1.8,1.5-1.5,2.6s1.5,1.8,2.6,1.5c1.4-0.3,2.8,0,3.9,0.9
					c2.9,2,3.1,4.7,0.7,8.2c-3.2,4.7-9.1,7.4-10.6,6.3c-1-0.7-1.1-5.9,1.4-10.8c0.6-1,0.2-2.3-0.9-2.9c-1-0.6-2.3-0.2-2.9,0.9l0,0
					c-2.6,5.1-4.2,13.5-0.1,16.3c1,0.6,2.1,1,3.2,0.9c4.4,0,10.2-3.8,13.3-8.4C152.6,137.9,151.9,132.6,147.1,129.3z"/>
				<path class="st4" d="M75.2,101.9c-1.1,0.3-1.9,1.4-1.6,2.5c0.3,1.1,1.4,1.9,2.5,1.6c0,0,0,0,0.1,0c3.9-1,9.1-0.8,11.5,1.4
					c1.1,1.1,1.5,2.7,1.1,4.3c-0.1,1.7-1.2,3.2-2.8,3.8c-3.4,1.3-9-0.8-12.2-3.5c-1.7-1.4-2.4-2.7-2.3-3.4c0.1-1.2-0.7-2.2-1.9-2.4
					c-1.1-0.1-2.1,0.6-2.3,1.6c-0.4,2.4,0.9,5,3.7,7.4c3.6,2.9,8,4.6,12.6,4.8c1.3,0,2.6-0.2,3.8-0.6c2.1-0.8,4.8-2.6,5.6-7.1
					c0.7-4.2-0.9-6.7-2.4-8.1C87,100.9,80.3,100.6,75.2,101.9z"/>
				<path class="st4" d="M67.3,133.2c-1-0.6-2.3-0.3-2.9,0.7c-0.6,1-0.3,2.3,0.7,2.9c4,2.4,6.9,6.1,7.1,8.8c0,1.6-0.8,3-2.1,3.8
					c-1.3,1.1-3.1,1.5-4.7,0.8c-3.4-1.5-5.9-6.9-6.4-11c-0.2-2.2,0.2-3.6,0.7-4c0.9-0.8,1-2.1,0.3-3c-0.7-0.8-1.9-1-2.8-0.4
					c-2,1.4-2.8,4.2-2.4,7.9c0.6,5.3,3.9,12.2,8.9,14.4c1.1,0.5,2.2,0.7,3.4,0.7c2,0,4-0.7,5.5-2c3.4-2.5,4-5.4,3.9-7.4
					C76.2,140.2,71.4,135.6,67.3,133.2z"/>
				<path class="st4" d="M62.5,100.1c3.3-2.8,3.6-5.9,3.3-8c-0.8-5.3-6.5-9.9-11.4-11.9c-1.1-0.5-2.3-0.1-2.8,1
					c-0.5,1.1-0.1,2.3,1,2.8c0.1,0,0.1,0.1,0.2,0.1c3.9,1.6,8.3,5.3,8.8,8.7c0.2,1.6-0.5,3.2-1.8,4.1c-1.2,1.2-3,1.6-4.6,1.1
					c-3.5-1.2-6.4-6.4-7.1-10.5c-0.4-2.2-0.1-3.6,0.4-4.1c0.9-0.8,1-2.1,0.2-3c-0.8-0.9-2.1-1-3-0.2l0,0c-1.8,1.6-2.5,4.4-1.8,8
					c1,5.3,4.8,11.9,9.9,13.7c0.9,0.3,1.9,0.5,2.9,0.5C58.7,102.4,60.8,101.6,62.5,100.1z"/>
				<path class="st4" d="M122,95.9c-1.7-0.9-3.8-1-5.6-0.3c-1,0.5-1.5,1.8-0.9,2.9c0.4,0.8,1.3,1.3,2.2,1.1c0.7-0.3,1.4-0.3,2.1-0.1
					c0.4,0.2,0.9,1.4,0.9,3.7c-0.1,4.3-2.1,10-5.3,11.8c-1.5,0.8-3.3,0.6-4.6-0.4c-1.3-0.7-2.3-1.9-2.5-3.4
					c-0.3-2.2,1.2-5.3,3.9-7.9c0.8-0.9,0.6-2.2-0.3-3c-0.8-0.7-1.9-0.7-2.7,0c-3.7,3.7-5.6,7.8-5.1,11.4c0.4,2.8,2.1,5.2,4.6,6.5
					c1.5,0.9,3.2,1.5,4.9,1.5c1.4,0,2.7-0.3,3.9-1c4.8-2.6,7.4-9.9,7.5-15.4C124.9,99.7,123.9,97,122,95.9z"/>
				<path class="st4" d="M114.2,46.5c-1.1,0.3-1.9,1.4-1.6,2.5c0.2,1,1.2,1.7,2.3,1.7c3.9-0.6,5.5,3.5,6.1,5.9
					c1.3,5.2,0.1,10.4-1.4,10.9c-0.4,0.2-1.9-0.2-4-2.2c-3.2-3-6-8.2-5.1-11.4c0.4-1.1-0.2-2.3-1.3-2.7c-1.1-0.4-2.3,0.2-2.7,1.3
					c0,0.1-0.1,0.2-0.1,0.2c-1.5,5.1,2,11.8,6.2,15.7c2.4,2.2,4.7,3.4,6.7,3.4c0.6,0,1.1-0.1,1.7-0.3c4.5-1.7,5.7-9.6,4.1-16
					C123.5,49.1,119.3,45.7,114.2,46.5z"/>
				<path class="st4" d="M100.1,70.8c-1.8-2.5-5.7-3.2-10.6-2.1c-1.1,0.3-1.8,1.4-1.6,2.6c0.3,1.1,1.4,1.8,2.6,1.6
					c3.5-0.8,5.7-0.3,6.2,0.4c0.2,0.3,0.2,1.6-0.7,3.7c-1.8,3.9-6,8.3-9.6,8.6c-1.6,0.2-2.9-0.6-4-2.2c-2-2.8-1.3-5.4,2.1-7.9
					c0.9-0.7,1.1-2.1,0.4-3c-0.7-0.9-1.9-1.1-2.9-0.5c-5.3,3.8-6.5,9.1-3.1,13.8c1.5,2.5,4.2,4,7.1,4c0.3,0,0.5,0,0.8,0
					c5.4-0.5,10.8-6.1,13.1-11.1C101.3,75.5,101.4,72.7,100.1,70.8z"/>
				<path class="st4" d="M139.2,80c1.5,1,3.2,1.5,5,1.6c1.3,0,2.7-0.3,3.8-1c4.8-2.6,7.5-9.8,7.7-15.3c0.1-3.6-0.9-6.2-2.8-7.4
					c-2.3-1.4-5.8-0.9-9.4,1.4c-1,0.6-1.3,1.9-0.7,2.9c0.6,1,1.9,1.3,2.9,0.7c0,0,0.1,0,0.1-0.1c2.3-1.5,4.2-1.8,4.9-1.4
					c0.3,0.2,0.9,1.4,0.8,3.7c-0.1,4.3-2.2,10-5.5,11.7c-1.5,0.7-3.3,0.6-4.6-0.4c-1.2-0.6-2.1-1.7-2.4-3c-0.3-1.6,0.3-3.6,1.8-5.7
					c0.7-0.9,0.6-2.3-0.4-3c-0.9-0.7-2.3-0.6-3,0.4c-0.1,0.1-0.1,0.1-0.1,0.2c-2.2,3.1-3,6.2-2.4,9C135.4,76.7,137,78.8,139.2,80z"
					/>
				<path class="st4" d="M108.4,129.4c-0.9-0.8-2.2-0.7-3,0.2c-0.8,0.9-0.7,2.2,0.2,3l0,0c3.3,2.9,6.3,8.8,5.4,12.4
					c-0.4,1.6-1.5,2.7-3.5,3.2c-2,0.5-3.7,0.2-4.9-1.2c-2.6-3-2.9-9.6-1.3-13.5c0.4-1.1-0.1-2.3-1.2-2.8s-2.3,0.1-2.8,1.2l0,0
					c-2,5.2-1.7,13.6,2.1,17.9c1.6,1.8,3.9,2.9,6.4,2.9c0.9,0,1.9-0.1,2.8-0.4c4.5-1.2,6.1-4.1,6.6-6.3
					C116.5,140.6,112.7,133.1,108.4,129.4z"/>
				<path class="st4" d="M156.1,97.8c-0.7-3.5-2.3-5.9-4.4-6.6c-1.8-0.5-3.7-0.2-5.3,0.7c-1.1,0.5-1.6,1.7-1.1,2.8
					c0.5,1.1,1.7,1.6,2.8,1.1c0.1-0.1,0.2-0.1,0.4-0.2c0.6-0.4,1.2-0.5,1.9-0.5c0.4,0.1,1.2,1.2,1.6,3.4c0.8,4.2,0,10.2-2.7,12.6
					c-1.3,1.1-3.1,1.3-4.6,0.6c-1.4-0.4-2.6-1.4-3.2-2.8c-0.7-2,0-5.2,2-8.3c0.6-1,0.2-2.3-0.9-2.9c-0.9-0.5-2.1-0.2-2.7,0.6
					c-2.7,4.3-3.6,8.7-2.4,12c1,2.6,3.1,4.6,5.8,5.4c1.1,0.4,2.2,0.6,3.4,0.6c2,0,3.9-0.7,5.4-2C156.1,110.9,157.2,103.2,156.1,97.8
					z"/>
				<path class="st4" d="M60.9,63.9c1.8,1,3.9,1.6,6,1.7c3.4,0,6.4-2,7.8-5c1.6-2.5,1.7-5.7,0.3-8.3c-2.4-4.5-8.5-6.6-13.1-7.1
					c-1.2-0.1-2.2,0.7-2.3,1.9s0.7,2.2,1.9,2.3c4.5,0.5,8.6,2.5,9.8,4.9c0.7,1.4,0.6,3-0.3,4.3c-1.6,3-4.3,3.6-8,1.6
					c-5-2.7-8.4-8.2-7.5-9.9c0.5-1.1,0-2.3-1.1-2.8c-1-0.4-2.1-0.1-2.7,0.8C49.3,52.9,54.8,60.6,60.9,63.9z"/>
			</g>
		</g>
	</g>
</g>
</svg>
