<?xml version="1.0" encoding="utf-8"?>
<!-- Generator: Adobe Illustrator 25.0.0, SVG Export Plug-In . SVG Version: 6.00 Build 0)  -->
<svg version="1.1" id="Layer_1" xmlns="http://www.w3.org/2000/svg" xmlns:xlink="http://www.w3.org/1999/xlink" x="0px" y="0px"
	 viewBox="0 0 200 200" style="enable-background:new 0 0 200 200;" xml:space="preserve">
<style type="text/css">
	.st0{clip-path:url(#SVGID_2_);}
	.st1{fill:#FFFFFF;}
	.st2{fill:#EC6726;}
	.st3{fill:#694828;}
</style>
<g id="Layer_2_1_">
	<g id="Layer_1-2">
		<g>
			<defs>
				<circle id="SVGID_1_" cx="100" cy="100" r="100"/>
			</defs>
			<clipPath id="SVGID_2_">
				<use xlink:href="#SVGID_1_"  style="overflow:visible;"/>
			</clipPath>
			<g class="st0">
				<rect x="-59.5" y="-28.1" class="st1" width="319" height="256.3"/>
				<path class="st2" d="M67.7,92.5c0,0,1.9-8.8,15.6-16.1c9.8-5,20.4-8.3,31.3-9.5c14.2-1.8,30.7,1.3,33.3,4.5
					c-15.1,10.1-29.5,21.1-43.3,32.9c-4.5,3.8-9.8,8-15.2,9.4c-10.5,2.8-18.1,10.6-18.8,18.5c-0.4,5.2,1.6,9.5,5.2,14.6
					c1.7,2.7,3.8,5.2,6.1,7.4c0,0,28.7-2,32.8,1.6c-0.7,2-1.9,3.9-3.3,5.5c0,0,5.7,2.3,4.8,3.8c-0.9,1.4-10.3,7.4-16.6,7
					c-22-1.5-32-8.2-35.4-15.5c0,0-12.8-3.2-15.4-15.9c0,0-9.5-14-1.9-26.6C46.9,114,49.7,94.5,67.7,92.5z"/>
				<path class="st3" d="M78,151.6c1.2,0,2.1-0.9,2.1-2.1c0-0.5-0.2-1-0.5-1.4c-5-5.4-7.3-11-6.7-16c0.6-4.6,3.5-8.7,8.7-12.3
					c1-0.6,1.3-1.9,0.7-2.9s-1.9-1.3-2.9-0.7c-0.1,0-0.1,0.1-0.2,0.1c-6.3,4.3-9.8,9.4-10.5,15.3c-0.8,6.3,1.9,13,7.8,19.4
					C76.9,151.3,77.4,151.6,78,151.6z"/>
				<path class="st3" d="M117.5,145.5c-11.8-1.3-35.2,6.8-36.2,7.1c-1.1,0.3-1.8,1.5-1.4,2.6c0.3,1.1,1.5,1.8,2.6,1.4
					c0.1,0,0.1,0,0.2-0.1c0.2-0.1,20.3-7,31.9-7h0.2c-1,4.3-3,8.2-5.9,11.6c-0.8,0.9-0.7,2.2,0.2,3c0,0,0,0,0,0
					c0.4,0.3,0.9,0.5,1.4,0.5c0.6,0,1.2-0.3,1.6-0.7l0.2-0.2c0.2,0.5,0.7,0.9,1.2,1.1c-2.6,1.9-8.9,4.9-12.4,5.2
					c-5.2,0.4-12.4-1.5-19.4-3.4c-1.8-0.5-3.6-1-5.5-1.4c-16.3-3.3-25.3-12.9-30-20.3c-6.3-10-8.8-22.8-6.3-32.4
					C44,96.6,55.7,87.7,62.3,83.8c1-0.6,1.3-1.9,0.8-2.9c-0.6-1-1.9-1.3-2.9-0.8c-7.2,4.2-19.9,13.9-24.4,31.3
					c-2.8,10.7-0.1,24.8,6.8,35.8c5.1,8.2,15,18.6,32.7,22.2c1.7,0.4,3.5,0.9,5.3,1.4c6.6,1.8,13.3,3.6,18.9,3.6
					c0.7,0,1.3,0,1.9-0.1c5-0.4,15-5.4,16.8-8.3c0.5-0.7,0.6-1.7,0.2-2.5c-0.5-1.2-1.7-2.1-3.6-2.7l-0.4-0.1
					c2.5-3.9,4.2-8.3,4.9-12.9c0.1-0.6-0.1-1.1-0.4-1.6C118.6,145.8,118.1,145.5,117.5,145.5z"/>
				<path class="st3" d="M159,66.9c1-0.6,1.3-1.9,0.7-2.9c0,0,0,0,0,0c-0.2-0.3-0.4-0.5-0.7-0.7c0.3-0.3,0.5-0.7,0.6-1.2
					c0.1-1.2-0.7-2.2-1.9-2.3c-14.8-1.6-29.8-0.6-44.3,3.1c-1.1,0.3-1.8,1.5-1.5,2.6c0.3,1.1,1.5,1.8,2.6,1.5
					c13.5-3.4,27.6-4.5,41.5-3.1c-15.7,9.6-30.6,20.4-44.7,32.3c-8.8,7.3-15.1,12.5-23.2,15.8c-1.1,0.4-1.6,1.7-1.2,2.8
					c0.3,0.8,1.1,1.3,2,1.3c0.3,0,0.5-0.1,0.8-0.2c8.8-3.5,15.3-9,24.3-16.5C128.1,87.4,143.1,76.6,159,66.9z"/>
				<path class="st3" d="M118.3,57c-18.6,0.3-46.4,10.5-53.1,19.5c-0.8,0.9-0.6,2.2,0.3,3s2.2,0.6,3-0.3c0.1-0.1,0.1-0.1,0.2-0.2
					c5.5-7.3,31.1-17.5,49.8-17.8c1.2-0.1,2.1-1.1,2-2.3C120.3,57.9,119.4,57.1,118.3,57L118.3,57z"/>
				<path class="st3" d="M81.7,113.3c0.3,0.2,0.6,0.3,1,0.3c1.2,0,2.1-1,2.1-2.1c0-0.8-0.4-1.5-1.1-1.9
					c-7.5-4.2-15.6-15.4-15.2-24.8c0-1.2-0.9-2.2-2-2.2c-1.2,0-2.2,0.9-2.2,2l0,0C63.9,96.1,73,108.5,81.7,113.3z"/>
				<path class="st3" d="M106.1,129.4c0.8,0,1.5-0.4,1.9-1.1c0.6-1,0.2-2.3-0.9-2.9c-1.6-0.9-9.9-5.2-13.4-5.1
					c-0.7,0-2.7,0.1-15.4,4.8c-1.1,0.4-1.7,1.6-1.3,2.7s1.6,1.7,2.7,1.3l0,0c11.4-4.2,13.7-4.5,14-4.5c1.6,0,7.1,2.3,11.3,4.6
					C105.4,129.3,105.7,129.4,106.1,129.4z"/>
				<path class="st3" d="M100,139.8c1,0.6,2.3,0.4,2.9-0.6c0.6-0.9,0.4-2.1-0.5-2.8c-9.1-6.6-10.9-6.3-11.6-6.2
					c-0.7,0.1-5.4,1.1-13.7,3.1c-1.1,0.3-1.8,1.4-1.6,2.6c0.3,1.1,1.4,1.8,2.6,1.6c9.6-2.2,12.4-2.8,13.2-3
					C92.6,134.8,96.8,137.4,100,139.8z"/>
				<path class="st3" d="M154.5,109c-4.7-3-16.1-9.8-20.5-7.9c-12.7,5.4-21.9,7.1-27.4,7.6c-1.2,0.1-2.1,1-2,2.2
					c0.1,1.2,1,2.1,2.2,2l0,0h0.2c8.4-0.8,18.1-3.4,28.7-7.9c1.7-0.5,9.4,3,16.5,7.6c1,0.6,2.3,0.2,2.9-0.8
					C155.7,110.9,155.4,109.7,154.5,109L154.5,109z"/>
				<path class="st3" d="M163.7,92.7c-5.4-1.6-23.2-6.5-27.9-3.8c-5.6,3.3-11.3,6.3-17.2,9c-1.1,0.5-1.6,1.7-1.1,2.8
					c0.3,0.8,1.1,1.3,2,1.3c0.3,0,0.6-0.1,0.9-0.2c6-2.8,12-5.8,17.7-9.2c1.7-1,11.9,0.5,24.6,4.2c1.1,0.4,2.3-0.2,2.7-1.3
					c0.4-1.1-0.2-2.3-1.3-2.7C163.9,92.8,163.8,92.7,163.7,92.7L163.7,92.7z"/>
				<path class="st3" d="M43,111c-0.7,0.9-0.6,2.3,0.3,3c0,0,0,0,0,0c6.9,5.4,15.1,8.8,23.8,9.9h0.3c1.2,0,2.1-1,2.1-2.2
					c0-1-0.8-1.9-1.8-2c-7.9-1-15.4-4.1-21.7-9C45.1,110,43.7,110.1,43,111z"/>
				<path class="st3" d="M48.8,142.8H49c5.5-0.7,10.9-2.2,16-4.4c1.1-0.4,1.7-1.6,1.3-2.7c-0.4-1.1-1.6-1.7-2.7-1.3
					c-0.1,0-0.1,0.1-0.2,0.1c-4.7,2-9.7,3.4-14.8,4.1c-1.2,0.2-2,1.2-1.8,2.4C46.9,142,47.8,142.7,48.8,142.8L48.8,142.8z"/>
				<path class="st3" d="M64.2,158.6c0.5,0,0.9-0.2,1.3-0.5c2.6-2,4.9-4.3,6.9-6.9c0.7-0.9,0.5-2.3-0.4-3c-0.9-0.7-2.3-0.5-3,0.4
					l0,0c-1.8,2.3-3.8,4.3-6.1,6.1c-0.9,0.7-1.1,2.1-0.3,3C62.9,158.3,63.6,158.6,64.2,158.6L64.2,158.6z"/>
				<path class="st3" d="M46.5,56.6c30.1-18.7,72.3-33.4,98.9-24c6.3,2.2,10.4,5.6,11.9,9.8c1.4,3.9,0.9,8.3-1.4,11.8
					c-0.6,1-0.3,2.3,0.7,2.9s2.3,0.3,2.9-0.7c3-4.6,3.6-10.3,1.8-15.5c-1.9-5.4-6.9-9.7-14.5-12.4C128.1,22.1,90.1,24.5,44.2,53
					c-1,0.7-1.2,2-0.5,3C44.3,56.9,45.5,57.1,46.5,56.6L46.5,56.6z"/>
				<path class="st3" d="M150.1,56.8c1.1,0.3,2.3-0.4,2.6-1.5c0,0,0,0,0,0c1.5-4.8,0.1-10.1-3.6-13.6c-5.8-5.8-20.4-7.2-39.1-3.8
					c-20.5,3.8-42.2,12.6-61.1,24.8c-1,0.6-1.3,2-0.6,2.9c0.4,0.6,1.1,1,1.8,1c0.4,0,0.8-0.1,1.2-0.3c18.4-12,39.5-20.6,59.5-24.2
					c16.8-3.1,30.7-2,35.3,2.6c2.6,2.4,3.6,6.1,2.5,9.5C148.3,55.3,148.9,56.4,150.1,56.8z"/>
				<path class="st3" d="M104.2,165.4L104.2,165.4c1.3-0.1,2.2-1.1,2.1-2.2c-0.1-1.1-0.9-1.9-1.9-2l-10.6-0.4c-1.2,0-2.1,1-2.1,2.2
					c0,1.1,0.9,2,1.9,2.1L104.2,165.4z"/>
			</g>
		</g>
	</g>
</g>
</svg>
