<?xml version="1.0" encoding="utf-8"?>
<!-- Generator: Adobe Illustrator 25.0.0, SVG Export Plug-In . SVG Version: 6.00 Build 0)  -->
<svg version="1.1" id="Layer_1" xmlns="http://www.w3.org/2000/svg" xmlns:xlink="http://www.w3.org/1999/xlink" x="0px" y="0px"
	 viewBox="0 0 200 200" style="enable-background:new 0 0 200 200;" xml:space="preserve">
<style type="text/css">
	.st0{clip-path:url(#SVGID_2_);}
	.st1{fill:#FFFFFF;}
	.st2{fill:#FFDB7C;}
	.st3{fill:#DFF2FD;}
	.st4{fill:#69ACDF;}
	.st5{fill:#694828;}
</style>
<g id="Layer_2_1_">
	<g id="Layer_1-2">
		<g>
			<defs>
				<circle id="SVGID_1_" cx="100" cy="100" r="100"/>
			</defs>
			<clipPath id="SVGID_2_">
				<use xlink:href="#SVGID_1_"  style="overflow:visible;"/>
			</clipPath>
			<g class="st0">
				<rect x="-59.5" y="-28.1" class="st1" width="319" height="256.3"/>
				<path class="st2" d="M118.5,133.8c1.4,0-4,13.2-7.3,16.7c-3.3,3.5-6.2-13.1-6.4-16.4C104.9,134.1,110.2,133.8,118.5,133.8z"/>
				<path class="st2" d="M43.1,95.1c0,0-9.7-7.4-14.9-7.1c0,0,1,8.7,0.9,12.5C29,102,22,120,22,120c6.3-1.4,12.2-4.4,17.1-8.7
					C42.8,108,45,98.6,43.1,95.1z"/>
				<path class="st2" d="M110.9,72.2c0,0-9.2-14.4-17.4-16.4c0,0-1.7,11.1-3.7,18.2C96.7,72.7,103.8,72.1,110.9,72.2z"/>
				<path class="st3" d="M159.6,102.4c8.6,0.8,9.2,3.3,9,6.4s-20.6,17.1-55.2,17.8s-61.1-14.7-65.8-17.8s-14.7-10.1-5-9.4
					S147.6,101.3,159.6,102.4z"/>
				<path class="st4" d="M50.2,92.4c12.3-5.5,34.8-13,58-13.6s52.5,9.7,59.6,15.4c8.3,6.7,4.5,7.5,0.6,9S54.3,100.6,45,100.4
					S40,96.9,50.2,92.4z"/>
				<path class="st2" d="M125,99.7c0,0-22.4-0.7-22.6,2.6s7.3,7,11.6,6.6S131.9,100.8,125,99.7z"/>
				<path class="st5" d="M149.8,80.7c10.4,3.3,19.2,8.2,24.6,13.5c0.8,0.8,2.2,0.8,3,0c0,0,0,0,0,0c0.8-0.8,0.8-2.2,0-3c0,0,0,0,0,0
					c-6-5.9-15.1-10.9-26.3-14.5c-1.2-0.2-2.3,0.6-2.4,1.8C148.5,79.3,149,80.2,149.8,80.7L149.8,80.7z"/>
				<path class="st5" d="M181.5,106c-1-0.6-2.3-0.3-2.9,0.6c-3.5,5.5-13.2,11.9-25.2,16.7c-14.1,5.6-29.1,8.5-44.2,8.5
					c-29.1-0.2-50.4-16-60.6-23.6c-3.1-2.3-5.2-3.8-6.7-4.4c-1.1-0.4-2.3,0.1-2.8,1.2c-0.4,1.1,0.1,2.3,1.2,2.8
					c2,1.1,3.9,2.4,5.7,3.8l0.8,0.6c-0.9,0.2-1.5,1-1.5,1.9c-0.2,3.4-0.1,5,1.2,5.8c0.4,0.2,0.8,0.4,1.2,0.3
					c1.6-0.2,3.1-0.6,4.6-1.3c0.8-0.3,1.3-1,1.4-1.9l2,1.4c-0.7,0.3-1.2,1-1.3,1.8c-0.3,4.4-0.2,5.6,1,6.4c0.5,0.3,1,0.5,1.6,0.5
					c1.1,0,2.7-0.4,5.5-1.6c0.9-0.4,1.4-1.3,1.3-2.2c11.6,6.5,26.9,12.5,45.3,12.6h0.8c15.4-0.1,30.7-3.1,45-8.8
					c13-5.2,23.1-12,27.2-18.3C182.8,108,182.5,106.6,181.5,106C181.5,106,181.5,106,181.5,106z M49.4,115.6c0-0.3,0-0.7,0.1-1.1
					c0-0.1,0-0.1,0-0.2l1.2,0.9L49.4,115.6z M58.5,122.6c0-0.5,0.1-1.1,0.1-1.9c0-0.1,0-0.2,0-0.2c0.7,0.4,1.4,0.9,2.2,1.3
					C59.8,122.2,59.1,122.5,58.5,122.6z"/>
				<path class="st5" d="M127.4,102.5c1.2,0.1,2.2-0.7,2.4-1.9c0.1-1.2-0.7-2.2-1.9-2.4c-0.6-0.1-14.8-1.7-27.6,0.9
					c-0.7,0.2-1.3,0.7-1.6,1.4c-0.3,0.7-0.1,1.5,0.4,2.1c0.3,0.3,7,8.3,14.4,8.8c0.3,0,0.7,0,1,0c5.3,0,12.1-2.6,12.4-2.7
					c1.1-0.4,1.7-1.7,1.2-2.8c-0.4-1.1-1.7-1.7-2.8-1.2l0,0c-0.1,0-7.1,2.7-11.6,2.4c-3-0.2-6.3-2.5-8.6-4.5
					C112.5,101.8,120,101.8,127.4,102.5z"/>
				<path class="st5" d="M20,119.3c-0.4,1.1,0.2,2.3,1.3,2.7c0.2,0.1,0.5,0.1,0.7,0.1c0.9,0,1.7-0.6,2-1.4c1-2.8,2.2-5.7,3.3-8.6
					c3-7.6,4-10.4,3.9-11.8c0-1.3-1.1-4.1-4.3-11.9c-1.2-2.9-2.4-5.9-3.5-8.7c-0.4-1.1-1.7-1.7-2.8-1.2c-1.1,0.4-1.7,1.7-1.2,2.8
					c1.1,2.8,2.3,5.8,3.5,8.8c1.7,4.1,3.7,9.3,4,10.5c-0.2,1.2-2.1,6.1-3.6,10.1C22.2,113.5,21,116.5,20,119.3z"/>
				<path class="st5" d="M36.9,111.1c-5.2,6-11.1,11.3-17.6,15.9c-1,0.7-1.2,2-0.5,3c0.4,0.6,1,0.9,1.7,0.9c0.4,0,0.8-0.1,1.2-0.4
					c6.8-4.8,12.9-10.4,18.4-16.7c0.8-0.9,0.7-2.2-0.2-3C39,110.1,37.7,110.2,36.9,111.1L36.9,111.1z"/>
				<path class="st5" d="M38,90.8c0.7,1,2,1.2,3,0.5c1-0.7,1.2-2,0.5-3c-0.1-0.1-0.2-0.2-0.3-0.3c-6.1-7-12.9-13.3-20.2-18.9
					c-0.9-0.8-2.2-0.6-3,0.3c-0.8,0.9-0.6,2.2,0.3,3c0,0,0.1,0.1,0.1,0.1C25.5,77.9,32.1,84,38,90.8z"/>
				<path class="st5" d="M99.6,53.2c5.7,3.3,10.3,8.1,13.4,13.9c0.5,1.1,1.7,1.6,2.8,1.1c1.1-0.5,1.6-1.7,1.1-2.8
					c0-0.1-0.1-0.2-0.1-0.3c-3.5-6.5-8.7-11.9-15-15.6c-1-0.6-2.3-0.2-2.9,0.8C98.3,51.4,98.6,52.6,99.6,53.2z"/>
				<path class="st5" d="M124,137.9c-1-0.6-2.3-0.2-2.9,0.8c-1.8,3.1-4.3,5.8-7.4,7.7c-1,0.6-1.3,1.9-0.7,2.9c0.4,0.6,1.1,1,1.8,1
					c0.4,0,0.8-0.1,1.1-0.3c3.6-2.3,6.7-5.4,8.8-9.2C125.3,139.8,125,138.5,124,137.9z"/>
				<path class="st5" d="M165.8,108.4c0.4,0.7,1.1,1.1,1.9,1.1c0.4,0,0.7-0.1,1-0.3c5-2.8,12.4-9.7,12.7-10c0.9-0.7,1-2.1,0.3-3
					c-0.7-0.9-2.1-1-3-0.3c-0.1,0.1-0.1,0.1-0.2,0.2c-0.1,0.1-7.3,6.8-11.9,9.4C165.6,106,165.2,107.3,165.8,108.4
					C165.8,108.4,165.8,108.4,165.8,108.4z"/>
				<path class="st5" d="M144.5,83.2c-2.7,0.3-8.1,3-9,10.4c-1.2,9.6-1.9,19.4-2,29.1c0,1.2,0.9,2.1,2.1,2.2l0,0
					c1.2,0,2.1-0.9,2.1-2.1c0.1-9.6,0.8-19.1,2-28.6c0.7-5.8,4.8-6.7,5.3-6.7c1.2-0.2,1.9-1.3,1.8-2.4
					C146.7,83.8,145.6,83,144.5,83.2L144.5,83.2z"/>
				<path class="st5" d="M90.3,69.9c0.2,0,0.4,0.1,0.5,0.1c0.9,0,1.8-0.7,2-1.6c1.6-6.4,2.8-13,3.6-19.6c0.1-1.2-0.8-2.2-2-2.2
					c-1.1-0.1-2,0.7-2.2,1.7c-0.8,6.4-2,12.7-3.5,19C88.5,68.4,89.2,69.6,90.3,69.9C90.3,69.9,90.3,69.9,90.3,69.9z"/>
				<path class="st5" d="M108.2,140.6c-0.1-1.2-1.1-2-2.3-1.9c-1.2,0.1-2,1.1-1.9,2.3c0.9,9.4,2.8,11.3,3.4,12c0.8,0.8,2.2,0.8,3,0
					c0,0,0,0,0,0c0.8-0.8,0.8-2.2,0-3c0,0,0,0,0,0C110.2,149.8,108.9,148.2,108.2,140.6z"/>
				<path class="st5" d="M47.7,90.4c-3.1,1.8-5.8,3.3-7.1,3.6c-1.1,0.3-1.8,1.5-1.5,2.6c0.2,0.9,1.1,1.6,2,1.6c0.2,0,0.3,0,0.5-0.1
					c2.1-0.5,4.9-2.2,9.2-4.6s9.8-5.6,16.2-8.6c-0.2,0.3-0.3,0.7-0.3,1.1c0,1.5,0,3.9,0.2,7.3c0.1,1.1,1,2,2.1,2h0.1
					c1.2-0.1,2.1-1.1,2-2.2c0,0,0,0,0,0c-0.2-3.2-0.2-5.6-0.2-7c0-1-0.7-1.9-1.8-2.1c5.3-2.4,10.7-4.3,16.2-5.8
					c-0.2,0.3-0.3,0.6-0.3,1c-0.2,4.7-0.2,9.5,0.2,14.2c0.1,1.1,1,2,2.1,2h0.2c1.2-0.1,2-1.1,1.9-2.3c-0.3-4.5-0.4-9.1-0.2-13.7
					c0-0.8-0.4-1.5-1.1-1.9c5.1-1.2,10.4-2,15.6-2.4c-0.2,0.3-0.4,0.7-0.4,1.1c-0.3,5.7-0.1,11.5,0.5,17.2c0.1,1.1,1,1.9,2.1,1.9
					h0.2c1.2-0.1,2-1.2,1.9-2.3c-0.6-5.5-0.8-11-0.5-16.6c0-0.5-0.1-1-0.5-1.4h1.8c4.9,0,9.7,0.2,14.4,0.7c-0.4,0.4-0.7,0.9-0.7,1.5
					c-0.2,5.4-0.1,10.8,0.4,16.2c0.1,1.1,1,2,2.1,2h0.2c1.2-0.1,2.1-1.1,2-2.3c0,0,0,0,0,0c-0.4-5.3-0.5-10.5-0.4-15.8
					c0-0.5-0.1-1-0.4-1.4c5.4,0.6,10.7,1.5,16,2.8c1.2,0.2,2.3-0.6,2.5-1.7c0.2-1-0.4-2.1-1.5-2.4c-11.3-2.7-22.9-4-34.5-3.9
					c-17.2,0-32.2,5-43.9,10.4c0.1-0.8-0.4-1.6-1.1-2c-3.8-2.1-5.1-2.4-6.3-1.7s-1.5,1.9-1.6,6c0,0.7,0.3,1.3,0.9,1.7L55,86.2
					c0.1-0.9-0.5-1.8-1.3-2.1c-1.2-0.6-2.5-1-3.8-1.3c-0.6-0.1-1.3,0.1-1.8,0.5c-0.8,0.6-1.2,1.6-1.5,5.1
					C46.4,89.1,46.9,90,47.7,90.4z M60.6,82c0.3,0.2,0.8,0.4,1.2,0.7l-1.3,0.6C60.6,82.8,60.6,82.4,60.6,82z M50.8,87.6l1,0.4
					l-1.1,0.7l0,0C50.7,88.2,50.8,87.9,50.8,87.6z"/>
			</g>
		</g>
	</g>
</g>
</svg>
