<?xml version="1.0" encoding="utf-8"?>
<!-- Generator: Adobe Illustrator 25.0.0, SVG Export Plug-In . SVG Version: 6.00 Build 0)  -->
<svg version="1.1" id="Layer_1" xmlns="http://www.w3.org/2000/svg" xmlns:xlink="http://www.w3.org/1999/xlink" x="0px" y="0px"
	 viewBox="0 0 200 200" style="enable-background:new 0 0 200 200;" xml:space="preserve">
<style type="text/css">
	.st0{clip-path:url(#SVGID_2_);}
	.st1{fill:#FFFFFF;}
	.st2{fill:#CE7E00;}
	.st3{fill:#694828;}
</style>
<g id="Layer_2_1_">
	<g id="Layer_1-2">
		<g>
			<defs>
				<circle id="SVGID_1_" cx="100" cy="100" r="100"/>
			</defs>
			<clipPath id="SVGID_2_">
				<use xlink:href="#SVGID_1_"  style="overflow:visible;"/>
			</clipPath>
			<g class="st0">
				<rect x="-59.5" y="-28.1" class="st1" width="319" height="256.3"/>
				<path class="st2" d="M32.6,107.9c1.3-6,29.8-9.2,57.3,2.2s33.9,24.8,26.7,37.7c-8.2,14.5-23.1,22.3-50.4,3.6
					C41.3,134.4,31.8,111.9,32.6,107.9z"/>
				<path class="st2" d="M94.9,47.6c8.4-10,40.5,2.5,57.6,26.5s19.3,43.7-9.9,37.1c-37.4-8.4-52.8-30.8-54.7-42.5
					C86.1,57,94.9,47.6,94.9,47.6z"/>
				<path class="st3" d="M109.4,109.7c-0.9-0.7-2.3-0.6-3,0.4c-0.7,0.9-0.6,2.3,0.4,3l0,0c8.2,6.4,16.1,17.4,7.4,33.7
					c-4.8,8.9-11.5,13.4-20.1,13.4h-0.2c-20.7-0.2-47.7-26.3-56.6-43.4c-2.8-5.5-3-8.7-2.3-9.8c7.6-10.9,39.6-10.8,62.2,0.2
					c1.1,0.5,2.3,0.1,2.8-1c0.5-1.1,0.1-2.3-1-2.8l0,0c-22.4-10.9-58-12.6-67.6,1.2c-2,2.9-1.4,7.7,2,14.2
					c9.5,18.5,37.8,45.5,60.3,45.7h0.3c10.2,0,18.3-5.2,23.8-15.6C125.9,134.1,122.8,120.2,109.4,109.7z"/>
				<path class="st3" d="M107.9,129.2c0.4,0,0.8-0.1,1.2-0.4c1-0.6,1.3-1.9,0.6-2.9c0,0,0,0,0,0c-0.5-0.8-13-19.4-48.5-21.2
					c-1.2,0-2.1,0.9-2.1,2.1c0,1.1,0.8,2,1.9,2.1c17.4,0.9,28.8,6.1,35.2,10.3c7,4.5,9.9,8.9,10,9
					C106.5,128.8,107.2,129.2,107.9,129.2z"/>
				<path class="st3" d="M52.8,123.5c-0.9-0.8-2.2-0.6-3,0.3c-0.7,0.8-0.7,1.9,0,2.7c1,1,25.1,25,45.3,26.8h0.2c1.2,0,2.1-1,2.1-2.1
					c0-1.1-0.8-2-1.9-2.1C76.8,147.4,53.1,123.7,52.8,123.5z"/>
				<path class="st3" d="M102.4,139c0.4,0.5,1,0.8,1.6,0.8c0.5,0,1-0.2,1.4-0.5c0.9-0.7,1-2.1,0.3-3c0,0,0,0,0,0
					c-0.7-0.9-17.8-21.2-52.7-24.5c-1.2-0.1-2.2,0.7-2.3,1.9s0.7,2.2,1.9,2.3C85.6,119.2,102.2,138.8,102.4,139z"/>
				<path class="st3" d="M168.9,92.1c-3.6-18.2-20.4-41.1-37.5-51c-1.1-0.5-2.3-0.1-2.9,1c-0.5,1-0.2,2.1,0.7,2.7
					c16.2,9.3,32.1,30.9,35.4,48.1c1.2,6.2,0.6,11.2-1.9,14.4c-2.2,2.8-8,3.8-15.8,2.7c-20.5-2.9-48.3-18.6-55.4-36.4
					c-3.4-8.5-1.9-16.8,4.4-24.7c6.4-8.1,14.6-10.8,24.3-8c1.1,0.3,2.3-0.3,2.6-1.5s-0.3-2.3-1.5-2.6c-11.3-3.2-21.3,0.1-28.8,9.5
					c-7.2,9-9,19-5.1,28.9c3.7,9.2,12.5,18.5,24.8,26.1c10.7,6.6,23.4,11.4,34,12.9c2.2,0.3,4.3,0.5,6.5,0.5
					c6.3,0,10.8-1.6,13.3-4.8C169.5,105.7,170.4,99.6,168.9,92.1z"/>
				<path class="st3" d="M100.7,65c-0.2-1.2-1.3-2-2.4-1.8c-1.2,0.2-2,1.3-1.8,2.4c0,0.2,0.1,0.5,0.2,0.7c3,9.5,10.5,18.4,21.7,25.8
					c5,3.3,10.4,6.1,16,8.3c0.2,0.1,0.5,0.1,0.7,0.1c1.2,0,2.1-1,2.1-2.1c0-0.9-0.6-1.7-1.4-2C135.5,96.2,107.3,85.8,100.7,65z"/>
				<path class="st3" d="M152.6,80.6c-0.5-1.1-11.9-27.7-35.6-35c-1.1-0.4-2.3,0.2-2.7,1.3s0.2,2.3,1.3,2.7c0.1,0,0.1,0,0.2,0.1
					c21.7,6.8,32.8,32.4,32.9,32.6c0.3,0.8,1.1,1.3,2,1.3c0.3,0,0.6-0.1,0.8-0.2C152.6,83,153.1,81.7,152.6,80.6
					C152.6,80.7,152.6,80.6,152.6,80.6z"/>
				<path class="st3" d="M149,95.2c0.4,0,0.8-0.1,1.1-0.3c1-0.6,1.3-1.9,0.7-2.9c0,0,0,0,0,0c-16.9-26.8-38.6-38.6-39.5-39.1
					c-1.1-0.5-2.3,0-2.8,1.1c-0.4,1-0.1,2.1,0.8,2.7c0.2,0.1,21.6,11.8,37.9,37.6C147.6,94.8,148.3,95.2,149,95.2z"/>
			</g>
		</g>
	</g>
</g>
</svg>
