<?xml version="1.0" encoding="utf-8"?>
<!-- Generator: Adobe Illustrator 25.0.0, SVG Export Plug-In . SVG Version: 6.00 Build 0)  -->
<svg version="1.1" id="Layer_1" xmlns="http://www.w3.org/2000/svg" xmlns:xlink="http://www.w3.org/1999/xlink" x="0px" y="0px"
	 viewBox="0 0 200 200" style="enable-background:new 0 0 200 200;" xml:space="preserve">
<style type="text/css">
	.st0{clip-path:url(#SVGID_2_);}
	.st1{fill:#FFFFFF;}
	.st2{fill:#E4032E;}
	.st3{fill:#52AE32;}
	.st4{fill:#694828;}
</style>
<g id="Layer_2_1_">
	<g id="Layer_1-2">
		<g>
			<defs>
				<circle id="SVGID_1_" cx="100" cy="100" r="100"/>
			</defs>
			<clipPath id="SVGID_2_">
				<use xlink:href="#SVGID_1_"  style="overflow:visible;"/>
			</clipPath>
			<g class="st0">
				<rect x="-59.5" y="-28.1" class="st1" width="319" height="256.3"/>
				<path class="st2" d="M91.8,79.9c-2-1.9-10.5-10.4-25.1-5.3s-30.4,34.7-16.9,69c13.7,34.7,39.9,21.6,51.7,22.1
					c7.3,0.3,22.6,7.7,37.8-5.3c12.8-11,25.6-38.8,21.1-61.2c-4.7-23.5-17.3-30.8-30.6-31.2c-8.5-0.1-17,1.5-24.9,4.9l-0.8,9.6
					C104.2,82.4,96.3,84.2,91.8,79.9z"/>
				<path class="st3" d="M97.8,82.7c1.5-4.7,1.9-9.6,1.3-14.5c-0.8-7.8,1.1-13.2,2.3-14.7c1.2-1.5,18.8-21,46.7-15.2
					c5.3,1.1,7.1,2.5,7.1,2.5s-8.3,12.8-26.5,16.5c-13.4,2.7-23.2-5.9-23.9-4.8s1,7.9,0.6,15.2c-0.6,9.9-1.2,14.8-1.2,14.8
					S102.1,83.2,97.8,82.7z"/>
				<path class="st4" d="M157.3,83.1c-7-12-15.9-18.4-27-19.7c-6.2-0.9-12.6,0-18.4,2.4c-1.1,0.4-1.6,1.7-1.2,2.8
					c0.4,1.1,1.7,1.6,2.8,1.2l0,0c5.2-2.1,10.8-2.8,16.4-2.1c9.9,1.2,17.5,6.8,23.9,17.7c13.7,23.3,0.6,63.6-18.7,75.7
					c-11.1,6.9-17.3,5.8-24.5,4.4c-1.1-0.2-2.2-0.4-3.3-0.6c-1.2-0.1-2.2,0.7-2.3,1.9c-0.1,1.1,0.6,2.1,1.7,2.3
					c1.1,0.2,2.2,0.4,3.2,0.6c3,0.7,6.1,1,9.2,1.1c5,0,10.7-1.3,18.4-6.1c10.1-6.3,19.1-20,23.5-36
					C165.3,111.3,164.1,94.8,157.3,83.1z"/>
				<path class="st4" d="M97.3,164.2c-2.6,0.2-5.1,0.6-7.6,1.1c-7.2,1.3-13.4,2.5-24.5-4.4c-19.3-12-32.4-52.4-18.7-75.7
					c6.4-10.9,14-16.5,23.9-17.7c6.3-0.8,12.7,0.2,18.4,3c1,0.5,2.3,0.1,2.9-0.9c0.5-1,0.1-2.3-0.9-2.9c-0.1,0-0.2-0.1-0.2-0.1
					c-6.4-3.1-13.6-4.3-20.7-3.3c-11.2,1.3-20,7.8-27,19.7c-6.9,11.7-8.1,28.3-3.3,45.4c4.4,15.9,13.4,29.7,23.5,36
					c7.6,4.8,13.3,6.1,18.4,6.1c3.1-0.1,6.1-0.4,9.1-1.1c2.4-0.5,4.8-0.8,7.2-1c1.2-0.2,2-1.2,1.8-2.4
					C99.3,165.1,98.4,164.3,97.3,164.2L97.3,164.2z"/>
				<path class="st4" d="M95.2,74.9c0,1.2,0.9,2.1,2.1,2.1c0,0,0,0,0,0l0,0c1.2,0,2.1-1,2.1-2.1c0,0,0,0,0,0
					c0-10.5-2.2-17.4-3.6-20.7l2.6-1c1.1-0.4,1.7-1.6,1.2-2.8s-1.6-1.7-2.8-1.2l-4.7,1.8c-1.1,0.4-1.6,1.6-1.2,2.7
					c0,0.1,0.1,0.2,0.2,0.3C91.2,54.1,95.2,61.1,95.2,74.9z"/>
				<path class="st4" d="M105.1,76.8h0.2c1.1,0,2-0.8,2.1-1.9c0.5-4.9,0.4-9.8-0.2-14.7c-0.2-1.2-1.3-1.9-2.5-1.7
					c-1.1,0.2-1.8,1.2-1.7,2.2c0.6,4.6,0.6,9.2,0.2,13.8C103,75.7,103.9,76.7,105.1,76.8z"/>
				<path class="st4" d="M124.1,59.7c2.8,0,5.5-0.4,8.2-1.1c17.6-5.1,24.8-16.7,25.1-17.2c0.5-0.9,0.4-2-0.4-2.6
					c-1.6-1.4-3.3-2.7-5.1-3.7c-1-0.6-2.3-0.3-2.9,0.7c-0.6,1-0.3,2.3,0.8,2.9c1,0.6,2,1.3,3,2c-5.6,6.7-13.1,11.6-21.5,13.8
					c-10,2.9-20-1.3-24.3-4.3c2.4-5.3,8.8-14.3,17.9-15.9c6.2-1.1,12.7-0.6,18.7,1.5c1.1,0.4,2.3-0.2,2.7-1.3
					c0.4-1.1-0.2-2.3-1.3-2.7c-6.7-2.4-13.8-2.9-20.8-1.7c-11.4,2-19.4,13.4-21.8,20.1c-0.3,0.8-0.1,1.7,0.6,2.3
					C106.8,56,115.1,59.7,124.1,59.7z"/>
				<path class="st4" d="M142.9,38.7c-9.1-0.5-18.1,1.4-26.2,5.4c-1,0.5-1.5,1.8-0.9,2.9c0.4,0.7,1.1,1.2,1.9,1.2
					c0.3,0,0.7-0.1,1-0.2c7.4-3.7,15.6-5.4,23.9-5c1.2,0.2,2.3-0.6,2.4-1.8c0.2-1.2-0.6-2.3-1.8-2.4C143.1,38.7,143,38.7,142.9,38.7
					L142.9,38.7z"/>
				<path class="st4" d="M111.7,78.6c-0.7-1-2-1.2-3-0.5c0,0,0,0,0,0c-4.6,3.3-10.8,3.5-15.7,0.6c-0.9-0.7-2.3-0.5-3,0.5
					c-0.7,0.9-0.5,2.3,0.5,3c0.1,0.1,0.1,0.1,0.2,0.1c3,1.8,6.4,2.7,9.9,2.8c3.8,0,7.5-1.2,10.6-3.5
					C112.1,80.9,112.4,79.5,111.7,78.6C111.7,78.6,111.7,78.6,111.7,78.6z"/>
				<path class="st4" d="M65.9,81.6c0.9-0.7,1.1-2,0.4-3c-0.7-0.9-1.9-1.1-2.8-0.5c-0.6,0.4-15.3,10.6-14.1,31.8c0.1,1.1,1,2,2.1,2
					h0.1c1.2-0.1,2.1-1.1,2-2.2c0,0,0,0,0,0C52.6,90.9,65.3,82,65.9,81.6z"/>
			</g>
		</g>
	</g>
</g>
</svg>
