<?xml version="1.0" encoding="utf-8"?>
<!-- Generator: Adobe Illustrator 25.0.0, SVG Export Plug-In . SVG Version: 6.00 Build 0)  -->
<svg version="1.1" id="Layer_1" xmlns="http://www.w3.org/2000/svg" xmlns:xlink="http://www.w3.org/1999/xlink" x="0px" y="0px"
	 viewBox="0 0 200 200" style="enable-background:new 0 0 200 200;" xml:space="preserve">
<style type="text/css">
	.st0{clip-path:url(#SVGID_2_);}
	.st1{fill:#FFFFFF;}
	.st2{fill:#DADADA;}
	.st3{fill:#FFE596;}
	.st4{fill:#DFC2A0;}
	.st5{fill:#BF8746;}
	.st6{fill:#694828;}
</style>
<g id="Layer_2_1_">
	<g id="Layer_1-2">
		<g>
			<defs>
				<circle id="SVGID_1_" cx="100" cy="100" r="100"/>
			</defs>
			<clipPath id="SVGID_2_">
				<use xlink:href="#SVGID_1_"  style="overflow:visible;"/>
			</clipPath>
			<g class="st0">
				<rect x="-59.5" y="-28.1" class="st1" width="319" height="256.3"/>
				<path class="st2" d="M77,163c0,0,36.4,4.2,64.3-25.1s22.8-61.8,17.3-71.4c-1.8-3.1-3.6,6-3.1,13.5s-0.1,13.9-8.4,25.5
					c-7.8,10.9-6.9,23-16.4,29.5c-12,8.3-16.1,5.7-28.9,14C91.6,155.7,70.5,162.1,77,163z"/>
				<path class="st3" d="M124.6,72.7c7.8-12.5,11.2-26-6.6-21.3S80,75.6,66.2,91.7s-23,41.9-11.8,40.7
					C68.9,130.8,102.1,109,124.6,72.7z"/>
				<path class="st4" d="M147.4,49.6c-2.7-2.8-6-3.1-9.5-2.8s-0.3,10.3,0.9,16.1s6.1,14.3,1.5,29.3s-16.4,30.8-26.7,38.1
					S90.7,144,75.5,143.4s-21.7-12.4-24-11.8s-10.2,15.1-0.9,17.1c17.3,3.7,28.8,8.3,40.6,5.6c8-1.8,9.7-5.6,16-8.6
					c12-5.9,21.1-5.7,28.7-16.2c4.2-5.8,4.7-11.6,8.4-19.3c4.3-8.9,8.8-12.2,10.8-22.1c1.9-9.1-2.6-17.4-4.1-28.3
					C150.4,54.8,150.1,52.3,147.4,49.6z"/>
				<path class="st4" d="M123.5,39.1c-11.9-1.5-17.6,4.3-36.8,9.1c-10.5,2.6-23.1,12-29.3,21.7s-17.2,36.7-17,49.5s3.8,20.2,5.2,17
					s3.9-8.4,2.4-12.7c-1.5-4.4-2.6-19.4,8.2-38.1c9.6-16.6,26.7-29.2,38.6-34c10.3-4.1,21.8-5.5,31.2-3.1c4.4,1.1,4,1.2,9.3-0.6
					C140.7,46.2,142.4,41.5,123.5,39.1z"/>
				<path class="st5" d="M111.1,53c-10.8-0.7-35.6,13.1-46.7,29.2s-12,31.3-12,31.3c9-17.3,21.5-32.6,36.6-45
					C103.3,57,111.1,53,111.1,53z"/>
				<path class="st5" d="M135.8,87.2c1.8-9.8-1.4-23.3-5-16.1c-6.6,13.2-22,33.1-38.4,46.3c-18,14.5-27.5,16.4-19,17.5
					c8.5,1.2,34.7-6.8,45.5-18C129.9,105.7,134.2,95.9,135.8,87.2z"/>
				<path class="st6" d="M158.9,61c-0.6-1-1.9-1.4-2.9-0.8c-1,0.6-1.4,1.9-0.8,2.9c12.1,21.4,5,52.9-17.1,75
					c-21.3,21.3-51.1,28.8-72.6,18.3c-1.1-0.5-2.3-0.1-2.8,1c-0.5,1.1-0.1,2.3,1,2.9l0,0c7.2,3.4,15.1,5.2,23.1,5.1
					c18.6,0,38.8-8.6,54.5-24.2C164.5,117.7,172,84,158.9,61z"/>
				<path class="st6" d="M73.1,155.9c3.3,1.1,6.8,1.7,10.3,1.8c1.6,0,3.3-0.1,4.9-0.4c7-1.1,10.9-3.8,15-6.6
					c2.2-1.5,4.4-2.9,6.8-4.1c2.5-1.2,5.1-2.2,7.8-3c5.5-1.9,11.2-3.8,16.6-9.1s7.3-11,9.1-16.6c0.8-2.7,1.8-5.2,3-7.8
					c1.2-2.4,2.6-4.6,4.1-6.8c2.8-4.1,5.4-8,6.6-15c1.1-6.5-0.1-10.5-1.4-15.2c-0.6-2-1.1-4-1.6-6.5c-0.5-2.3-0.8-4.3-1-6.2
					c-0.6-3.8-1.1-7.1-2.5-10.2c-0.5-1.1-1.7-1.6-2.8-1.1c-1.1,0.5-1.6,1.7-1.1,2.8c0,0,0,0.1,0,0.1c1.2,2.6,1.6,5.4,2.2,9
					c0.3,1.9,0.6,4.1,1.1,6.5c0.5,2.7,1.2,4.9,1.7,6.8c1.3,4.5,2.2,7.8,1.3,13.4c-1,6.1-3.3,9.4-5.9,13.3c-1.6,2.3-3.1,4.7-4.4,7.3
					c-1.3,2.7-2.4,5.5-3.2,8.3c-1.8,5.3-3.5,10.3-8.1,14.9c-4.6,4.6-9.6,6.3-14.9,8.1c-2.8,0.9-5.6,2-8.3,3.2
					c-2.5,1.3-5,2.8-7.3,4.4c-3.9,2.6-7.2,4.9-13.3,5.9c-5.6,0.9-8.8,0-13.4-1.3c-2-0.6-4.2-1.2-6.8-1.7c-2.4-0.5-4.5-0.8-6.5-1.1
					c-5.1-0.8-8.7-1.3-12.1-4.1c-0.9-0.7-2.3-0.5-3,0.4c-0.7,0.9-0.5,2.1,0.3,2.8c4.3,3.6,8.7,4.2,14.2,5.1c2,0.3,4,0.6,6.2,1
					C69.1,154.8,71.2,155.3,73.1,155.9z"/>
				<path class="st6" d="M42.4,130.4c-0.3-1.9-0.6-4.1-1.1-6.5c-0.3-1.3-0.5-2.5-0.8-3.7c-1.4-6.3-2.2-10.1-1.1-17
					c1-6.5,3-9.6,5.4-13.6c1.1-1.8,2.4-3.9,3.7-6.5c1-2.1,1.9-4.1,2.7-6c2.4-5.5,4.6-10.7,9.9-16s10.5-7.6,16-9.9
					c1.9-0.8,3.9-1.7,6-2.7c2.6-1.3,4.6-2.6,6.5-3.7c4-2.5,7.1-4.4,13.6-5.5c6.9-1.1,10.7-0.3,17,1.1l3.6,0.8
					c2.4,0.5,4.6,0.8,6.5,1.1s3.7,0.5,5.2,0.9c1.1,0.3,2.3-0.4,2.6-1.6c0.3-1.1-0.4-2.3-1.6-2.6l0,0c-1.8-0.4-3.6-0.7-5.6-1
					s-4-0.6-6.2-1c-1.3-0.3-2.5-0.5-3.6-0.8c-6.6-1.4-10.9-2.3-18.6-1.1c-7.3,1.2-11.1,3.5-15.2,6c-1.8,1.1-3.7,2.3-6.1,3.5
					c-2,1-3.9,1.8-5.8,2.6c-5.9,2.6-11.4,5-17.3,10.8s-8.4,11.5-10.9,17.3c-0.8,1.9-1.7,3.8-2.6,5.8c-1.2,2.4-2.4,4.3-3.5,6.1
					c-2.5,4-4.8,7.9-6,15.2c-1.2,7.7-0.3,12,1.1,18.6c0.2,1.1,0.5,2.3,0.8,3.6c0.5,2.3,0.8,4.3,1,6.2s0.5,3.6,0.9,5.2
					c0.2,1,1.1,1.7,2.1,1.7c0.2,0,0.3,0,0.5,0c1.1-0.3,1.9-1.4,1.6-2.5C42.9,133.8,42.6,132.1,42.4,130.4z"/>
				<path class="st6" d="M61.9,132c0.2,0,0.5,0,0.7-0.1c6.8-2.3,21.1-9.1,40.7-28.7c19.4-19.3,26.2-33.6,28.6-40.4
					c0.3-1.1-0.5-2.3-1.6-2.6c-1-0.2-2,0.3-2.4,1.2c-2.2,6.4-8.8,20-27.6,38.8c-18.9,18.9-32.6,25.4-39,27.6
					c-1.1,0.4-1.7,1.6-1.3,2.7C60.2,131.4,61,132,61.9,132z"/>
				<path class="st6" d="M113.1,55.5c1.1-0.4,1.6-1.7,1.2-2.8c-0.4-1.1-1.7-1.6-2.8-1.2c-0.1,0-0.2,0.1-0.3,0.1
					c-7.4,3.4-19.4,10.6-34.2,25.5C60.1,94,53,107.3,49.9,115.4c-0.4,1.1,0.1,2.3,1.2,2.7c0.2,0.1,0.5,0.1,0.7,0.1
					c0.9,0,1.7-0.5,2-1.4c2.9-7.7,9.8-20.4,26.2-36.8C94.5,65.7,106,58.7,113.1,55.5z"/>
				<path class="st6" d="M124.2,121.2c-0.8-0.8-2.2-0.8-3,0s-0.8,2.2,0,3c1.9,1.9,3.9,4,5.8,5.8c0.4,0.4,0.9,0.6,1.5,0.6
					c1.2,0,2.1-0.9,2.1-2.1c0-0.6-0.2-1.1-0.6-1.5C128.1,125.2,126,123.1,124.2,121.2z"/>
				<path class="st6" d="M141.3,83.9c-0.2,1.2,0.5,2.3,1.7,2.5c1.7,0.4,3.3,0.9,4.9,1.6c0.3,0.1,0.6,0.2,0.9,0.2
					c1.2,0,2.1-1,2.1-2.1c0-0.8-0.5-1.6-1.3-1.9c-1.8-0.8-3.8-1.5-5.8-1.9C142.7,82,141.6,82.7,141.3,83.9
					C141.3,83.9,141.3,83.9,141.3,83.9z"/>
				<path class="st6" d="M132.3,50.5c0.7,0.9,2.1,1.1,3,0.3c0,0,0,0,0,0c1.6-1.3,3.5-2.2,5.6-2.6c1.2-0.2,1.9-1.4,1.7-2.5
					c-0.2-1.2-1.4-1.9-2.5-1.7c-2.7,0.6-5.2,1.7-7.4,3.5C131.7,48.2,131.5,49.5,132.3,50.5C132.3,50.5,132.3,50.5,132.3,50.5z"/>
				<path class="st6" d="M83.9,141.4c-1.2,0.2-1.9,1.4-1.6,2.5c0,0,0,0,0,0.1c0.5,2.1,1.1,4.1,2,6c0.3,0.8,1.1,1.3,1.9,1.2
					c0.3,0,0.6-0.1,0.9-0.2c1.1-0.5,1.5-1.7,1.1-2.8c0,0,0,0,0,0c-0.8-1.6-1.3-3.4-1.7-5.1C86.1,142,85,141.2,83.9,141.4
					C83.9,141.4,83.9,141.4,83.9,141.4z"/>
				<path class="st6" d="M47.2,100.5c0.2,0,0.3,0,0.5-0.1c-0.6,2-1.2,4.1-1.6,6.1c-2.3,11.4-0.8,21.8,3.9,26.5
					c3.8,3.9,12.5,7.4,23.8,7.4c1.1,0,2.3,0,3.5-0.1c10.6-0.7,26.5-4.8,42.4-20.7c26.4-26.4,22.4-54.2,16.5-65.3
					c-0.6-1-1.8-1.4-2.9-0.9c-1,0.6-1.4,1.8-0.9,2.9c11.3,21.4-3.3,47.8-15.8,60.3c-14.9,14.9-29.8,18.8-39.7,19.4
					c-11.1,0.7-20.5-2.5-24-6.1c-7.1-7.1-5.7-35.7,17.8-59.2c20.9-20.9,45.3-24.3,55.9-19.9c1.1,0.4,2.3-0.3,2.7-1.4
					c0.3-1-0.1-2.1-1.1-2.6c-5.9-2.4-16.2-3-28.1,0.7c0.1-0.4,0.1-0.8,0-1.2c-0.3-0.9-0.5-1.8-0.6-2.8c-0.1-0.9-1-1.6-1.9-1.5
					c-0.9,0.1-1.6,1-1.5,1.9c0.1,1.2,0.4,2.4,0.8,3.5c0.1,0.4,0.4,0.7,0.7,0.8C86.9,52.5,77,58.8,68.7,67c0-0.5-0.2-0.9-0.5-1.2
					l-3.1-3.1c-0.7-0.7-1.7-0.7-2.4,0s-0.7,1.7,0,2.4l3.1,3.1c0.3,0.3,0.7,0.5,1.2,0.5l0,0c-8.2,8.3-14.5,18.2-18.5,29.1
					c-0.2-0.2-0.4-0.4-0.7-0.5c-1.1-0.4-2.1-0.7-3.3-0.8c-0.9-0.1-1.8,0.5-1.9,1.4c-0.1,0.9,0.5,1.8,1.4,1.9
					c0.9,0.1,1.7,0.3,2.5,0.6C46.8,100.5,47,100.5,47.2,100.5z"/>
				<path class="st6" d="M46.2,141.9c1,0,1.8-0.7,2.1-1.6c0.3-1,0.6-2,1.1-2.9c0.6-1,0.2-2.3-0.9-2.9c-1-0.6-2.3-0.2-2.9,0.9
					c-0.6,1.2-1.1,2.5-1.5,3.8c-0.3,1.1,0.4,2.3,1.5,2.6c0,0,0,0,0,0C45.9,141.9,46.1,141.9,46.2,141.9z"/>
			</g>
		</g>
	</g>
</g>
</svg>
