<?xml version="1.0" encoding="utf-8"?>
<!-- Generator: Adobe Illustrator 25.0.0, SVG Export Plug-In . SVG Version: 6.00 Build 0)  -->
<svg version="1.1" id="Layer_1" xmlns="http://www.w3.org/2000/svg" xmlns:xlink="http://www.w3.org/1999/xlink" x="0px" y="0px"
	 viewBox="0 0 200 200" style="enable-background:new 0 0 200 200;" xml:space="preserve">
<style type="text/css">
	.st0{clip-path:url(#SVGID_2_);}
	.st1{fill:#FFFFFF;}
	.st2{fill:#785D32;}
	.st3{fill:#EBCB7A;}
	.st4{fill:#694828;}
</style>
<g id="Layer_2_1_">
	<g id="Layer_1-2">
		<g>
			<defs>
				<circle id="SVGID_1_" cx="100" cy="100" r="100"/>
			</defs>
			<clipPath id="SVGID_2_">
				<use xlink:href="#SVGID_1_"  style="overflow:visible;"/>
			</clipPath>
			<g class="st0">
				<rect x="-59.5" y="-28.1" class="st1" width="319" height="256.3"/>
				<path class="st2" d="M156.2,81.3c0,0,1.8-27.5-27.9-37.7s-55.6,2.6-55.8,13.5c-0.2,10.3,7.4,12.1,14.3,12.6
					c5,0.3,7.2,7.3,13.9,7.8s10.6-1,16.1,5.6c5,6.1,7.3,7.6,15.1,7.5c5.1,0,6.9,10.2,14.2,9C150.9,98.8,156.6,90.6,156.2,81.3z"/>
				<path class="st3" d="M81,76.5c3.8,15.3-0.5,31.5-11.3,43c-15.5,16.4-31.5,28.9-20.4,42.6c12.2,15.1,40.2,12.2,58.2-15.3
					c12.7-19.4,9.9-39.6,22-44.4c10.6-4.2,8.9-11.2-0.4-11.7c-4.1-0.2-7.7-1.3-11.9-7.5c-3-4.4-8.4-6.1-13.4-5.3
					c-8.2,1.2-10.4-7.6-18.2-8.1C82,69.5,79.7,72.2,81,76.5z"/>
				<path class="st4" d="M142.2,36.3c-1-0.6-2.3-0.3-2.9,0.7c-0.6,0.9-0.4,2.2,0.5,2.8C157.5,52,159.6,70.9,156,83.5
					c-2.3,8.1-7.1,14-11.6,14.2c-1.3,0.1-2.5,0-3.8-0.1c-1.2-0.1-2.2,0.8-2.2,2c-0.1,1.1,0.7,2,1.8,2.2c1,0.1,1.9,0.2,2.9,0.2
					c0.5,0,1.1,0,1.6,0c6.5-0.3,12.6-7.1,15.4-17.3C164,70.8,161.7,49.8,142.2,36.3z"/>
				<path class="st4" d="M136.2,90.8c-2.8-2.2-5.4-2.3-7.7-2.4c-1.7,0.1-3.4-0.3-4.8-1.1c-1.3-1-2.5-2.2-3.3-3.6
					c-1.7-2.8-4.2-5.1-7.2-6.7c-2.7-1.4-5.8-2-8.8-1.5c-2.1,0.3-4.3,0-6.3-0.8c-1.6-0.6-3-1.7-4-3c-1.5-2.1-3.8-3.5-6.3-4
					c-0.3-0.1-0.7-0.1-1-0.2c-1.2-0.1-2.2,0.8-2.3,1.9c0,0,0,0,0,0.1c-0.1,1.2,0.8,2.2,2,2.3c0,0,0,0,0,0l0.4,0.1
					c1.6,0.3,3.1,1.2,4.1,2.6c1.5,1.8,3.4,3.3,5.6,4.2c2.6,1.1,5.5,1.5,8.2,1.1c2.2-0.4,4.5,0,6.5,1.1c2.3,1.2,4.3,3,5.6,5.3
					c1.1,1.9,2.7,3.5,4.5,4.8c2.1,1.3,4.5,1.9,7,1.8c2,0.1,3.6,0.2,5.3,1.5l0.5,0.4c0.8,0.8,2.2,0.8,3,0c0.8-0.8,0.8-2.2,0-3
					c-0.1-0.1-0.1-0.1-0.2-0.2C136.6,91.2,136.4,91,136.2,90.8z"/>
				<path class="st4" d="M76.7,72.4c0.4,0.4,0.9,0.6,1.5,0.6c0.6,0,1.1-0.2,1.5-0.6c0.8-0.8,0.8-2.2,0-3c0,0,0,0,0,0
					c-2.8-2.9-4.6-6.6-5-10.6c-0.8-5.8,4.1-13.8,12-19.5c13-9.6,29.9-11.1,45.1-4.1c1.1,0.5,2.3,0,2.8-1s0-2.3-1-2.8
					c-16.7-7.7-35.1-6-49.4,4.5c-9.3,6.9-14.7,16.1-13.7,23.5C70.9,64.3,73.1,68.9,76.7,72.4z"/>
				<path class="st4" d="M47.7,129.6c0.6,0,1.1-0.2,1.5-0.6c1.1-1,2.2-2,3.4-2.8c17.1-12.3,25.9-22,30.4-33.6c1.6-4.3,2-9,0.9-13.5
					c-0.3-1.1-1.5-1.8-2.6-1.5c-1,0.3-1.7,1.3-1.5,2.4c0.9,3.7,0.6,7.6-0.7,11.1c-4.2,10.8-12.6,20-29,31.8c-1.4,1-2.7,2.1-3.9,3.2
					c-0.8,0.8-0.8,2.2,0,3C46.6,129.4,47.1,129.6,47.7,129.6z"/>
				<path class="st4" d="M130.4,99.3c-5.5,2.2-9.7,6.7-11.5,12.3c-0.7,2.1-1.4,4.5-2.2,7c-4,13.4-10,33.7-30.1,45.8
					c-13.4,8.1-26.4,4.5-34.1-1.6c-8.3-6.6-11.9-16.4-9.1-25c0.4-1.1-0.3-2.3-1.4-2.7c-1.1-0.3-2.3,0.3-2.7,1.3
					c-3.3,10.3,0.8,22,10.5,29.7c5.9,4.7,13.2,7.2,20.7,7.2c6.5-0.1,12.8-1.9,18.3-5.3c21.5-13,27.8-34.2,32-48.3
					c0.7-2.5,1.4-4.9,2.1-6.8c1.4-4.4,4.7-8,9.1-9.8c1.1-0.4,1.6-1.7,1.2-2.8S131.6,98.9,130.4,99.3L130.4,99.3L130.4,99.3z"/>
				<path class="st4" d="M98.2,146c5.6-5.8,9.4-13.2,11-21.1c0.2-1.2-0.6-2.2-1.8-2.4c-1.2-0.2-2.2,0.6-2.4,1.8
					c0,0.1-1.9,10.9-9.8,18.8c-0.8,0.8-0.8,2.2,0,3c0.4,0.4,0.9,0.6,1.5,0.6C97.3,146.6,97.8,146.4,98.2,146z"/>
				<path class="st4" d="M141.8,87.5c-1.1,0.4-1.7,1.6-1.4,2.7c0.3,0.9,1.1,1.5,2,1.5c0.2,0,0.4,0,0.6-0.1c8.9-2.7,9.4-11,8.4-15
					c-0.4-1.1-1.6-1.7-2.7-1.4c-1,0.3-1.6,1.3-1.5,2.4C147.6,78.4,149,85.3,141.8,87.5z"/>
			</g>
		</g>
	</g>
</g>
</svg>
