<?xml version="1.0" encoding="utf-8"?>
<!-- Generator: Adobe Illustrator 25.0.0, SVG Export Plug-In . SVG Version: 6.00 Build 0)  -->
<svg version="1.1" id="Layer_1" xmlns="http://www.w3.org/2000/svg" xmlns:xlink="http://www.w3.org/1999/xlink" x="0px" y="0px"
	 viewBox="0 0 200 200" style="enable-background:new 0 0 200 200;" xml:space="preserve">
<style type="text/css">
	.st0{clip-path:url(#SVGID_2_);}
	.st1{fill:#FFFFFF;}
	.st2{fill:#E3E3E3;}
	.st3{fill:#D3A05C;}
	.st4{fill:#694828;}
</style>
<g id="Layer_2_1_">
	<g id="Layer_1-2">
		<g>
			<defs>
				<circle id="SVGID_1_" cx="100" cy="100" r="100"/>
			</defs>
			<clipPath id="SVGID_2_">
				<use xlink:href="#SVGID_1_"  style="overflow:visible;"/>
			</clipPath>
			<g class="st0">
				<rect x="-59.5" y="-28.1" class="st1" width="319" height="256.3"/>
				<path class="st2" d="M83.9,126.5c5.1,5.4,6.4,13.3,3.3,20c-5,12.1-23.3,7.7-29,5.1c0,0,14.7-0.4,19.8-8.6
					C83,134.9,78,121.2,83.9,126.5z"/>
				<path class="st3" d="M67,101.7c1.1-2.4,3.1-7.2,6.4-8.8s14.1-3.5,19.3-9.7c5.3-6.2,5.3-11.9,16.5-12.7
					c11.2-0.9,21.5-9.9,24-14.1s14.1-8.6,21.8-8.8c7.7-0.2,12.3-5.8,15.4,0.4s-3.4,22.6-17.1,42.5c-10.3,14.9-31.9,36-41.7,44.7
					c-4,3.3-8.5,6-13.3,8c1.1-10-2.3-19.9-9.3-27.1C77,103.6,67,101.7,67,101.7z"/>
				<path class="st4" d="M50,100.8c0.4,0,0.8-0.1,1.2-0.3c1.5-1,3.1-2,4.8-3c6.2-3.6,12-7.8,17.4-12.4c7.3-6.1,14.9-12.3,32.6-20.3
					c6.8-3.2,13.4-6.8,19.9-10.7c12.4-7.2,24.1-14.1,32.8-12.5c1.2,0.2,2.3-0.6,2.5-1.7s-0.6-2.3-1.7-2.5c-4.5-0.8-9.5,0.1-14.7,2.1
					c0.1-0.2,0.1-0.4,0.2-0.6l0.4-4.1c0.1-1.2-0.8-2.2-1.9-2.3c-1.2-0.1-2.2,0.7-2.3,1.9l-0.4,4.1c-0.1,0.9,0.4,1.8,1.3,2.2
					c-6.3,2.9-12.4,6.2-18.3,9.8c-2.3,1.3-4.6,2.7-6.9,4c0.1-0.3,0.1-0.6,0-0.9l-1.2-4.4c-0.3-1.1-1.4-1.9-2.6-1.6
					c-1.1,0.3-1.9,1.4-1.6,2.6c0,0,0,0.1,0,0.1l1.2,4.3c0.2,0.6,0.6,1.2,1.2,1.4c-3.2,1.8-6.4,3.4-9.7,4.9
					c-12,5.4-19.5,10.1-25.4,14.4c0-0.2,0-0.5-0.1-0.7L77,69.6c-0.5-1.1-1.7-1.6-2.8-1.1c-1,0.4-1.5,1.5-1.2,2.5l1.6,4.9
					c0.2,0.7,0.8,1.2,1.5,1.4c-1.9,1.5-3.7,3-5.5,4.5c-5.2,4.5-10.8,8.5-16.8,12c-1.7,1-3.4,2-5,3.1c-1,0.6-1.3,1.9-0.6,2.9
					C48.6,100.4,49.3,100.8,50,100.8L50,100.8z"/>
				<path class="st4" d="M51.4,102.7c-1.2,0.1-2.1,1.1-2,2.2c0.1,1.2,1.1,2.1,2.2,2c0.1,0,0.1,0,0.2,0c7.4-0.6,14.8,1.1,21.1,5
					c11,6.8,18.4,17.5,19.8,28.6c0.1,1.1,1,1.9,2.1,1.9H95c1.2-0.1,2-1.2,1.8-2.4c0,0,0,0,0-0.1c-1.6-12.4-9.7-24.3-21.8-31.7
					C68,103.9,59.7,102,51.4,102.7z"/>
				<path class="st4" d="M172.2,71.7l-4.6-0.4c-0.2,0-0.3,0-0.5,0c6.4-12.1,8.2-21,2.5-27.9c-0.8-0.9-2.1-1-3-0.3s-1,2.1-0.3,3
					c7.2,8.7-2.5,24-18.9,48.3c-3.1,4.6-9,11.2-21.1,23.7c-4.3,4.4-9.8,9.4-15.2,14.2c-3.4,3.1-6.9,6.3-10,9.2
					c-0.9,0.8-0.9,2.2-0.1,3c0.4,0.4,1,0.7,1.5,0.7c0.5,0,1.1-0.2,1.5-0.6c3-2.9,6.4-5.9,9.9-9.1c3.7-3.3,7.5-6.8,10.9-10
					c-0.1,1,0.6,1.9,1.6,2.2l4.5,1.2c0.2,0,0.4,0.1,0.6,0.1c1.2,0,2.1-1,2.1-2.2c0-0.9-0.6-1.8-1.6-2l-4.5-1.2
					c-0.2-0.1-0.4-0.1-0.6-0.1c0.8-0.8,1.7-1.6,2.4-2.4c9.1-9.3,14.7-15.5,18.4-20c0.1,0.9,0.8,1.6,1.6,1.8l2,0.4
					c1,0.2,1.9,0.4,2.7,0.6c0.2,0.1,0.4,0.1,0.6,0.1c1.2,0,2.1-1,2.1-2.1c0-0.9-0.6-1.8-1.5-2c-1-0.3-2-0.5-3.1-0.7l-2-0.4
					c-0.2,0-0.5,0-0.7,0c0.5-0.7,0.9-1.3,1.3-1.8c5.8-8.5,10.7-16,14.5-22.6c0.3,0.7,1,1.2,1.8,1.2l4.6,0.4h0.3
					c1.2,0.1,2.2-0.9,2.2-2C174.3,72.8,173.4,71.8,172.2,71.7L172.2,71.7L172.2,71.7z"/>
				<path class="st4" d="M107.1,149.9l-9.4-3.1l0,0l0,0h-0.1h-0.2h-0.2h-0.2h-0.2h-0.2l-0.2,0.1l-0.2,0.1c-0.1,0-0.1,0.1-0.2,0.1
					l-0.1,0.1l-0.2,0.2c0,0-0.1,0.1-0.1,0.1l0,0l0,0c-1.7,1.8-3.2,3.7-4.5,5.9c-3.5,6.3-16.2,11.8-30.6,9.7
					c-11.2-1.5-20.9-8.3-26.3-18.1c-4.5-8.4-5-17.7-1.3-25.5c2.3-4.9,6.6-9.8,12.7-14.7h0.1c0.1,0,0.1-0.1,0.2-0.2l0.1-0.2
					c0,0,0.1-0.1,0.1-0.2c0-0.1,0.1-0.1,0.1-0.2l0.1-0.2c0-0.1,0-0.1,0.1-0.2c0-0.1,0-0.1,0-0.2v-0.2c0-0.1,0-0.1,0-0.2
					c0-0.1,0-0.1,0-0.2c0-0.1,0-0.1,0-0.2c0-0.1,0-0.1-0.1-0.2c0,0,0-0.1,0-0.1l-2.9-7.9c-0.4-1.1-1.6-1.7-2.7-1.3s-1.7,1.6-1.3,2.7
					l2.4,6.5c-6,4.9-10.3,10-12.8,15.2c-4.3,9-3.8,19.7,1.4,29.4c6,11.1,17,18.6,29.5,20.4c2.2,0.3,4.4,0.5,6.6,0.5
					c12.5,0,24.2-4.9,28.3-12.4c0.9-1.4,1.9-2.8,3.1-4l8.1,2.7c0.2,0.1,0.4,0.1,0.7,0.1c1.2,0,2.1-0.9,2.1-2.1c0-0.9-0.6-1.8-1.5-2
					L107.1,149.9z"/>
				<path class="st4" d="M78.4,100.2c0.9,0,1.7-0.7,2-1.6l1.3-4.6c0.4-1.1-0.2-2.3-1.3-2.7c-1.1-0.4-2.3,0.2-2.7,1.3
					c0,0.1-0.1,0.2-0.1,0.3l-1.3,4.6c-0.3,1.1,0.3,2.3,1.5,2.6c0,0,0,0,0,0C78,100.2,78.2,100.2,78.4,100.2z"/>
				<path class="st4" d="M104.7,119.7c0.1,0,0.3,0,0.4,0l7.5-1.4c1.2-0.2,1.9-1.4,1.6-2.5c-0.2-1.1-1.3-1.8-2.4-1.7l-7.6,1.4
					c-1.2,0.2-1.9,1.3-1.7,2.5C102.9,119,103.7,119.7,104.7,119.7L104.7,119.7z"/>
				<path class="st4" d="M39.1,137.8c-1.1,0.4-1.6,1.7-1.2,2.8c0.1,0.2,7.2,17.9,27.6,17.9c0.6,0,1.3,0,1.9-0.1
					c1.2-0.1,2.1-1.1,2-2.2c-0.1-1.2-1-2.1-2.2-2c0,0,0,0,0,0c-10.8,0.9-21-5.2-25.4-15.1C41.4,137.9,40.2,137.4,39.1,137.8z"/>
				<path class="st4" d="M104.2,86.1c0.9,0,1.7-0.5,2-1.4l2-5.2c0.4-1.1-0.1-2.3-1.2-2.8c-1.1-0.4-2.3,0.1-2.8,1.2l-2,5.2
					c-0.4,1.1,0.1,2.3,1.2,2.8c0,0,0,0,0.1,0C103.6,86.1,103.9,86.1,104.2,86.1z"/>
				<path class="st4" d="M127.7,95.6l-5,0.6c-1.2,0.2-2,1.2-1.8,2.4c0.1,1,1,1.8,2.1,1.8h0.3l5-0.6c1.2-0.2,1.9-1.3,1.7-2.5
					C129.7,96.3,128.7,95.5,127.7,95.6L127.7,95.6z"/>
				<path class="st4" d="M131.1,70.8c0.9,0,1.8-0.7,2-1.6l1-3.6c0.4-1.1-0.2-2.3-1.3-2.7c-1.1-0.4-2.3,0.2-2.7,1.3
					c0,0.1,0,0.2-0.1,0.2l-1,3.6c-0.3,1.1,0.4,2.3,1.5,2.6C130.7,70.7,130.9,70.8,131.1,70.8z"/>
				<path class="st4" d="M143.1,73.9l-3.1,0.8c-1.1,0.3-1.8,1.5-1.5,2.6c0.2,0.9,1.1,1.6,2.1,1.6c0.2,0,0.4,0,0.6-0.1l3.1-0.9
					c1.1-0.4,1.7-1.6,1.4-2.7C145.2,74.3,144.2,73.7,143.1,73.9L143.1,73.9z"/>
			</g>
		</g>
	</g>
</g>
</svg>
